<svg width="162" height="66" viewBox="0 0 162 66" fill="none" xmlns="http://www.w3.org/2000/svg">
<path d="M42.1414 21.964C40.3286 21.964 38.6905 21.5732 37.227 20.7915C35.7801 20.0099 34.6408 18.9372 33.8093 17.5734C32.9944 16.193 32.5869 14.6464 32.5869 12.9334C32.5869 11.2204 32.9944 9.68202 33.8093 8.31828C34.6408 6.93791 35.7801 5.8569 37.227 5.07524C38.6905 4.29358 40.3286 3.90276 42.1414 3.90276C43.9542 3.90276 45.584 4.29358 47.0309 5.07524C48.4778 5.8569 49.617 6.93791 50.4486 8.31828C51.2801 9.68202 51.6959 11.2204 51.6959 12.9334C51.6959 14.6464 51.2801 16.193 50.4486 17.5734C49.617 18.9372 48.4778 20.0099 47.0309 20.7915C45.584 21.5732 43.9542 21.964 42.1414 21.964ZM42.1414 18.5214C43.1725 18.5214 44.1039 18.2886 44.9354 17.8229C45.767 17.3406 46.4156 16.6753 46.8812 15.8272C47.3635 14.979 47.6047 14.0144 47.6047 12.9334C47.6047 11.8524 47.3635 10.8878 46.8812 10.0396C46.4156 9.19141 45.767 8.53448 44.9354 8.06882C44.1039 7.58652 43.1725 7.34537 42.1414 7.34537C41.1103 7.34537 40.179 7.58652 39.3474 8.06882C38.5159 8.53448 37.8589 9.19141 37.3766 10.0396C36.911 10.8878 36.6781 11.8524 36.6781 12.9334C36.6781 14.0144 36.911 14.979 37.3766 15.8272C37.8589 16.6753 38.5159 17.3406 39.3474 17.8229C40.179 18.2886 41.1103 18.5214 42.1414 18.5214Z" fill="#969693"/>
<path d="M67.9119 7.49505H62.3239V21.6646H58.3324V7.49505H52.7694V4.20211H67.9119V7.49505Z" fill="#969693"/>
<path d="M87.5106 18.3717V25.2819H83.7687V21.6646H71.4451V25.2819H67.7032L67.7281 18.3717H68.4266C69.4744 18.3384 70.2144 17.5734 70.6468 16.0766C71.0792 14.5798 71.3453 12.4428 71.4451 9.66539L71.6447 4.20211H85.0659V18.3717H87.5106ZM75.0125 10.0396C74.9293 12.1185 74.7547 13.8647 74.4886 15.2783C74.2225 16.6753 73.815 17.7065 73.2662 18.3717H81.0745V7.49505H75.0873L75.0125 10.0396Z" fill="#969693"/>
<path d="M103.752 18.4216V21.6646H90.2312V4.20211H103.428V7.44515H94.2476V11.237H102.355V14.3803H94.2476V18.4216H103.752Z" fill="#969693"/>
<path d="M122.583 4.20211V21.6646H118.592V7.49505H112.604L112.48 11.1372C112.397 13.6152 112.197 15.6276 111.881 17.1743C111.565 18.7043 111.033 19.8851 110.284 20.7167C109.553 21.5316 108.522 21.9391 107.191 21.9391C106.642 21.9391 105.977 21.8476 105.195 21.6646L105.445 18.247C105.661 18.3135 105.902 18.3468 106.168 18.3468C107.133 18.3468 107.806 17.7813 108.189 16.6504C108.571 15.5029 108.813 13.715 108.912 11.2869L109.162 4.20211H122.583Z" fill="#969693"/>
<path d="M133.705 14.6297H130.911V21.6646H126.894V4.20211H130.911V11.262H133.805L138.395 4.20211H142.661L136.948 12.634L142.835 21.6646H138.245L133.705 14.6297Z" fill="#969693"/>
<path d="M156.212 17.9227H148.104L146.558 21.6646H142.417L150.2 4.20211H154.191L162 21.6646H157.759L156.212 17.9227ZM154.94 14.8543L152.171 8.1686L149.402 14.8543H154.94Z" fill="#969693"/>
<path d="M49.7005 49.3491L49.6755 38.8965L44.5366 47.503H42.7404L37.6014 39.0961V49.3491H33.8096V31.8865H37.1524L43.6884 42.7383L50.1246 31.8865H53.4674L53.4923 49.3491H49.7005Z" fill="#F26422"/>
<path d="M69.6549 45.6071H61.5473L60.0006 49.3491H55.8595L63.6428 31.8865H67.6342L75.4425 49.3491H71.2016L69.6549 45.6071ZM68.3826 42.5387L65.6136 35.853L62.8445 42.5387H68.3826Z" fill="#F26422"/>
<path d="M85.7719 49.6484C83.9924 49.6484 82.3792 49.2659 80.9323 48.5009C79.502 47.7192 78.3711 46.6465 77.5396 45.2828C76.7246 43.9024 76.3172 42.3474 76.3172 40.6178C76.3172 38.8882 76.7246 37.3415 77.5396 35.9778C78.3711 34.5974 79.502 33.5247 80.9323 32.7597C82.3792 31.978 84.0007 31.5872 85.7968 31.5872C87.3103 31.5872 88.674 31.8533 89.8881 32.3855C91.1187 32.9177 92.1499 33.6827 92.9814 34.6806L90.387 37.0754C89.2062 35.7117 87.7427 35.0298 85.9964 35.0298C84.9154 35.0298 83.9508 35.271 83.1026 35.7532C82.2544 36.2189 81.5892 36.8758 81.1069 37.724C80.6412 38.5722 80.4084 39.5368 80.4084 40.6178C80.4084 41.6988 80.6412 42.6634 81.1069 43.5116C81.5892 44.3598 82.2544 45.025 83.1026 45.5073C83.9508 45.973 84.9154 46.2058 85.9964 46.2058C87.7427 46.2058 89.2062 45.5156 90.387 44.1353L92.9814 46.5301C92.1499 47.5446 91.1187 48.318 89.8881 48.8501C88.6574 49.3823 87.2853 49.6484 85.7719 49.6484Z" fill="#F26422"/>
<path d="M108.791 35.1795H103.203V49.3491H99.2118V35.1795H93.6487V31.8865H108.791V35.1795Z" fill="#F26422"/>
<path d="M124.85 46.106V49.3491H111.329V31.8865H124.525V35.1296H115.345V38.9215H123.453V42.0647H115.345V46.106H124.85Z" fill="#F26422"/>
<path d="M135.673 31.8865C137.219 31.8865 138.558 32.1443 139.689 32.6599C140.837 33.1754 141.718 33.9072 142.334 34.8552C142.949 35.8031 143.257 36.9257 143.257 38.2229C143.257 39.5035 142.949 40.6261 142.334 41.5907C141.718 42.5387 140.837 43.2705 139.689 43.786C138.558 44.2849 137.219 44.5344 135.673 44.5344H132.155V49.3491H128.114V31.8865H135.673ZM135.448 41.2415C136.662 41.2415 137.585 40.9837 138.217 40.4681C138.849 39.9359 139.165 39.1875 139.165 38.2229C139.165 37.2417 138.849 36.4933 138.217 35.9778C137.585 35.4456 136.662 35.1795 135.448 35.1795H132.155V41.2415H135.448Z" fill="#F26422"/>
<path d="M13.9017 12.0758L24.9919 0.673218L27.0225 2.86001L7.18516 23.4783H13.9017V53H11.0901V26.1337H0L11.0901 14.7311V4.7344H13.9017V12.0758Z" fill="#F26422"/>
<path d="M19.0566 23.7907H25.617V30.9759H19.0566V23.7907Z" fill="#969693"/>
<path d="M19.0566 34.0998H25.617V41.285H19.0566V34.0998Z" fill="#969693"/>
<path d="M18.5522 63.2374V65.5621H17.7281V64H11.9348V65.5621H11.1107V63.2374H11.4797C11.9143 63.2128 12.2095 62.893 12.3653 62.278C12.5211 61.663 12.6277 60.802 12.6851 59.695L12.7712 57.5302H17.5436V63.2374H18.5522ZM13.4846 59.7442C13.4436 60.6626 13.3657 61.4211 13.2509 62.0197C13.1361 62.6101 12.9311 63.016 12.6359 63.2374H16.6703V58.3051H13.5584L13.4846 59.7442ZM25.9121 61.0357H20.5001C20.5493 61.7081 20.8076 62.2534 21.275 62.6716C21.7424 63.0816 22.3328 63.2866 23.0462 63.2866C23.448 63.2866 23.817 63.2169 24.1532 63.0775C24.4894 62.9299 24.7805 62.7167 25.0265 62.4379L25.5185 63.0037C25.2315 63.3481 24.8707 63.6105 24.4361 63.7909C24.0097 63.9713 23.5382 64.0615 23.0216 64.0615C22.3574 64.0615 21.767 63.9221 21.2504 63.6433C20.742 63.3563 20.3443 62.9627 20.0573 62.4625C19.7703 61.9623 19.6268 61.3965 19.6268 60.7651C19.6268 60.1337 19.7621 59.5679 20.0327 59.0677C20.3115 58.5675 20.6887 58.178 21.1643 57.8992C21.6481 57.6204 22.1893 57.481 22.7879 57.481C23.3865 57.481 23.9236 57.6204 24.3992 57.8992C24.8748 58.178 25.2479 58.5675 25.5185 59.0677C25.7891 59.5597 25.9244 60.1255 25.9244 60.7651L25.9121 61.0357ZM22.7879 58.2313C22.1647 58.2313 21.6399 58.4322 21.2135 58.834C20.7953 59.2276 20.5575 59.7442 20.5001 60.3838H25.088C25.0306 59.7442 24.7887 59.2276 24.3623 58.834C23.9441 58.4322 23.4193 58.2313 22.7879 58.2313ZM33.0144 57.5302V64H32.1411V58.3051H29.0415L28.9554 59.9041C28.8898 61.2489 28.734 62.2821 28.488 63.0037C28.242 63.7253 27.8033 64.0861 27.1719 64.0861C26.9997 64.0861 26.7906 64.0533 26.5446 63.9877L26.6061 63.2374C26.7537 63.2702 26.8562 63.2866 26.9136 63.2866C27.2498 63.2866 27.504 63.1308 27.6762 62.8192C27.8484 62.5076 27.9632 62.1222 28.0206 61.663C28.078 61.2038 28.1272 60.597 28.1682 59.8426L28.2789 57.5302H33.0144ZM37.7233 57.481C38.5679 57.481 39.2157 57.6942 39.6667 58.1206C40.1177 58.5388 40.3432 59.162 40.3432 59.9902V64H39.5068V62.9914C39.31 63.3276 39.0189 63.59 38.6335 63.7786C38.2563 63.9672 37.8053 64.0615 37.2805 64.0615C36.5589 64.0615 35.9849 63.8893 35.5585 63.5449C35.1321 63.2005 34.9189 62.7454 34.9189 62.1796C34.9189 61.6302 35.1157 61.1874 35.5093 60.8512C35.9111 60.515 36.5466 60.3469 37.4158 60.3469H39.4699V59.9533C39.4699 59.3957 39.3141 58.9734 39.0025 58.6864C38.6909 58.3912 38.2358 58.2436 37.6372 58.2436C37.2272 58.2436 36.8336 58.3133 36.4564 58.4527C36.0792 58.5839 35.7553 58.7684 35.4847 59.0062L35.0911 58.3543C35.4191 58.0755 35.8127 57.8623 36.2719 57.7147C36.7311 57.5589 37.2149 57.481 37.7233 57.481ZM37.4158 63.3727C37.9078 63.3727 38.3301 63.262 38.6827 63.0406C39.0353 62.811 39.2977 62.483 39.4699 62.0566V60.9988H37.4404C36.3334 60.9988 35.7799 61.3842 35.7799 62.155C35.7799 62.5322 35.9234 62.8315 36.2104 63.0529C36.4974 63.2661 36.8992 63.3727 37.4158 63.3727ZM48.326 61.0357H42.914C42.9632 61.7081 43.2215 62.2534 43.6889 62.6716C44.1563 63.0816 44.7467 63.2866 45.4601 63.2866C45.8619 63.2866 46.2309 63.2169 46.5671 63.0775C46.9033 62.9299 47.1944 62.7167 47.4404 62.4379L47.9324 63.0037C47.6454 63.3481 47.2846 63.6105 46.85 63.7909C46.4236 63.9713 45.9521 64.0615 45.4355 64.0615C44.7713 64.0615 44.1809 63.9221 43.6643 63.6433C43.1559 63.3563 42.7582 62.9627 42.4712 62.4625C42.1842 61.9623 42.0407 61.3965 42.0407 60.7651C42.0407 60.1337 42.176 59.5679 42.4466 59.0677C42.7254 58.5675 43.1026 58.178 43.5782 57.8992C44.062 57.6204 44.6032 57.481 45.2018 57.481C45.8004 57.481 46.3375 57.6204 46.8131 57.8992C47.2887 58.178 47.6618 58.5675 47.9324 59.0677C48.203 59.5597 48.3383 60.1255 48.3383 60.7651L48.326 61.0357ZM45.2018 58.2313C44.5786 58.2313 44.0538 58.4322 43.6274 58.834C43.2092 59.2276 42.9714 59.7442 42.914 60.3838H47.5019C47.4445 59.7442 47.2026 59.2276 46.7762 58.834C46.358 58.4322 45.8332 58.2313 45.2018 58.2313ZM57.5038 57.5302V64H56.7043V58.8832L54.0844 63.2128H53.6908L51.0709 58.8709V64H50.2714V57.5302H51.157L53.8999 62.1919L56.692 57.5302H57.5038ZM65.5573 61.1218H64.0813V64H63.208V57.5302H64.0813V60.3715H65.5696L67.8451 57.5302H68.7922L66.2461 60.6667L68.9767 64H67.9435L65.5573 61.1218ZM72.4612 57.481C73.3058 57.481 73.9536 57.6942 74.4046 58.1206C74.8556 58.5388 75.0811 59.162 75.0811 59.9902V64H74.2447V62.9914C74.0479 63.3276 73.7568 63.59 73.3714 63.7786C72.9942 63.9672 72.5432 64.0615 72.0184 64.0615C71.2968 64.0615 70.7228 63.8893 70.2964 63.5449C69.87 63.2005 69.6568 62.7454 69.6568 62.1796C69.6568 61.6302 69.8536 61.1874 70.2472 60.8512C70.649 60.515 71.2845 60.3469 72.1537 60.3469H74.2078V59.9533C74.2078 59.3957 74.052 58.9734 73.7404 58.6864C73.4288 58.3912 72.9737 58.2436 72.3751 58.2436C71.9651 58.2436 71.5715 58.3133 71.1943 58.4527C70.8171 58.5839 70.4932 58.7684 70.2226 59.0062L69.829 58.3543C70.157 58.0755 70.5506 57.8623 71.0098 57.7147C71.469 57.5589 71.9528 57.481 72.4612 57.481ZM72.1537 63.3727C72.6457 63.3727 73.068 63.262 73.4206 63.0406C73.7732 62.811 74.0356 62.483 74.2078 62.0566V60.9988H72.1783C71.0713 60.9988 70.5178 61.3842 70.5178 62.155C70.5178 62.5322 70.6613 62.8315 70.9483 63.0529C71.2353 63.2661 71.6371 63.3727 72.1537 63.3727ZM79.7552 61.1218H78.2792V64H77.4059V57.5302H78.2792V60.3715H79.7675L82.043 57.5302H82.9901L80.444 60.6667L83.1746 64H82.1414L79.7552 61.1218ZM94.0819 63.2374V65.5621H93.2578V64H87.4645V65.5621H86.6404V63.2374H87.0094C87.444 63.2128 87.7392 62.893 87.895 62.278C88.0508 61.663 88.1574 60.802 88.2148 59.695L88.3009 57.5302H93.0733V63.2374H94.0819ZM89.0143 59.7442C88.9733 60.6626 88.8954 61.4211 88.7806 62.0197C88.6658 62.6101 88.4608 63.016 88.1656 63.2374H92.2V58.3051H89.0881L89.0143 59.7442ZM101.073 57.5302V64H100.2V58.3051H97.0999L97.0138 59.9041C96.9482 61.2489 96.7924 62.2821 96.5464 63.0037C96.3004 63.7253 95.8617 64.0861 95.2303 64.0861C95.0581 64.0861 94.849 64.0533 94.603 63.9877L94.6645 63.2374C94.8121 63.2702 94.9146 63.2866 94.972 63.2866C95.3082 63.2866 95.5624 63.1308 95.7346 62.8192C95.9068 62.5076 96.0216 62.1222 96.079 61.663C96.1364 61.2038 96.1856 60.597 96.2266 59.8426L96.3373 57.5302H101.073ZM108.525 57.5302V64H107.725V61.8598H105.696H105.45L103.949 64H103.002L104.613 61.7368C104.113 61.5974 103.728 61.3596 103.457 61.0234C103.186 60.6872 103.051 60.2608 103.051 59.7442C103.051 59.0226 103.297 58.4732 103.789 58.096C104.281 57.7188 104.953 57.5302 105.806 57.5302H108.525ZM103.937 59.7688C103.937 60.7282 104.548 61.2079 105.769 61.2079H107.725V58.3051H105.831C104.568 58.3051 103.937 58.793 103.937 59.7688ZM116.94 64.0615C116.3 64.0615 115.726 63.9221 115.218 63.6433C114.718 63.3645 114.324 62.975 114.037 62.4748C113.75 61.9664 113.607 61.3965 113.607 60.7651C113.607 60.1337 113.75 59.5679 114.037 59.0677C114.324 58.5675 114.718 58.178 115.218 57.8992C115.726 57.6204 116.3 57.481 116.94 57.481C117.497 57.481 117.994 57.5917 118.428 57.8131C118.871 58.0263 119.219 58.342 119.474 58.7602L118.822 59.203C118.609 58.8832 118.338 58.6454 118.01 58.4896C117.682 58.3256 117.325 58.2436 116.94 58.2436C116.472 58.2436 116.05 58.3502 115.673 58.5634C115.304 58.7684 115.013 59.0636 114.8 59.449C114.595 59.8344 114.492 60.2731 114.492 60.7651C114.492 61.2653 114.595 61.7081 114.8 62.0935C115.013 62.4707 115.304 62.7659 115.673 62.9791C116.05 63.1841 116.472 63.2866 116.94 63.2866C117.325 63.2866 117.682 63.2087 118.01 63.0529C118.338 62.8971 118.609 62.6593 118.822 62.3395L119.474 62.7823C119.219 63.2005 118.871 63.5203 118.428 63.7417C117.985 63.9549 117.489 64.0615 116.94 64.0615ZM126.714 61.0357H121.302C121.352 61.7081 121.61 62.2534 122.077 62.6716C122.545 63.0816 123.135 63.2866 123.849 63.2866C124.25 63.2866 124.619 63.2169 124.956 63.0775C125.292 62.9299 125.583 62.7167 125.829 62.4379L126.321 63.0037C126.034 63.3481 125.673 63.6105 125.238 63.7909C124.812 63.9713 124.341 64.0615 123.824 64.0615C123.16 64.0615 122.569 63.9221 122.053 63.6433C121.544 63.3563 121.147 62.9627 120.86 62.4625C120.573 61.9623 120.429 61.3965 120.429 60.7651C120.429 60.1337 120.564 59.5679 120.835 59.0677C121.114 58.5675 121.491 58.178 121.967 57.8992C122.45 57.6204 122.992 57.481 123.59 57.481C124.189 57.481 124.726 57.6204 125.202 57.8992C125.677 58.178 126.05 58.5675 126.321 59.0677C126.591 59.5597 126.727 60.1255 126.727 60.7651L126.714 61.0357ZM123.59 58.2313C122.967 58.2313 122.442 58.4322 122.016 58.834C121.598 59.2276 121.36 59.7442 121.302 60.3838H125.89C125.833 59.7442 125.591 59.2276 125.165 58.834C124.746 58.4322 124.222 58.2313 123.59 58.2313ZM131.796 57.6901C132.395 57.6901 132.928 57.8254 133.395 58.096C133.871 58.3584 134.24 58.7315 134.502 59.2153C134.765 59.6909 134.896 60.2362 134.896 60.8512C134.896 61.4826 134.757 62.0443 134.478 62.5363C134.207 63.0201 133.826 63.3973 133.334 63.6679C132.842 63.9385 132.276 64.0738 131.636 64.0738C130.562 64.0738 129.73 63.6966 129.14 62.9422C128.549 62.1878 128.254 61.1464 128.254 59.818C128.254 58.4322 128.516 57.3703 129.041 56.6323C129.574 55.8943 130.402 55.3941 131.526 55.1317L134.429 54.4675L134.576 55.267L131.846 55.8943C130.919 56.0993 130.238 56.4642 129.804 56.989C129.369 57.5056 129.131 58.2723 129.09 59.2891C129.353 58.7889 129.718 58.3994 130.185 58.1206C130.652 57.8336 131.19 57.6901 131.796 57.6901ZM131.661 63.3481C132.112 63.3481 132.514 63.2456 132.866 63.0406C133.227 62.8274 133.506 62.5322 133.703 62.155C133.908 61.7778 134.01 61.3514 134.01 60.8758C134.01 60.4002 133.912 59.982 133.715 59.6212C133.518 59.2604 133.24 58.9816 132.879 58.7848C132.526 58.5798 132.12 58.4773 131.661 58.4773C131.202 58.4773 130.792 58.5798 130.431 58.7848C130.078 58.9816 129.8 59.2604 129.595 59.6212C129.398 59.982 129.299 60.4002 129.299 60.8758C129.299 61.3514 129.398 61.7778 129.595 62.155C129.8 62.5322 130.083 62.8274 130.443 63.0406C130.804 63.2456 131.21 63.3481 131.661 63.3481ZM141.509 57.5302V64H140.709V61.8598H138.68H138.434L136.933 64H135.986L137.597 61.7368C137.097 61.5974 136.712 61.3596 136.441 61.0234C136.171 60.6872 136.035 60.2608 136.035 59.7442C136.035 59.0226 136.281 58.4732 136.773 58.096C137.265 57.7188 137.938 57.5302 138.79 57.5302H141.509ZM136.921 59.7688C136.921 60.7282 137.532 61.2079 138.754 61.2079H140.709V58.3051H138.815C137.552 58.3051 136.921 58.793 136.921 59.7688Z" fill="#969693"/>
</svg>
