<svg xmlns="http://www.w3.org/2000/svg">
	<symbol id="clock" viewBox="0 0 38 38">
		<path d="M32.2235 6.07137C32.2235 5.54622 32.2235 5.08316 32.2235 4.6201C32.2235 3.39018 32.2183 2.16077 32.2194 0.930859C32.2194 0.4795 32.4197 0.176219 32.7818 0.0490036C33.3104 -0.135713 33.84 0.22049 33.8655 0.803135C33.8874 1.312 33.8723 1.82086 33.8723 2.32972C33.8723 4.45811 33.8723 6.58667 33.8723 8.71541C33.8723 8.77291 33.8629 8.83041 33.8572 8.90521C33.7724 8.91132 33.6975 8.92201 33.6225 8.92201C31.0558 8.92201 28.4891 8.92201 25.9224 8.92201C25.7834 8.92238 25.6445 8.91559 25.5062 8.90165C25.0692 8.85687 24.7705 8.51746 24.781 8.08747C24.7914 7.65749 25.1139 7.31808 25.5515 7.31452C26.8954 7.30281 28.2392 7.30739 29.5831 7.30586H31.0545C26.4443 2.61213 18.0839 0.674902 10.8677 4.41961C2.1853 8.92302 -0.633565 19.1613 3.57028 27.183C7.86309 35.3756 17.7458 38.4649 26.0286 34.9441C34.6371 31.2854 39.1521 20.9937 34.4805 11.6108L35.9019 10.903C38.9762 16.472 39.2629 25.6279 32.7079 32.2965C25.3923 39.7391 13.4295 39.8394 5.95991 32.9392C-1.39421 26.1454 -2.00137 14.9322 4.4662 7.45293C7.99784 3.36983 12.5534 1.15018 18.0111 0.87234C23.4605 0.594502 28.1778 2.3918 32.2235 6.07137Z" />
		<path d="M26.1836 25.2845L24.9734 26.4691C24.77 26.2539 24.5614 26.0193 24.3371 25.7995C22.7586 24.2512 21.1789 22.7036 19.5979 21.1566C19.5483 21.1004 19.4847 21.0576 19.4133 21.0322C19.3419 21.0068 19.265 20.9997 19.19 21.0116C18.8305 21.0556 18.4662 20.9816 18.1543 20.801C17.8425 20.6205 17.6009 20.3438 17.4673 20.0143C17.3338 19.6849 17.316 19.3213 17.4167 18.9809C17.5174 18.6405 17.7308 18.3424 18.0236 18.1335C18.1693 18.0282 18.1797 17.9152 18.1797 17.7676C18.1797 14.1038 18.1797 10.4409 18.1797 6.77879V6.51367H19.8367V7.07342C19.8367 10.6432 19.8357 14.2129 19.8336 17.7824C19.8336 17.9498 19.8773 18.0577 20.0194 18.1635C20.498 18.5197 20.7046 19.0077 20.6338 19.5914C20.612 19.7736 20.6676 19.8881 20.794 20.0112C22.5685 21.7413 24.3404 23.4726 26.1097 25.2051C26.1359 25.2302 26.1606 25.2567 26.1836 25.2845Z" />
	</symbol>
	<symbol id="lock" viewBox="0 0 25 31">
		<path d="M0 29.7006V18.9019C0.0113986 18.7219 0.0299964 18.5449 0.0317962 18.3667C0.0383954 17.7068 0.0371956 17.0469 0.0431949 16.387C0.0431949 16.2892 0.0431949 16.177 0.08399 16.0954C0.380355 15.5333 0.795505 15.1355 1.48062 15.1241C1.93057 15.1181 2.38052 15.1049 2.83046 15.0995C3.11783 15.0953 3.40579 15.0995 3.72616 15.0995V14.7138C3.73096 12.734 3.72616 10.7543 3.74655 8.77449C3.75255 8.19736 3.76215 7.60463 3.88874 7.0461C4.46167 4.5264 5.92309 2.65162 8.17583 1.40677C8.72056 1.10441 9.32289 0.908233 9.89882 0.664062H14.2783C14.3361 0.698051 14.3963 0.727921 14.4583 0.753452C16.8718 1.54716 18.6416 3.07757 19.7167 5.3849C20.0766 6.1546 20.3802 6.95671 20.3922 7.8176C20.424 10.1363 20.4264 12.455 20.4402 14.7768C20.4402 14.874 20.4402 14.9705 20.4402 15.1013C20.6093 15.1013 20.7401 15.1013 20.8667 15.1013C21.4762 15.1127 22.0864 15.1391 22.6953 15.1325C23.4044 15.1253 24.1255 15.7133 24.0751 16.5124C24.0487 16.9191 24.1081 17.3307 24.1087 17.7398C24.1141 21.568 24.1009 25.3961 24.1315 29.2242C24.1363 29.853 23.9251 30.2981 23.4584 30.6641H0.659921L0 29.7006ZM12.0628 29.9118H22.4703C23.1134 29.9118 23.1248 29.901 23.1476 29.2464C23.1476 29.226 23.1476 29.2062 23.1476 29.1864C23.1352 25.0573 23.121 20.9284 23.105 16.7997C23.1008 16.0606 23.1878 16.144 22.4337 16.1398C15.5545 16.121 8.67537 16.1078 1.79619 16.1002C1.03488 16.1002 1.02288 16.1074 1.01628 16.8801C0.997681 18.9295 0.980283 20.9788 0.980883 23.0282C0.980883 25.1375 1.00188 27.2469 1.01988 29.3562C1.02408 29.8836 1.06007 29.907 1.59041 29.907L12.0628 29.9118ZM19.4521 15.0755V14.7624C19.4437 12.6128 19.4263 10.4633 19.4329 8.31374C19.4362 7.75428 19.3535 7.19763 19.1875 6.66334C18.077 3.06377 14.8404 0.907033 10.8629 1.47876C8.34321 1.83872 6.48703 3.26835 5.40356 5.59367C5.09159 6.26199 4.79163 7.0041 4.76343 7.72342C4.67044 10.0499 4.70344 12.3813 4.69264 14.7108C4.69264 14.8272 4.69264 14.9441 4.69264 15.0791H7.50331V14.712C7.50691 12.6122 7.50331 10.5125 7.5177 8.41273C7.5213 7.8728 7.5483 7.34066 7.76728 6.82652C8.55798 4.97275 11.1749 3.6469 13.3688 4.34882C14.8866 4.83656 16.711 6.45997 16.6456 8.6743C16.5856 10.6817 16.6456 12.6938 16.6504 14.7024V15.0749L19.4521 15.0755ZM15.6515 15.0791C15.6613 15.0246 15.6681 14.9695 15.6719 14.9142C15.6659 12.6944 15.6671 10.4777 15.6425 8.26035C15.6318 7.94127 15.5593 7.62731 15.429 7.33586C14.5717 5.3465 12.2265 4.5402 10.2342 5.54868C9.13451 6.10541 8.48959 6.94651 8.50159 8.24835C8.52199 10.4459 8.48899 12.644 8.47999 14.8422C8.48444 14.9208 8.49325 14.9991 8.50639 15.0767L15.6515 15.0791Z" />
		<path d="M12.0861 27.0726C11.5066 27.0726 10.9271 27.0804 10.3463 27.0696C9.9396 27.0618 9.79201 26.8615 9.9132 26.4565C10.0932 25.8566 10.3008 25.2603 10.4969 24.6627C10.5057 24.6341 10.5164 24.606 10.5287 24.5787C10.7987 24.0196 10.8611 23.5697 10.302 23.0531C9.65043 22.4532 9.60244 21.3769 9.99599 20.657C10.4759 19.7757 11.4106 19.2112 12.2679 19.3342C13.2392 19.4739 13.9423 20.0241 14.2603 20.9444C14.5518 21.7879 14.3839 22.6116 13.7161 23.2319C13.3598 23.5631 13.3358 23.8318 13.505 24.2578C13.7827 24.9513 14.0023 25.6694 14.2207 26.3851C14.3749 26.8891 14.2459 27.0606 13.7335 27.0726C13.184 27.0852 12.6345 27.0726 12.0849 27.0726H12.0861ZM13.1024 26.1068C13.0652 25.9808 13.0424 25.9046 13.0208 25.8302C12.7809 25.0917 12.5211 24.358 12.2967 23.614C12.1695 23.1941 12.2331 23.0951 12.6069 22.8905C13.2794 22.5234 13.4702 22.1646 13.3958 21.4051C13.3358 20.7902 12.8337 20.3414 12.1503 20.291C11.518 20.2449 10.9541 20.6282 10.8041 21.2065C10.6037 21.9804 10.8413 22.5138 11.557 22.8947C11.9128 23.0843 11.9704 23.1761 11.8774 23.5625C11.7952 23.9002 11.6788 24.2308 11.569 24.5613C11.401 25.0671 11.2252 25.5704 11.0417 26.1068H13.1024Z" />
	</symbol>
	<symbol id="money" viewBox="0 0 35 35">
		<path d="M34.51 35H13.16C13.0725 34.9489 12.9913 34.8754 12.8968 34.8509C12.1835 34.664 11.5906 34.2776 11.0607 33.7778C10.9305 33.6553 10.7807 33.5559 10.6316 33.4418C10.5746 33.5065 10.5244 33.5768 10.4818 33.6518C10.2417 34.2349 9.7923 34.5919 9.2302 34.8362C9.15627 34.8814 9.08891 34.9365 9.03 35H1.68C1.58698 34.937 1.4902 34.8797 1.3902 34.8285C0.819 34.58 0.3801 34.2027 0.1484 33.6077C0.107587 33.5296 0.0577825 33.4565 0 33.39L0 21.28C0.0584715 21.1962 0.112674 21.1095 0.1624 21.0203C0.5726 20.202 1.19 19.7435 2.1483 19.7526C4.3057 19.7729 6.4631 19.7575 8.6205 19.7624C8.8025 19.7624 9.0055 19.7715 9.1623 19.8492C9.5592 20.0452 9.9358 20.2832 10.3642 20.5296C10.4322 20.4926 10.4957 20.4478 10.5532 20.3959C11.3757 19.5734 12.1898 18.7418 13.0179 17.9249C13.202 17.7429 13.1824 17.5651 13.1229 17.3523C12.8625 16.4276 12.6014 15.5022 12.3529 14.5747C12.0099 13.2972 11.6816 12.0162 11.3386 10.7394C11.0985 9.8441 10.8402 8.953 10.5973 8.0584C10.3698 7.2184 10.1696 6.3784 9.9232 5.544C9.7643 5.0064 9.9148 4.494 10.3432 4.3764C11.2126 4.1335 12.0848 3.8997 12.9577 3.668C14.0672 3.3726 15.1788 3.087 16.2869 2.7881C16.8196 2.6481 16.7881 2.6327 16.8252 2.0881C16.8735 1.3832 16.59 0.623 17.15 0H34.51L35 0.49V34.51L34.51 35ZM28.7532 31.71C28.7746 31.8074 28.7898 31.9061 28.7987 32.0054C28.8064 32.4093 28.8442 32.8181 28.7987 33.2171C28.7567 33.5923 28.7378 33.6189 29.1242 33.6196C30.4542 33.6196 31.7842 33.6196 33.1142 33.6196C33.6147 33.6196 33.6161 33.6196 33.6161 33.1142V1.8578C33.6161 1.3678 33.6161 1.3678 33.1093 1.3678H18.7257C18.1272 1.3678 18.1265 1.3678 18.1265 1.9852V19.8702C18.1265 19.9752 18.1265 20.0802 18.13 20.1852C18.13 20.3805 18.2056 20.4855 18.424 20.4722C18.6685 20.4554 18.9138 20.4554 19.1583 20.4722C19.4586 20.496 19.558 20.3609 19.5335 20.0823C19.523 19.9668 19.5335 19.8492 19.5335 19.7323C19.5335 15.4856 19.5335 11.239 19.5335 6.9923C19.5335 6.4729 19.7162 6.2797 20.2237 6.2426C21.2611 6.1649 22.0437 5.2759 22.0108 4.438C21.9947 3.9907 22.3608 3.6743 22.8361 3.6729C24.8544 3.66823 26.8728 3.66823 28.8911 3.6729C29.3916 3.675 29.624 3.92 29.68 4.41C29.8025 5.4768 30.4451 6.132 31.5371 6.2433C31.9571 6.2867 32.2217 6.4918 32.2308 6.9132C32.2504 7.7994 32.2483 8.687 32.2308 9.5732C32.2238 9.9757 31.9011 10.2802 31.5469 10.2732C31.1731 10.2669 30.9309 10.0233 30.9169 9.5879C30.8966 9.0048 30.8945 8.421 30.9036 7.8379C30.9078 7.6006 30.8042 7.4963 30.5984 7.3983C30.2232 7.2205 29.8431 7.0343 29.5141 6.7858C29.0409 6.4302 28.7266 5.9416 28.5418 5.3697C28.4914 5.2122 28.4529 5.0141 28.1862 5.0155C26.635 5.026 25.0831 5.0155 23.5319 5.0309C23.4262 5.0309 23.2624 5.1604 23.2274 5.264C22.8774 6.2832 22.2292 7.0084 21.2065 7.364C20.9097 7.4676 20.8285 7.6286 20.8313 7.9282C20.8439 9.6551 20.8376 11.3813 20.8376 13.1082C20.8376 15.4301 20.8418 17.7513 20.8327 20.0732C20.8327 20.3714 20.9111 20.482 21.2275 20.4757C22.1599 20.4561 23.0937 20.4701 24.0275 20.4666C24.164 20.4559 24.2998 20.4372 24.4342 20.4106C22.3622 19.187 22.1529 16.8756 23.3506 15.4217C24.5084 14.0175 26.4908 13.7935 27.9531 14.994C28.2861 15.2608 28.5591 15.5947 28.7543 15.974C28.9496 16.3533 29.0627 16.7695 29.0864 17.1955C29.1767 18.585 28.5789 19.6539 27.3686 20.4155C27.598 20.4598 27.8317 20.4776 28.0651 20.4687C29.6051 20.4561 30.8889 21.707 30.4325 23.4906C30.3821 23.6866 30.4514 23.744 30.6306 23.7531C30.961 23.7699 30.898 23.5277 30.898 23.3429C30.9013 21.0912 30.9024 18.8396 30.9015 16.5879C30.8985 16.3776 30.9072 16.1673 30.9274 15.9579C30.9603 15.6618 31.1262 15.4637 31.4265 15.4154C31.759 15.3622 32.039 15.4574 32.158 15.7976C32.2138 15.9743 32.24 16.159 32.2357 16.3443C32.2406 18.8293 32.2469 21.3143 32.2357 23.7993C32.2288 24.3185 32.3294 24.8335 32.5311 25.312C32.9595 26.3431 32.4443 27.6661 31.381 28.1183C31.0807 28.2464 31.0002 28.3822 31.1052 28.6944C31.3299 29.3636 31.2158 30.0048 30.8441 30.5963C30.3737 31.3439 29.6289 31.598 28.7532 31.71ZM13.6262 19.2731C13.544 19.3135 13.4657 19.3616 13.3924 19.4166C12.5195 20.2874 11.6424 21.1554 10.7856 22.0402C10.6792 22.1494 10.6232 22.3524 10.6225 22.512C10.6136 25.452 10.6136 28.392 10.6225 31.332C10.6316 31.5115 10.7063 31.6814 10.8325 31.8094C11.2525 32.2063 11.7194 32.5563 12.1408 32.9525C12.6469 33.4271 13.2363 33.6217 13.9188 33.621C18.0362 33.6159 22.1536 33.6159 26.271 33.621C26.3877 33.6251 26.5045 33.6232 26.621 33.6154C27.3819 33.5384 27.7718 32.7894 27.4043 32.1223C27.2111 31.7723 26.901 31.6792 26.5265 31.6799C24.8353 31.685 23.1441 31.685 21.4529 31.6799C21.0168 31.6799 20.7025 31.3607 20.7144 30.9652C20.7263 30.5956 21.0238 30.3352 21.4445 30.3352C22.6457 30.3352 23.8471 30.3352 25.0488 30.3352C26.32 30.3352 27.5912 30.3352 28.8624 30.3352C29.3741 30.3352 29.7675 30.0167 29.8494 29.5652C29.9719 28.8869 29.5694 28.4046 28.8659 28.4039C26.4164 28.4039 23.9664 28.4039 21.5159 28.4039C21.2093 28.4039 20.9608 28.3017 20.8082 28.049C20.5233 27.58 20.8607 27.0459 21.4382 27.0452C24.3539 27.0452 27.2706 27.0436 30.1882 27.0403C30.3963 27.0486 30.604 27.0145 30.7986 26.9402C30.9915 26.8517 31.1491 26.7012 31.2466 26.5127C31.344 26.3242 31.3755 26.1085 31.3362 25.9C31.2284 25.4212 30.856 25.1104 30.3646 25.1097C27.4713 25.1069 24.5779 25.1069 21.6846 25.1097C21.5796 25.1097 21.4746 25.1167 21.3703 25.1097C21.049 25.0796 20.8194 24.9123 20.7403 24.6008C20.6612 24.2893 20.7403 24.0079 21.0581 23.8721C21.2251 23.8008 21.4044 23.763 21.5859 23.7608C23.7909 23.7531 25.9959 23.7566 28.1995 23.7545C28.6972 23.7545 29.0395 23.5074 29.1459 23.093C29.3272 22.3678 28.9009 21.826 28.1365 21.8253C23.7391 21.8253 19.3417 21.8253 14.9443 21.8253C14.5173 21.8253 14.2919 21.6727 14.1743 21.2688C14.0567 20.8649 13.9699 20.4358 13.8586 20.0221C13.7998 19.7757 13.713 19.5419 13.6262 19.2731ZM1.3678 27.3231C1.3678 29.1193 1.3678 30.916 1.3678 32.7131C1.3678 33.3767 1.6086 33.6231 2.2652 33.6231C4.29427 33.6231 6.32427 33.6231 8.3552 33.6231C9.023 33.6231 9.3205 33.3305 9.3205 32.6732C9.3205 29.1158 9.3205 25.5586 9.3205 22.0017C9.3205 21.3794 9.0713 21.1001 8.4504 21.0812C7.7504 21.0609 7.0504 21.0812 6.3504 21.0728C6.0557 21.0728 5.9451 21.1904 5.9486 21.4928C5.9619 22.6471 5.9542 23.8028 5.9535 24.9564C5.9535 26.2864 5.9535 27.6164 5.9535 28.9464C5.9535 29.3881 5.7323 29.5967 5.3102 29.5932C4.9266 29.5932 4.7124 29.3671 4.697 28.9513C4.6928 28.8344 4.697 28.7175 4.697 28.6013C4.697 26.2451 4.697 23.8884 4.697 21.5313C4.697 21.2933 4.697 21.0756 4.3701 21.077C3.6239 21.077 2.8763 21.056 2.1301 21.0917C1.5232 21.1211 1.3706 21.3213 1.3706 21.938C1.3678 23.7309 1.36687 25.5255 1.3678 27.3217V27.3231ZM16.7244 20.4673C16.6054 19.9773 16.5095 19.5643 16.4003 19.152C16.1903 18.3449 15.9677 17.542 15.7493 16.7335C15.5393 15.9509 15.3223 15.1697 15.1123 14.3871C14.7812 13.1551 14.4417 11.9259 14.1323 10.6897C14.0049 10.1822 14.1477 9.9666 14.6433 9.7839C15.1096 9.62168 15.4977 9.28978 15.7304 8.8543C15.9621 8.4343 15.9222 7.9807 15.8991 7.5243C15.8711 6.9832 15.9432 6.8866 16.4493 6.7095C16.6971 6.6227 16.8476 6.5044 16.8308 6.1901C16.7986 5.5972 16.8091 5.0001 16.8266 4.4072C16.8364 4.0957 16.7034 4.0488 16.4444 4.116C15.862 4.2672 15.2761 4.4058 14.6944 4.5605C13.6759 4.8314 12.6644 5.1135 11.6424 5.3844C11.4009 5.4488 11.3211 5.5804 11.3855 5.8219C11.7012 6.9958 12.0064 8.1725 12.3249 9.3457C12.7778 11.0131 13.2405 12.677 13.6955 14.3437C13.9825 15.3923 14.2662 16.4423 14.5467 17.4937C14.7833 18.3785 15.0101 19.2661 15.2579 20.1481C15.2922 20.2685 15.4189 20.4435 15.5155 20.4526C15.89 20.4869 16.2743 20.4659 16.7244 20.4659V20.4673ZM27.7536 17.4811C27.8537 16.4668 26.8436 15.5666 25.8825 15.5596C24.7513 15.5512 23.9225 16.5809 23.9225 17.4699C23.9274 18.4926 24.8416 19.4005 25.8685 19.411C26.67 19.4173 27.8369 18.6522 27.7536 17.4797V17.4811ZM16.7832 9.8105C16.6208 9.9624 16.5249 10.0534 16.4269 10.1423C16.2554 10.2977 16.1028 10.4874 15.9068 10.5987C15.5568 10.7954 15.5498 11.0369 15.6548 11.3848C15.8928 12.1716 16.0839 12.9731 16.3016 13.7648C16.4206 14.1988 16.555 14.6286 16.6824 15.0598L16.7832 15.036V9.8105Z" />
		<path d="M31.5386 13.5844C31.1487 13.5795 30.9289 13.3618 30.9268 12.9789C30.9268 12.5673 31.1711 12.3174 31.5729 12.3244C31.9152 12.33 32.233 12.6387 32.2295 12.9621C32.2267 13.3296 31.9376 13.5886 31.5386 13.5844Z" />
		<path d="M5.94995 31.5387C5.94995 31.937 5.72945 32.1449 5.31155 32.1456C4.89365 32.1463 4.69485 31.9412 4.69275 31.5261C4.69275 31.1474 4.94475 30.8821 5.30875 30.8828C5.71755 30.8842 5.95345 31.125 5.94995 31.5387Z" />
	</symbol>
	<symbol id="truck" viewBox="0 0 42 26">
		<path d="M38.2245 11.0228L37.1601 6.76491C37.4507 6.7031 37.669 6.44461 37.669 6.13554V5.44918C37.669 3.95844 36.4568 2.74626 34.9661 2.74626H30.1182V1.33018C30.1182 0.596455 29.5217 0 28.788 0H4.07564C3.34192 0 2.74546 0.596455 2.74546 1.33018V13.0008C2.74546 13.3564 3.03365 13.6446 3.38928 13.6446C3.74491 13.6446 4.0331 13.3564 4.0331 13.0008V1.33099C4.0331 1.3069 4.05236 1.28844 4.07564 1.28844H28.788C28.8121 1.28844 28.8306 1.30771 28.8306 1.33099V13.0008C28.8306 13.3564 29.1187 13.6446 29.4744 13.6446C29.83 13.6446 30.1182 13.3564 30.1182 13.0008V12.2711H37.7099C37.7108 12.2711 37.7108 12.2711 37.7116 12.2711C37.7124 12.2711 37.7124 12.2711 37.7132 12.2711C38.6476 12.2719 39.4407 12.8852 39.7129 13.7297H37.7116C37.3559 13.7297 37.0677 14.0179 37.0677 14.3735V15.7463C37.0677 16.8581 37.9725 17.7628 39.0843 17.7628H39.814V20.5942H38.1314C37.5783 18.9983 36.0611 17.8487 34.2797 17.8487C32.4984 17.8487 30.9804 18.9983 30.4281 20.5942H30.1182V15.7463C30.1182 15.3906 29.83 15.1024 29.4744 15.1024C29.1187 15.1024 28.8306 15.3906 28.8306 15.7463V20.5942H15.4789C14.9258 18.9983 13.4086 17.8487 11.6273 17.8487C9.84593 17.8487 8.3279 18.9983 7.7756 20.5942H4.07564C4.05156 20.5942 4.0331 20.5749 4.0331 20.5516V19.1355H6.82191C7.17753 19.1355 7.46573 18.8474 7.46573 18.4917C7.46573 18.1361 7.17753 17.8479 6.82191 17.8479H0.643819C0.288193 17.8479 0 18.1361 0 18.4917C0 18.8474 0.288193 19.1355 0.643819 19.1355H2.74626V20.5516C2.74626 21.2854 3.34272 21.8818 4.07645 21.8818H7.55243C7.55243 21.8963 7.55162 21.9099 7.55162 21.9244C7.55162 24.1721 9.38033 26 11.6273 26C13.8742 26 15.7029 24.1713 15.7029 21.9244C15.7029 21.9099 15.7021 21.8955 15.7021 21.8818H30.2057C30.2057 21.8963 30.2049 21.9099 30.2049 21.9244C30.2049 24.1721 32.0336 26 34.2805 26C36.5283 26 38.3562 24.1713 38.3562 21.9244C38.3562 21.9099 38.3554 21.8955 38.3554 21.8818H40.4586C40.8142 21.8818 41.1024 21.5936 41.1024 21.238V14.3735C41.1016 12.6789 39.8509 11.2708 38.2245 11.0228ZM30.1182 6.78017H35.8371L36.8879 10.9851H30.1182V6.78017ZM34.9661 4.0339C35.7464 4.0339 36.3822 4.66889 36.3822 5.44998V5.49253H30.1182V4.0339H34.9661ZM11.6273 24.7132C10.09 24.7132 8.83846 23.4625 8.83846 21.9244C8.83846 20.3863 10.0892 19.1355 11.6273 19.1355C13.1654 19.1355 14.4161 20.3863 14.4161 21.9244C14.4153 23.4625 13.1646 24.7132 11.6273 24.7132ZM34.2797 24.7132C32.7424 24.7132 31.4909 23.4625 31.4909 21.9244C31.4909 20.3863 32.7416 19.1355 34.2797 19.1355C35.817 19.1355 37.0685 20.3863 37.0685 21.9244C37.0685 23.4625 35.8178 24.7132 34.2797 24.7132ZM39.0851 16.476C38.6829 16.476 38.3554 16.1485 38.3554 15.7463V15.0165H39.814V16.4752H39.0851V16.476Z" />
		<path d="M11.6272 20.5947C10.8935 20.5947 10.297 21.1912 10.297 21.9249C10.297 22.6586 10.8935 23.2551 11.6272 23.2551C12.3609 23.2551 12.9574 22.6586 12.9574 21.9249C12.9574 21.1912 12.3601 20.5947 11.6272 20.5947Z" />
		<path d="M34.2798 20.5947C33.546 20.5947 32.9496 21.1912 32.9496 21.9249C32.9496 22.6586 33.546 23.2551 34.2798 23.2551C35.0135 23.2551 35.61 22.6586 35.61 21.9249C35.61 21.1912 35.0135 20.5947 34.2798 20.5947Z" />
		<path d="M16.4751 18.4925C16.4751 18.8481 16.7633 19.1363 17.1189 19.1363H26.7296C27.0853 19.1363 27.3735 18.8481 27.3735 18.4925C27.3735 18.1368 27.0853 17.8486 26.7296 17.8486H17.1181C16.7633 17.8486 16.4751 18.1368 16.4751 18.4925Z" />
		<path d="M2.0165 16.3902H10.2537C10.6093 16.3902 10.8975 16.102 10.8975 15.7464C10.8975 15.3907 10.6093 15.1025 10.2537 15.1025H2.0165C1.66087 15.1025 1.37268 15.3907 1.37268 15.7464C1.37268 16.102 1.66087 16.3902 2.0165 16.3902Z" />
	</symbol>
	<symbol id="selection" viewBox="0 0 23 25">
		<path d="M12.6891 5.12565L16.9533 7.64331C17.0658 7.70931 17.1802 7.7719 17.2883 7.84427C17.5782 8.03985 17.6222 8.22517 17.4462 8.5249C17.3063 8.76351 17.1631 9.00017 17.012 9.23144C16.9274 9.36004 16.9416 9.45685 17.034 9.57861C17.9875 10.8369 18.9377 12.0972 19.8846 13.3597C20.1687 13.7362 20.1394 13.9259 19.7673 14.2134C18.4308 15.2484 17.0943 16.2858 15.7578 17.3257C15.7153 17.3589 15.6771 17.3976 15.5789 17.4861H21.7886C22.1984 17.4861 22.3265 17.6142 22.3265 18.0239V23.5237C22.3265 23.9555 22.1984 24.085 21.7559 24.0855C20.6968 24.0875 19.6374 24.0875 18.5776 24.0855H4.37729C4.2795 24.0855 4.1817 24.088 4.08391 24.0811C3.69274 24.0547 3.58126 23.9369 3.58077 23.5487C3.58077 21.9194 3.56806 20.2897 3.58566 18.6591C3.59398 17.8626 3.42724 17.0944 3.29229 16.3199C2.759 13.3154 2.2231 10.3107 1.68459 7.30592C1.39415 5.68454 1.10534 4.06233 0.818155 2.43931C0.761435 2.11953 0.879274 1.93471 1.19808 1.87897C2.90161 1.5807 4.60531 1.28504 6.30917 0.991994C6.45292 0.967057 6.59618 0.935275 6.74092 0.91865C7.05043 0.883934 7.21814 1.01106 7.27339 1.31715C7.32864 1.62324 7.37118 1.92688 7.44551 2.22564C7.46702 2.31218 7.56481 2.42611 7.64598 2.44469C9.21554 2.79805 10.7869 3.14341 12.36 3.4808C12.849 3.58543 12.958 3.7331 12.8568 4.22255C12.7962 4.51592 12.7468 4.81223 12.6891 5.12565ZM21.4801 18.3276H4.43352V23.2274H21.4801V18.3276ZM6.61574 17.4655C6.71353 17.4773 6.74727 17.4841 6.77905 17.4841C9.19842 17.4841 11.618 17.4825 14.0377 17.4792C14.1567 17.4695 14.2701 17.424 14.3628 17.3487C15.5106 16.4643 16.6544 15.5767 17.7943 14.6858C18.2168 14.3572 18.6392 14.0272 19.0774 13.6854L16.2776 9.96146L6.61574 17.4655ZM5.36303 17.309L5.39383 17.3379C5.47011 17.2851 5.54932 17.2362 5.62267 17.1795C6.81149 16.2583 7.9995 15.3363 9.18669 14.4134C11.4447 12.6571 13.7037 10.9021 15.9637 9.14832C16.2365 8.93807 16.369 8.65936 16.5421 8.37234L12.3121 5.87376C9.98923 9.69905 7.67369 13.5111 5.36547 17.31L5.36303 17.309ZM1.70562 2.63099C2.48991 7.03162 3.27142 11.4173 4.05017 15.7879C4.09494 15.7506 4.12494 15.6986 4.13476 15.6412C4.30949 14.7572 4.48323 13.873 4.65599 12.9886C5.2711 9.82504 5.88589 6.66164 6.50035 3.4984C6.59276 3.02117 6.69593 2.55226 6.55853 2.05841C6.50035 1.84816 6.43874 1.80415 6.23729 1.84132C5.38357 1.99974 4.52593 2.14545 3.67172 2.29409C3.02532 2.40509 2.3794 2.5151 1.70562 2.63099ZM4.84424 16.4055L4.90536 16.4196C4.93274 16.382 4.96306 16.3458 4.98751 16.3057C5.65152 15.2153 6.31503 14.1246 6.97806 13.0336C8.52122 10.4978 10.0662 7.96308 11.6129 5.4293C11.8294 5.07317 11.9527 4.66823 11.9713 4.25188L7.39905 3.24707C6.54435 7.64934 5.69275 12.0355 4.84424 16.4055Z" />
		<path d="M5.49854 20.9235C5.49854 20.084 6.15716 19.4322 7.00502 19.4327C7.20287 19.4305 7.39916 19.4679 7.58236 19.5427C7.76555 19.6175 7.93196 19.7281 8.0718 19.8681C8.21165 20.008 8.3221 20.1746 8.39669 20.3578C8.47127 20.5411 8.50848 20.7374 8.50612 20.9353C8.50612 21.7465 7.82794 22.4046 6.99377 22.4022C6.7984 22.4036 6.60466 22.3665 6.42366 22.2929C6.24267 22.2194 6.07798 22.1108 5.93906 21.9734C5.80014 21.836 5.68971 21.6726 5.61411 21.4924C5.53851 21.3122 5.49924 21.1189 5.49854 20.9235ZM7.6656 20.9172C7.6609 20.7436 7.58865 20.5787 7.46422 20.4576C7.3398 20.3365 7.17302 20.2688 6.9994 20.2688C6.82577 20.2688 6.65899 20.3365 6.53457 20.4576C6.41014 20.5787 6.33789 20.7436 6.33319 20.9172C6.33789 21.0907 6.41014 21.2556 6.53457 21.3767C6.65899 21.4978 6.82577 21.5656 6.9994 21.5656C7.17302 21.5656 7.3398 21.4978 7.46422 21.3767C7.58865 21.2556 7.6609 21.0907 7.6656 20.9172Z" />
	</symbol>
	<symbol id="sofa" viewBox="0 0 29 20">
		<path d="M4.98792 19.0148H4.15749C3.72869 18.8016 3.44597 18.4762 3.42634 17.9821C3.41804 17.7783 3.46635 17.5714 3.49693 17.3668C3.54034 17.0788 3.59129 16.7916 3.64225 16.4858C3.35689 16.4858 3.09984 16.4858 2.84316 16.4858C2.38694 16.4854 1.94286 16.3388 1.57603 16.0676C1.2092 15.7963 0.938931 15.4147 0.804848 14.9786C0.739547 14.7593 0.722561 14.523 0.684814 14.2965V6.59625C0.694251 6.52831 0.70633 6.46074 0.712369 6.39242C0.78975 5.48651 1.39596 4.73988 2.2747 4.49415C2.40153 4.45867 2.42568 4.40431 2.42568 4.28768C2.42115 3.60824 2.40945 2.9288 2.42568 2.24937C2.4506 1.37025 2.86354 0.719123 3.64791 0.313726C3.78569 0.242762 3.93705 0.198221 4.082 0.141602H24.9181C24.9328 0.153128 24.9489 0.162766 24.966 0.170289C25.9931 0.48132 26.5789 1.2672 26.5789 2.33732C26.5789 2.99071 26.5812 3.6441 26.5789 4.29787C26.5789 4.40771 26.6034 4.45754 26.7212 4.49075C27.3467 4.66778 27.8159 5.04638 28.0888 5.63938C28.1941 5.86963 28.2428 6.12555 28.3153 6.36977V14.523C28.3021 14.5509 28.2917 14.58 28.2839 14.6098C28.0971 15.7543 27.238 16.4843 26.0739 16.4858H25.3631C25.4235 16.8501 25.4846 17.1947 25.536 17.5408C25.5605 17.7073 25.5911 17.8806 25.5737 18.044C25.5296 18.5117 25.2529 18.8174 24.8411 19.0148H24.0121C23.6992 18.8556 23.4811 18.614 23.3301 18.2946C23.0689 17.7443 22.7827 17.2057 22.5204 16.6561C22.4555 16.5194 22.3796 16.4824 22.2347 16.4824C19.2607 16.487 16.2867 16.4881 13.3125 16.4858C11.1305 16.4858 8.94866 16.4846 6.76691 16.4821C6.61856 16.4821 6.54911 16.5266 6.48532 16.6606C6.23959 17.1766 5.96744 17.6798 5.72473 18.1973C5.55977 18.5491 5.34839 18.8457 4.98792 19.0148ZM23.1327 9.57483V9.33212C23.1327 8.13102 23.1293 6.92993 23.1327 5.72846C23.1357 4.96523 23.6951 4.41526 24.4602 4.40998C24.6738 4.40998 24.8879 4.40998 25.1019 4.40998H25.7058C25.7058 3.61994 25.7058 2.85369 25.7058 2.08781C25.7037 2.05644 25.698 2.02542 25.6888 1.99533C25.5443 1.3593 25.0396 0.966362 24.3613 0.966362H7.49428C6.51967 0.966362 5.54468 0.962965 4.57006 0.966362C4.23242 0.966454 3.9085 1.10003 3.66894 1.33796C3.42938 1.5759 3.2936 1.8989 3.29121 2.23653C3.28366 2.92201 3.29121 3.60748 3.29121 4.29334C3.29384 4.33239 3.29901 4.37122 3.30669 4.4096H4.46475C5.34424 4.4096 5.88288 4.95126 5.88326 5.83604C5.88326 7.00568 5.88326 8.17582 5.88326 9.34646V9.57596L23.1327 9.57483ZM1.63829 14.7608C1.6851 14.8578 1.70888 14.9212 1.74398 14.9775C2.02406 15.4282 2.43134 15.6267 2.96131 15.6263C10.654 15.6228 18.347 15.6219 26.0403 15.6237C26.905 15.6237 27.4433 15.0869 27.4441 14.2271C27.4441 13.1579 27.4441 12.0884 27.4441 11.0186C27.4441 10.5981 27.2972 10.4502 26.8797 10.4502H2.12182C1.71529 10.4502 1.55978 10.603 1.5594 11.0043C1.5594 11.8974 1.5594 12.7907 1.5594 13.6843V13.9017H22.4747C22.5756 13.8984 22.6766 13.9029 22.7767 13.9153C22.8772 13.9312 22.9685 13.983 23.0337 14.0612C23.0988 14.1394 23.1333 14.2386 23.1308 14.3403C23.129 14.4424 23.0908 14.5404 23.0229 14.6166C22.955 14.6928 22.862 14.7421 22.7609 14.7555C22.673 14.7637 22.5848 14.7663 22.4966 14.7631H1.63829V14.7608ZM4.99962 9.58464C5.00785 9.55903 5.01391 9.53276 5.01774 9.50613C5.01774 8.24879 5.02113 6.99146 5.01774 5.7345C5.01774 5.44423 4.83127 5.27663 4.53496 5.2755C4.00651 5.27399 3.47806 5.27399 2.9496 5.2755C2.10861 5.2755 1.56016 5.82585 1.55902 6.67212C1.55902 7.6032 1.55902 8.53353 1.55902 9.4631C1.55902 9.52274 1.56506 9.58275 1.56582 9.60238C2.14711 9.59672 2.71067 9.58917 3.27422 9.58653C3.84646 9.58238 4.41794 9.58464 4.99962 9.58464ZM27.4384 9.60653C27.4384 9.61673 27.4437 9.59257 27.4437 9.56879C27.4437 8.56209 27.4524 7.55539 27.4407 6.54907C27.4324 5.83415 26.856 5.28079 26.1403 5.27588C25.6058 5.27248 25.0709 5.27588 24.5361 5.27588C24.1371 5.27588 23.9937 5.41932 23.9937 5.8232C23.9937 7.00593 23.9937 8.18865 23.9937 9.37137C23.9937 9.43781 24.0001 9.50424 24.0057 9.60729L27.4384 9.60653ZM24.4893 16.4968H23.3991C23.6694 17.0343 23.9276 17.5563 24.1948 18.0723C24.2624 18.2025 24.3911 18.2456 24.5346 18.1901C24.6855 18.1316 24.741 18.0119 24.7161 17.8583C24.6433 17.4072 24.5663 16.9565 24.4893 16.4968ZM4.51571 16.4923C4.44248 16.9422 4.37114 17.374 4.30206 17.8062C4.26431 18.03 4.32471 18.1459 4.49079 18.1984C4.64555 18.2452 4.76332 18.1799 4.85958 17.9889C5.08757 17.5359 5.31404 17.0822 5.53901 16.6278C5.55804 16.5835 5.57467 16.5383 5.58884 16.4923H4.51571Z" />
		<path d="M8.46254 7.87185C8.46254 8.01605 8.46783 8.16061 8.46254 8.30481C8.46152 8.40953 8.42124 8.51007 8.34967 8.58653C8.2781 8.66299 8.18045 8.70982 8.07602 8.71775C7.84614 8.73663 7.63476 8.59961 7.61815 8.36747C7.59343 8.02996 7.59343 7.6911 7.61815 7.35359C7.63552 7.12221 7.85029 6.98292 8.07715 7.00406C8.18135 7.01331 8.27841 7.06089 8.34954 7.1376C8.42067 7.2143 8.4608 7.31467 8.46216 7.41927C8.46783 7.57026 8.46254 7.72087 8.46254 7.87185Z" />
		<path d="M21.4046 7.86109C21.4046 8.00528 21.4096 8.15023 21.4046 8.29442C21.3941 8.54506 21.2099 8.72209 20.9698 8.71982C20.7297 8.71756 20.5486 8.53977 20.5429 8.28612C20.5365 8.00377 20.5365 7.71992 20.5429 7.43833C20.5486 7.18543 20.7316 7.005 20.9687 7.00198C21.2148 6.99934 21.3975 7.18354 21.4054 7.44663C21.4077 7.58479 21.4046 7.72294 21.4046 7.86109Z" />
		<path d="M10.6175 7.87318C10.6175 8.01737 10.6224 8.16194 10.6175 8.30613C10.6163 8.41071 10.5758 8.51101 10.5042 8.5872C10.4325 8.66339 10.3349 8.70991 10.2306 8.71757C9.99922 8.73568 9.79199 8.59904 9.77538 8.36539C9.75066 8.02801 9.75066 7.68928 9.77538 7.3519C9.7935 7.11825 10.0053 6.98236 10.234 7.00425C10.3381 7.01375 10.435 7.06177 10.5056 7.13892C10.5761 7.21607 10.6154 7.31679 10.6156 7.42135C10.6224 7.57196 10.6175 7.72257 10.6175 7.87318Z" />
		<path d="M18.388 7.84881C18.388 7.70424 18.3824 7.55967 18.388 7.41548C18.3904 7.31084 18.4315 7.21081 18.5034 7.13473C18.5753 7.05866 18.6728 7.01196 18.7772 7.00367C19.0063 6.98479 19.2154 7.12295 19.2324 7.35773C19.2573 7.69523 19.2573 8.0341 19.2324 8.3716C19.2147 8.60412 19.0029 8.73925 18.7723 8.71736C18.5575 8.69735 18.4016 8.52863 18.3876 8.30215C18.3876 8.28969 18.3876 8.27686 18.3876 8.2644V7.84919L18.388 7.84881Z" />
		<path d="M16.2307 7.86151C16.2307 7.71732 16.2262 7.57275 16.2307 7.42856C16.2398 7.19227 16.4044 7.01901 16.6259 7.00316C16.8547 6.9873 17.0593 7.12923 17.0751 7.36401C17.0976 7.69542 17.0976 8.02798 17.0751 8.35939C17.0597 8.59417 16.857 8.73383 16.6252 8.71873C16.5206 8.71324 16.4219 8.6684 16.349 8.59322C16.276 8.51804 16.2342 8.41806 16.2319 8.31334C16.2243 8.16235 16.2319 8.01136 16.2319 7.86038L16.2307 7.86151Z" />
		<path d="M14.0746 7.86007C14.0746 7.71588 14.0693 7.57131 14.0746 7.4275C14.0859 7.18101 14.2577 7.00813 14.4898 7.00172C14.5449 6.99841 14.6002 7.0062 14.6522 7.02462C14.7043 7.04304 14.7521 7.07172 14.7928 7.10896C14.8336 7.1462 14.8665 7.19125 14.8895 7.24142C14.9125 7.2916 14.9253 7.34589 14.9269 7.40108C14.9405 7.70758 14.9405 8.01597 14.9269 8.32247C14.916 8.56631 14.7246 8.72598 14.4891 8.71881C14.381 8.71775 14.2777 8.67461 14.2009 8.59856C14.1242 8.52252 14.0801 8.41955 14.078 8.31152C14.0697 8.16054 14.078 8.00955 14.078 7.85856L14.0746 7.86007Z" />
		<path d="M12.772 7.86917C12.772 8.02015 12.7792 8.17114 12.772 8.32212C12.7687 8.42673 12.7257 8.52615 12.6518 8.60019C12.5778 8.67423 12.4784 8.71733 12.3738 8.72073C12.1428 8.73205 11.9424 8.58522 11.9292 8.35383C11.9107 8.02847 11.9107 7.70232 11.9292 7.37695C11.942 7.14443 12.142 6.9942 12.37 7.00439C12.598 7.01459 12.7622 7.18331 12.7739 7.41961C12.7811 7.57059 12.7739 7.72158 12.7739 7.87256L12.772 7.86917Z" />
		<path d="M25.2763 14.7606C25.0061 14.7606 24.7358 14.7632 24.4655 14.7606C24.179 14.7568 23.9963 14.587 23.9963 14.3318C23.9963 14.0766 24.1756 13.9056 24.4655 13.903C25.0126 13.8982 25.5594 13.8982 26.106 13.903C26.3921 13.9056 26.5774 14.0812 26.5778 14.3318C26.5782 14.5824 26.3891 14.7572 26.106 14.7606C25.8229 14.764 25.553 14.7606 25.2763 14.7606Z" />
	</symbol>
	<symbol id="style" viewBox="0 0 22 25">
		<path d="M0.25 5.82596V3.78665C0.282443 3.7111 0.318131 3.63648 0.34733 3.55955C0.845569 2.25161 1.74935 1.3812 3.11708 1.03776C3.448 0.954336 3.80071 0.952482 4.14322 0.913086H17.2597C17.3029 0.927065 17.3475 0.936235 17.3927 0.940431C18.7205 0.933016 19.7652 1.49661 20.5276 2.56029C20.7918 2.93107 20.9475 3.37555 21.1529 3.78665V5.8723C21.0259 6.1592 20.9211 6.45721 20.7691 6.73067C20.053 8.03165 18.658 8.71343 17.293 8.41263C16.9324 8.33337 16.5922 8.16374 16.2381 8.03443V8.2912C16.2381 13.3317 16.2394 18.3722 16.2419 23.4126C16.2419 23.7222 16.1603 23.9549 15.8683 24.087H15.5902C15.5501 24.0666 15.5086 24.0493 15.466 24.0351C14.8607 23.8812 14.2549 23.7297 13.6496 23.5758C13.3516 23.4998 13.2269 23.338 13.2232 23.0298C13.2209 22.875 13.214 22.7202 13.2232 22.5663C13.233 22.4319 13.1834 22.361 13.061 22.3017C12.5544 22.0565 12.0553 21.7951 11.5487 21.5495C11.3123 21.4345 11.2006 21.2565 11.2015 20.9993C11.1959 20.8912 11.1959 20.7829 11.2015 20.6749C11.2187 20.5094 11.1626 20.4343 10.9902 20.3922C9.23545 19.962 7.48026 19.5176 5.71904 19.0814C5.26483 18.9683 5.16287 18.8446 5.16287 18.3737V7.98576C3.64822 8.92338 1.86708 8.46778 0.913237 7.13853C0.630516 6.7455 0.467835 6.2658 0.25 5.82596ZM7.18178 18.4066V18.085C7.18178 15.7907 7.18178 13.4967 7.18178 11.2028C7.17979 11.0635 7.18598 10.9242 7.20032 10.7856C7.29302 9.97548 8.11986 9.36508 8.92121 9.51107C9.70449 9.65382 10.2027 10.2614 10.2032 11.0869C10.205 13.6824 10.205 16.2779 10.2032 18.8733V19.1621L11.202 19.4091V17.0699C11.202 15.0691 11.1974 13.0687 11.202 11.0679C11.2062 9.8559 12.4131 9.10924 13.4387 9.68349C13.9949 9.99633 14.2266 10.5001 14.2266 11.13C14.2245 14.8687 14.2245 18.6075 14.2266 22.3462C14.2266 22.4157 14.2114 22.4903 14.2317 22.5534C14.2521 22.6164 14.299 22.6924 14.3509 22.71C14.6289 22.7925 14.9149 22.8569 15.225 22.9343V11.2139C15.225 9.4913 15.225 7.7687 15.225 6.04611C15.225 5.5196 15.3506 5.03155 15.7116 4.63482C16.1927 4.10691 16.7999 3.86961 17.5039 4.00217C18.1722 4.12777 18.5504 4.58615 18.715 5.22992C18.8077 5.59607 18.6723 5.87508 18.3692 5.95341C18.0661 6.03174 17.8205 5.84079 17.7375 5.47278C17.731 5.44266 17.7273 5.41207 17.7199 5.38009C17.692 5.27083 17.6318 5.17254 17.5471 5.0981C17.4624 5.02367 17.3572 4.97656 17.2453 4.96296C16.7855 4.91661 16.3072 5.27951 16.2483 5.73697C16.1895 6.19442 16.3063 6.61201 16.6191 6.96009C17.0743 7.4676 17.9354 7.63677 18.6584 7.33087C19.6734 6.90308 20.148 6.08411 20.2528 5.02043C20.3918 3.58782 19.228 2.12415 17.7964 1.96889C16.684 1.84792 15.6597 2.13574 14.7592 2.78832C13.3752 3.79082 12.7662 5.20072 12.7199 6.87712C12.7074 7.29008 12.5201 7.47965 12.1053 7.47965C11.1552 7.47965 10.205 7.47965 9.25492 7.47965C8.89758 7.47965 8.70199 7.27942 8.68299 6.92625C8.66898 6.60452 8.63882 6.2837 8.59261 5.965C8.24454 3.76116 6.53847 2.19877 4.32351 1.95499C2.42325 1.74596 0.866426 3.53081 1.1751 5.3013C1.37718 6.45999 2.21098 7.3596 3.30293 7.46667C4.56823 7.59042 5.22868 6.73067 5.16241 5.81205C5.12625 5.31242 4.62153 4.89019 4.13534 4.97316C3.8109 5.02877 3.69318 5.25866 3.63895 5.56131C3.62924 5.62465 3.60698 5.6854 3.57347 5.74002C3.53996 5.79463 3.49588 5.842 3.44381 5.87935C3.39174 5.91669 3.33274 5.94326 3.27027 5.95749C3.20779 5.97172 3.1431 5.97333 3.08 5.96222C2.81813 5.92375 2.64108 5.69525 2.65592 5.41531C2.69856 4.59913 3.46932 3.91225 4.28411 3.96509C5.4099 4.03786 6.17557 4.86424 6.17603 6.02015C6.1785 9.96775 6.1785 13.915 6.17603 17.862V18.1545L7.18178 18.4066ZM9.67807 6.45443H11.7299C11.9153 4.60654 12.7009 3.10302 14.2104 1.95869H7.19337C8.71172 3.10719 9.49315 4.61489 9.67807 6.45443ZM13.2237 21.2598V21.0475C13.2237 17.7361 13.2237 14.4246 13.2237 11.1129C13.2258 11.0589 13.2244 11.0049 13.2195 10.9511C13.2123 10.8815 13.1908 10.8141 13.1562 10.7532C13.1216 10.6924 13.0747 10.6394 13.0185 10.5976C12.9623 10.5559 12.8981 10.5263 12.8298 10.5107C12.7616 10.4951 12.6908 10.4939 12.6221 10.5071C12.3625 10.5511 12.2105 10.7629 12.2101 11.0911C12.2101 13.0516 12.2101 15.0122 12.2101 16.9731C12.2101 18.1619 12.2101 19.3503 12.2133 20.5391C12.2133 20.6225 12.2318 20.7504 12.2851 20.7805C12.5785 20.9465 12.884 21.0883 13.2237 21.2598ZM9.19513 18.9104V11.1332C9.19732 11.0714 9.19623 11.0096 9.19188 10.9479C9.17976 10.8237 9.12115 10.7087 9.0278 10.6259C8.93446 10.5431 8.81328 10.4987 8.68855 10.5015C8.36829 10.5015 8.18336 10.724 8.18336 11.1133C8.18336 13.5515 8.18336 15.99 8.18336 18.4289V18.6546L9.19513 18.9104Z" />
	</symbol>
	<symbol id="logo" viewBox="0 0 155 50">
		<path d="M40.2678 20.3441C38.5357 20.3441 36.9704 19.9706 35.5719 19.2237C34.1893 18.4768 33.1008 17.4518 32.3062 16.1487C31.5275 14.8297 31.1382 13.3518 31.1382 11.715C31.1382 10.0782 31.5275 8.60822 32.3062 7.30512C33.1008 5.98613 34.1893 4.95319 35.5719 4.20629C36.9704 3.45939 38.5357 3.08594 40.2678 3.08594C42 3.08594 43.5574 3.45939 44.9399 4.20629C46.3225 4.95319 47.4111 5.98613 48.2056 7.30512C49.0002 8.60822 49.3975 10.0782 49.3975 11.715C49.3975 13.3518 49.0002 14.8297 48.2056 16.1487C47.4111 17.4518 46.3225 18.4768 44.9399 19.2237C43.5574 19.9706 42 20.3441 40.2678 20.3441ZM40.2678 17.0545C41.2531 17.0545 42.143 16.8321 42.9376 16.3871C43.7322 15.9262 44.3519 15.2906 44.7969 14.4801C45.2578 13.6697 45.4882 12.748 45.4882 11.715C45.4882 10.6821 45.2578 9.76036 44.7969 8.94989C44.3519 8.13943 43.7322 7.51171 42.9376 7.06675C42.143 6.6059 41.2531 6.37547 40.2678 6.37547C39.2826 6.37547 38.3926 6.6059 37.5981 7.06675C36.8035 7.51171 36.1758 8.13943 35.7149 8.94989C35.27 9.76036 35.0475 10.6821 35.0475 11.715C35.0475 12.748 35.27 13.6697 35.7149 14.4801C36.1758 15.2906 36.8035 15.9262 37.5981 16.3871C38.3926 16.8321 39.2826 17.0545 40.2678 17.0545Z" fill="#969693" />
		<path d="M64.8924 6.5185H59.5529V20.058H55.7389V6.5185H50.4232V3.37198H64.8924V6.5185Z" fill="#969693" />
		<path d="M83.6197 16.9115V23.5144H80.0441V20.058H68.2685V23.5144H64.693L64.7168 16.9115H65.3842C66.3854 16.8797 67.0926 16.1487 67.5058 14.7185C67.9189 13.2883 68.1732 11.2462 68.2685 8.59233L68.4592 3.37198H81.2837V16.9115H83.6197ZM71.6773 8.94989C71.5978 10.9363 71.431 12.6049 71.1767 13.9557C70.9224 15.2906 70.5331 16.2759 70.0087 16.9115H77.4697V6.5185H71.7488L71.6773 8.94989Z" fill="#969693" />
		<path d="M99.139 16.9592V20.058H86.2193V3.37198H98.8292V6.47082H90.0571V10.0941H97.8042V13.0976H90.0571V16.9592H99.139Z" fill="#969693" />
		<path d="M117.133 3.37198V20.058H113.319V6.5185H107.598L107.479 9.99873C107.399 12.3666 107.208 14.2894 106.906 15.7673C106.604 17.2293 106.096 18.3576 105.381 19.1522C104.682 19.9309 103.696 20.3202 102.425 20.3202C101.901 20.3202 101.265 20.2328 100.518 20.058L100.756 16.7923C100.963 16.8559 101.193 16.8877 101.448 16.8877C102.369 16.8877 103.013 16.3474 103.379 15.2668C103.744 14.1702 103.974 12.4619 104.07 10.1418L104.308 3.37198H117.133Z" fill="#969693" />
		<path d="M127.76 13.3359H125.09V20.058H121.252V3.37198H125.09V10.1179H127.855L132.241 3.37198H136.317L130.859 11.429L136.484 20.058H132.098L127.76 13.3359Z" fill="#969693" />
		<path d="M149.266 16.4824H141.519L140.041 20.058H136.084L143.521 3.37198H147.335L154.796 20.058H150.744L149.266 16.4824ZM148.051 13.5505L145.405 7.1621L142.759 13.5505H148.051Z" fill="#969693" />
		<path d="M47.4905 46.5112L47.4666 36.5234L42.5562 44.7472H40.8399L35.9294 36.7141V46.5112H32.3062V29.8251H35.5003L41.7457 40.1943L47.8957 29.8251H51.0899L51.1137 46.5112H47.4905Z" fill="#F26422" />
		<path d="M66.5576 42.9356H58.8105L57.3326 46.5112H53.3756L60.8128 29.8251H64.6268L72.0878 46.5112H68.0355L66.5576 42.9356ZM65.3419 40.0036L62.696 33.6152L60.0501 40.0036H65.3419Z" fill="#F26422" />
		<path d="M81.9579 46.7972C80.2576 46.7972 78.7161 46.4317 77.3335 45.7007C75.9669 44.9538 74.8862 43.9288 74.0917 42.6257C73.313 41.3067 72.9236 39.8208 72.9236 38.1681C72.9236 36.5154 73.313 35.0375 74.0917 33.7344C74.8862 32.4154 75.9669 31.3904 77.3335 30.6594C78.7161 29.9125 80.2655 29.5391 81.9818 29.5391C83.4279 29.5391 84.731 29.7933 85.8911 30.3019C87.067 30.8104 88.0523 31.5414 88.8469 32.4949L86.3678 34.7832C85.2395 33.4801 83.8411 32.8286 82.1725 32.8286C81.1395 32.8286 80.2178 33.059 79.4074 33.5199C78.5969 33.9648 77.9612 34.5926 77.5004 35.403C77.0554 36.2135 76.8329 37.1352 76.8329 38.1681C76.8329 39.2011 77.0554 40.1228 77.5004 40.9332C77.9612 41.7437 78.5969 42.3794 79.4074 42.8402C80.2178 43.2852 81.1395 43.5077 82.1725 43.5077C83.8411 43.5077 85.2395 42.8482 86.3678 41.5292L88.8469 43.8176C88.0523 44.7869 87.067 45.5259 85.8911 46.0344C84.7151 46.5429 83.4041 46.7972 81.9579 46.7972Z" fill="#F26422" />
		<path d="M103.954 32.9716H98.6142V46.5112H94.8002V32.9716H89.4845V29.8251H103.954V32.9716Z" fill="#F26422" />
		<path d="M119.298 43.4123V46.5112H106.378V29.8251H118.988V32.9239H110.216V36.5472H117.963V39.5507H110.216V43.4123H119.298Z" fill="#F26422" />
		<path d="M129.64 29.8251C131.118 29.8251 132.397 30.0714 133.478 30.5641C134.574 31.0567 135.417 31.7559 136.005 32.6617C136.593 33.5676 136.886 34.6402 136.886 35.8798C136.886 37.1034 136.593 38.1761 136.005 39.0978C135.417 40.0036 134.574 40.7028 133.478 41.1955C132.397 41.6722 131.118 41.9106 129.64 41.9106H126.279V46.5112H122.417V29.8251H129.64ZM129.425 38.7641C130.586 38.7641 131.468 38.5177 132.071 38.0251C132.675 37.5166 132.977 36.8015 132.977 35.8798C132.977 34.9422 132.675 34.227 132.071 33.7344C131.468 33.2259 130.586 32.9716 129.425 32.9716H126.279V38.7641H129.425Z" fill="#F26422" />
		<path d="M13.2836 10.8955L23.8806 0L25.8209 2.08955L6.86567 21.791H13.2836V50H10.597V24.3284H0L10.597 13.4328V3.8806H13.2836V10.8955Z" fill="#F26422" />
		<path d="M18.209 22.0898H24.4776V28.9555H18.209V22.0898Z" fill="#969693" />
		<path d="M18.209 31.9404H24.4776V38.8061H18.209V31.9404Z" fill="#969693" />
	</symbol>
	<symbol id="home-repair" viewBox="0 0 174 170">
<path d="M172.969 98.1129L167.806 89.2459C165.709 85.6436 161.046 84.4051 157.413 86.4846L152.249 89.442L150.621 86.6465C149.62 84.9289 148.006 83.6996 146.073 83.1863C144.141 82.673 142.123 82.9363 140.39 83.9286L133.272 88.0035V80.5882C136.617 78.2468 138.807 74.3852 138.807 70.0261V57.5081C139.68 57.7543 140.575 57.878 141.479 57.878C145.501 57.878 149.075 55.4826 150.583 51.7697C152.593 46.7933 150.144 41.122 145.124 39.1293L129.521 32.9302C129.506 32.9236 129.491 32.9184 129.477 32.9131L117.489 28.1486C116.183 27.6301 114.699 28.2579 114.176 29.5543C113.651 30.8494 114.286 32.3195 115.592 32.8394L133.709 40.0401V70.0274C133.709 74.3641 130.15 77.8914 125.776 77.8914C121.401 77.8914 117.842 74.3628 117.842 70.0274V56.5868C117.842 49.4743 112.005 43.6872 104.831 43.6872C97.6562 43.6872 91.8191 49.4743 91.8191 56.5868V64.1455C91.8191 70.8908 86.2847 76.3779 79.4812 76.3779C72.679 76.3779 67.1446 70.8908 67.1446 64.1455V34.1622C67.1446 34.1437 67.1446 34.1253 67.1446 34.1069V20.3425L67.657 20.1385L73.8963 17.6589C75.0247 17.2101 76.2673 17.2101 77.3957 17.6589L85.2519 20.7821C85.2798 20.7926 85.3063 20.8032 85.3329 20.8124L105.06 28.6527C106.366 29.1713 107.85 28.5435 108.375 27.2471C108.898 25.952 108.264 24.4818 106.957 23.9619L79.2913 12.9668C76.9403 12.0323 74.3503 12.0323 71.998 12.9668L65.4467 15.5728L47.0539 22.8801V19.4159C51.0378 18.4788 54.0088 14.9213 54.0088 10.6898V8.96829C54.0088 4.02349 49.9519 0 44.9644 0H22.8042C17.8167 0 13.7598 4.02217 13.7598 8.96829V10.6898C13.7598 14.9226 16.7321 18.4788 20.7147 19.4159V33.3475L6.16378 39.1293C3.7331 40.0954 1.82679 41.9433 0.795308 44.3308C-0.234845 46.7196 -0.265378 49.3624 0.710347 51.771C2.24496 55.5642 5.93811 57.8767 9.83304 57.8767C11.0437 57.8767 12.273 57.6529 13.4638 57.1817L18.0172 55.3707V140.892C18.0172 144.581 21.0439 147.583 24.7663 147.583H126.523C130.244 147.583 133.272 144.581 133.272 140.892V129.526C133.272 128.129 132.13 126.999 130.723 126.999C129.315 126.999 128.174 128.129 128.174 129.526V140.892C128.174 141.795 127.434 142.529 126.523 142.529H96.638V91.2675C96.638 87.7363 93.74 84.8631 90.177 84.8631H61.1123C57.5506 84.8631 54.6513 87.7363 54.6513 91.2675V142.529H24.7663C23.8556 142.529 23.1148 141.795 23.1148 140.892V53.3451L53.0424 41.4484L62.0469 37.8711V64.1455C62.0469 73.6771 69.8686 81.4306 79.4812 81.4306C89.0951 81.4306 96.9168 73.6771 96.9168 64.1455V56.5868C96.9168 52.2606 100.467 48.7399 104.831 48.7399C109.195 48.7399 112.746 52.2606 112.746 56.5868V70.0261C112.746 77.1504 118.591 82.9455 125.776 82.9455C126.596 82.9455 127.397 82.8691 128.174 82.7257V90.9214L102.272 105.748C100.54 106.739 99.301 108.341 98.7833 110.256C98.2655 112.172 98.531 114.173 99.5307 115.89L105.336 125.857C106.336 127.575 107.95 128.803 109.883 129.316C110.528 129.489 111.182 129.573 111.833 129.573C113.131 129.573 114.411 129.236 115.564 128.575L153.684 106.756C157.259 104.709 158.49 100.159 156.424 96.6138L154.796 93.8183L159.961 90.8622C161.158 90.1764 162.699 90.5844 163.391 91.7729L168.555 100.64C169.147 101.657 168.95 102.923 168.078 103.718L143.823 125.788C140.97 128.383 140.331 132.519 142.266 135.843L144.068 138.935L142.656 139.743C140.158 141.174 139.298 144.353 140.741 146.832L153.497 168.736C153.969 169.546 154.826 170 155.706 170C156.139 170 156.577 169.891 156.978 169.66C158.196 168.963 158.614 167.418 157.911 166.209L145.156 144.305C145.118 144.239 145.139 144.157 145.205 144.119L152.441 139.977C152.508 139.939 152.59 139.961 152.629 140.027L165.385 161.932C166.088 163.14 167.647 163.555 168.866 162.856C170.084 162.158 170.502 160.613 169.799 159.405L157.043 137.5C155.6 135.022 152.391 134.17 149.893 135.601L148.481 136.408L146.681 133.316C145.949 132.058 146.19 130.493 147.269 129.511L171.525 107.442C174.172 105.033 174.765 101.197 172.969 98.1129ZM145.853 49.8863C145.128 51.671 143.41 52.8252 141.479 52.8252C140.884 52.8252 140.291 52.7107 139.73 52.4923L138.807 52.1237V42.063L143.229 43.8201C145.641 44.777 146.817 47.5014 145.853 49.8863ZM59.749 91.2675C59.749 90.5226 60.361 89.9158 61.1123 89.9158H90.177C90.9297 89.9158 91.5403 90.5226 91.5403 91.2675V142.528H59.749V91.2675ZM18.8562 10.6898V8.96829C18.8562 6.80979 20.6284 5.05404 22.8042 5.05404H44.9644C47.1416 5.05404 48.9125 6.80979 48.9125 8.96829V10.6898C48.9125 12.8483 47.1416 14.6041 44.9644 14.6041H44.5927C44.5635 14.6028 44.5356 14.6028 44.5051 14.6028C44.4759 14.6028 44.4467 14.6028 44.4175 14.6041H23.3511C23.3219 14.6028 23.2927 14.6028 23.2635 14.6028C23.2343 14.6028 23.2051 14.6028 23.1759 14.6041H22.8042C20.6271 14.6041 18.8562 12.8483 18.8562 10.6898ZM25.8124 19.6581H41.9576V24.9056L25.8124 31.3219V19.6581ZM51.1453 36.7576L19.6859 49.2637C19.6407 49.2795 19.5982 49.2966 19.5544 49.3151L11.5694 52.4896C9.15733 53.4452 6.40805 52.279 5.44029 49.8889C4.973 48.7333 4.9876 47.4645 5.48277 46.3182C5.97793 45.1705 6.89259 44.2834 8.0608 43.8201L24.1702 37.4183C24.1994 37.4065 24.23 37.3946 24.2592 37.3828L62.0469 22.3668V32.4261L51.1453 36.7576ZM152.249 100.94C152.084 101.551 151.689 102.063 151.135 102.38L113.017 124.198C112.463 124.515 111.819 124.599 111.202 124.435C110.585 124.271 110.07 123.879 109.75 123.33L103.946 113.363C103.626 112.816 103.541 112.176 103.707 111.564C103.872 110.952 104.267 110.441 104.821 110.124L131.926 94.6093C131.973 94.5856 132.019 94.5579 132.064 94.5303L142.939 88.3049C143.308 88.0943 143.717 87.9864 144.131 87.9864C144.34 87.9864 144.548 88.014 144.754 88.068C145.371 88.2325 145.888 88.6247 146.206 89.1735L152.01 99.1408C152.33 99.6883 152.415 100.328 152.249 100.94Z" fill="white"/>
	</symbol>
	<symbol id="" viewBox="">
	</symbol>
</svg>
