<svg xmlns="http://www.w3.org/2000/svg">
	<symbol id="clock" viewBox="0 0 38 38">
		<path d="M32.2235 6.07137C32.2235 5.54622 32.2235 5.08316 32.2235 4.6201C32.2235 3.39018 32.2183 2.16077 32.2194 0.930859C32.2194 0.4795 32.4197 0.176219 32.7818 0.0490036C33.3104 -0.135713 33.84 0.22049 33.8655 0.803135C33.8874 1.312 33.8723 1.82086 33.8723 2.32972C33.8723 4.45811 33.8723 6.58667 33.8723 8.71541C33.8723 8.77291 33.8629 8.83041 33.8572 8.90521C33.7724 8.91132 33.6975 8.92201 33.6225 8.92201C31.0558 8.92201 28.4891 8.92201 25.9224 8.92201C25.7834 8.92238 25.6445 8.91559 25.5062 8.90165C25.0692 8.85687 24.7705 8.51746 24.781 8.08747C24.7914 7.65749 25.1139 7.31808 25.5515 7.31452C26.8954 7.30281 28.2392 7.30739 29.5831 7.30586H31.0545C26.4443 2.61213 18.0839 0.674902 10.8677 4.41961C2.1853 8.92302 -0.633565 19.1613 3.57028 27.183C7.86309 35.3756 17.7458 38.4649 26.0286 34.9441C34.6371 31.2854 39.1521 20.9937 34.4805 11.6108L35.9019 10.903C38.9762 16.472 39.2629 25.6279 32.7079 32.2965C25.3923 39.7391 13.4295 39.8394 5.95991 32.9392C-1.39421 26.1454 -2.00137 14.9322 4.4662 7.45293C7.99784 3.36983 12.5534 1.15018 18.0111 0.87234C23.4605 0.594502 28.1778 2.3918 32.2235 6.07137Z" />
		<path d="M26.1836 25.2845L24.9734 26.4691C24.77 26.2539 24.5614 26.0193 24.3371 25.7995C22.7586 24.2512 21.1789 22.7036 19.5979 21.1566C19.5483 21.1004 19.4847 21.0576 19.4133 21.0322C19.3419 21.0068 19.265 20.9997 19.19 21.0116C18.8305 21.0556 18.4662 20.9816 18.1543 20.801C17.8425 20.6205 17.6009 20.3438 17.4673 20.0143C17.3338 19.6849 17.316 19.3213 17.4167 18.9809C17.5174 18.6405 17.7308 18.3424 18.0236 18.1335C18.1693 18.0282 18.1797 17.9152 18.1797 17.7676C18.1797 14.1038 18.1797 10.4409 18.1797 6.77879V6.51367H19.8367V7.07342C19.8367 10.6432 19.8357 14.2129 19.8336 17.7824C19.8336 17.9498 19.8773 18.0577 20.0194 18.1635C20.498 18.5197 20.7046 19.0077 20.6338 19.5914C20.612 19.7736 20.6676 19.8881 20.794 20.0112C22.5685 21.7413 24.3404 23.4726 26.1097 25.2051C26.1359 25.2302 26.1606 25.2567 26.1836 25.2845Z" />
	</symbol>
	<symbol id="lock" viewBox="0 0 31 38">
		<path d="M0 36.7796V23.1012C0.0144383 22.8733 0.0379955 22.6491 0.0402752 22.4234C0.0486342 21.5875 0.0471144 20.7516 0.0547135 19.9157C0.0547135 19.7918 0.0547135 19.6497 0.106387 19.5464C0.481783 18.8343 1.00764 18.3305 1.87546 18.3161C2.44539 18.3085 3.01532 18.2918 3.58525 18.2849C3.94925 18.2796 4.31401 18.2849 4.7198 18.2849V17.7963C4.72588 15.2886 4.7198 12.7809 4.74564 10.2732C4.75323 9.54217 4.76539 8.79138 4.92573 8.08391C5.65145 4.89229 7.50259 2.51758 10.356 0.940767C11.046 0.557773 11.809 0.309283 12.5385 0H18.0858C18.1591 0.0430517 18.2353 0.0808876 18.3138 0.113226C21.3709 1.11859 23.6127 3.05711 24.9744 5.97972C25.4304 6.95469 25.8149 7.97068 25.8301 9.06115C25.8704 11.9982 25.8734 14.9352 25.8909 17.8761C25.8909 17.9992 25.8909 18.1215 25.8909 18.2872C26.1052 18.2872 26.2708 18.2872 26.4312 18.2872C27.2032 18.3016 27.9761 18.3351 28.7474 18.3267C29.6456 18.3176 30.559 19.0623 30.4952 20.0745C30.4617 20.5897 30.537 21.111 30.5377 21.6293C30.5446 26.4783 30.5278 31.3272 30.5666 36.1762C30.5727 36.9726 30.3052 37.5365 29.714 38H0.8359L0 36.7796ZM15.2795 37.0471H28.4624C29.277 37.0471 29.2915 37.0334 29.3203 36.2043C29.3203 36.1785 29.3203 36.1534 29.3203 36.1283C29.3046 30.8981 29.2867 25.6682 29.2664 20.4385C29.2611 19.5023 29.3713 19.6079 28.4161 19.6026C19.7024 19.5788 10.9888 19.5621 2.27517 19.5525C1.31084 19.5525 1.29565 19.5616 1.28729 20.5403C1.26373 23.1362 1.24169 25.732 1.24245 28.3279C1.24245 30.9997 1.26905 33.6716 1.29185 36.3434C1.29717 37.0114 1.34276 37.041 2.01452 37.041L15.2795 37.0471ZM24.6393 18.2545V17.8579C24.6287 15.1351 24.6066 12.4124 24.615 9.6896C24.6192 8.98094 24.5144 8.27586 24.3042 7.59909C22.8976 3.03964 18.7979 0.307763 13.7597 1.03196C10.5681 1.4879 8.2169 3.29876 6.84451 6.24417C6.44935 7.09071 6.0694 8.03072 6.03368 8.94185C5.9159 11.8888 5.95769 14.8418 5.94401 17.7925C5.94401 17.9399 5.94401 18.0881 5.94401 18.2591H9.50419V17.794C9.50875 15.1343 9.50419 12.4747 9.52243 9.81498C9.52699 9.13106 9.56118 8.45702 9.83855 7.80578C10.8401 5.45766 14.1548 3.77827 16.9338 4.66736C18.8564 5.28517 21.1673 7.34148 21.0844 10.1463C21.0085 12.689 21.0844 15.2377 21.0905 17.7819V18.2538L24.6393 18.2545ZM19.8253 18.2591C19.8377 18.1899 19.8463 18.1202 19.8511 18.0501C19.8435 15.2385 19.845 12.4306 19.8139 9.62197C19.8003 9.2178 19.7084 8.82011 19.5434 8.45095C18.4574 5.93109 15.487 4.90977 12.9633 6.18718C11.5704 6.89237 10.7535 7.95776 10.7687 9.60677C10.7945 12.3903 10.7527 15.1746 10.7413 17.9589C10.747 18.0585 10.7581 18.1577 10.7748 18.256L19.8253 18.2591Z" />
		<path d="M15.3091 33.4513C14.5751 33.4513 13.841 33.4611 13.1054 33.4475C12.5902 33.4376 12.4032 33.1838 12.5567 32.6708C12.7847 31.9109 13.0476 31.1556 13.2961 30.3987C13.3073 30.3624 13.3207 30.3269 13.3364 30.2923C13.6784 29.5841 13.7574 29.0141 13.0492 28.3599C12.2239 27.5999 12.1631 26.2367 12.6616 25.3248C13.2695 24.2085 14.4535 23.4934 15.5394 23.6492C16.7697 23.8262 17.6603 24.5231 18.063 25.6888C18.4324 26.7572 18.2196 27.8006 17.3738 28.5863C16.9224 29.0058 16.892 29.3462 17.1063 29.8858C17.4582 30.7642 17.7363 31.6738 18.0129 32.5804C18.2082 33.2187 18.0448 33.4361 17.3958 33.4513C16.6998 33.4672 16.0037 33.4513 15.3076 33.4513H15.3091ZM16.5964 32.2278C16.5493 32.0682 16.5204 31.9717 16.4931 31.8775C16.1891 30.942 15.8601 30.0127 15.5759 29.0704C15.4148 28.5384 15.4953 28.4131 15.9687 28.1539C16.8206 27.6889 17.0622 27.2344 16.968 26.2724C16.892 25.4935 16.256 24.9251 15.3904 24.8612C14.5895 24.8027 13.8752 25.2883 13.6852 26.0209C13.4314 27.0011 13.7323 27.6767 14.6389 28.1592C15.0895 28.3994 15.1625 28.5156 15.0447 29.005C14.9406 29.4329 14.7931 29.8516 14.6541 30.2703C14.4413 30.9109 14.2187 31.5484 13.9861 32.2278H16.5964Z" />
	</symbol>
	<symbol id="money" viewBox="0 0 35 35">
		<path d="M34.51 35H13.16C13.0725 34.9489 12.9913 34.8754 12.8968 34.8509C12.1835 34.664 11.5906 34.2776 11.0607 33.7778C10.9305 33.6553 10.7807 33.5559 10.6316 33.4418C10.5746 33.5065 10.5244 33.5768 10.4818 33.6518C10.2417 34.2349 9.7923 34.5919 9.2302 34.8362C9.15627 34.8814 9.08891 34.9365 9.03 35H1.68C1.58698 34.937 1.4902 34.8797 1.3902 34.8285C0.819 34.58 0.3801 34.2027 0.1484 33.6077C0.107587 33.5296 0.0577825 33.4565 0 33.39L0 21.28C0.0584715 21.1962 0.112674 21.1095 0.1624 21.0203C0.5726 20.202 1.19 19.7435 2.1483 19.7526C4.3057 19.7729 6.4631 19.7575 8.6205 19.7624C8.8025 19.7624 9.0055 19.7715 9.1623 19.8492C9.5592 20.0452 9.9358 20.2832 10.3642 20.5296C10.4322 20.4926 10.4957 20.4478 10.5532 20.3959C11.3757 19.5734 12.1898 18.7418 13.0179 17.9249C13.202 17.7429 13.1824 17.5651 13.1229 17.3523C12.8625 16.4276 12.6014 15.5022 12.3529 14.5747C12.0099 13.2972 11.6816 12.0162 11.3386 10.7394C11.0985 9.8441 10.8402 8.953 10.5973 8.0584C10.3698 7.2184 10.1696 6.3784 9.9232 5.544C9.7643 5.0064 9.9148 4.494 10.3432 4.3764C11.2126 4.1335 12.0848 3.8997 12.9577 3.668C14.0672 3.3726 15.1788 3.087 16.2869 2.7881C16.8196 2.6481 16.7881 2.6327 16.8252 2.0881C16.8735 1.3832 16.59 0.623 17.15 0H34.51L35 0.49V34.51L34.51 35ZM28.7532 31.71C28.7746 31.8074 28.7898 31.9061 28.7987 32.0054C28.8064 32.4093 28.8442 32.8181 28.7987 33.2171C28.7567 33.5923 28.7378 33.6189 29.1242 33.6196C30.4542 33.6196 31.7842 33.6196 33.1142 33.6196C33.6147 33.6196 33.6161 33.6196 33.6161 33.1142V1.8578C33.6161 1.3678 33.6161 1.3678 33.1093 1.3678H18.7257C18.1272 1.3678 18.1265 1.3678 18.1265 1.9852V19.8702C18.1265 19.9752 18.1265 20.0802 18.13 20.1852C18.13 20.3805 18.2056 20.4855 18.424 20.4722C18.6685 20.4554 18.9138 20.4554 19.1583 20.4722C19.4586 20.496 19.558 20.3609 19.5335 20.0823C19.523 19.9668 19.5335 19.8492 19.5335 19.7323C19.5335 15.4856 19.5335 11.239 19.5335 6.9923C19.5335 6.4729 19.7162 6.2797 20.2237 6.2426C21.2611 6.1649 22.0437 5.2759 22.0108 4.438C21.9947 3.9907 22.3608 3.6743 22.8361 3.6729C24.8544 3.66823 26.8728 3.66823 28.8911 3.6729C29.3916 3.675 29.624 3.92 29.68 4.41C29.8025 5.4768 30.4451 6.132 31.5371 6.2433C31.9571 6.2867 32.2217 6.4918 32.2308 6.9132C32.2504 7.7994 32.2483 8.687 32.2308 9.5732C32.2238 9.9757 31.9011 10.2802 31.5469 10.2732C31.1731 10.2669 30.9309 10.0233 30.9169 9.5879C30.8966 9.0048 30.8945 8.421 30.9036 7.8379C30.9078 7.6006 30.8042 7.4963 30.5984 7.3983C30.2232 7.2205 29.8431 7.0343 29.5141 6.7858C29.0409 6.4302 28.7266 5.9416 28.5418 5.3697C28.4914 5.2122 28.4529 5.0141 28.1862 5.0155C26.635 5.026 25.0831 5.0155 23.5319 5.0309C23.4262 5.0309 23.2624 5.1604 23.2274 5.264C22.8774 6.2832 22.2292 7.0084 21.2065 7.364C20.9097 7.4676 20.8285 7.6286 20.8313 7.9282C20.8439 9.6551 20.8376 11.3813 20.8376 13.1082C20.8376 15.4301 20.8418 17.7513 20.8327 20.0732C20.8327 20.3714 20.9111 20.482 21.2275 20.4757C22.1599 20.4561 23.0937 20.4701 24.0275 20.4666C24.164 20.4559 24.2998 20.4372 24.4342 20.4106C22.3622 19.187 22.1529 16.8756 23.3506 15.4217C24.5084 14.0175 26.4908 13.7935 27.9531 14.994C28.2861 15.2608 28.5591 15.5947 28.7543 15.974C28.9496 16.3533 29.0627 16.7695 29.0864 17.1955C29.1767 18.585 28.5789 19.6539 27.3686 20.4155C27.598 20.4598 27.8317 20.4776 28.0651 20.4687C29.6051 20.4561 30.8889 21.707 30.4325 23.4906C30.3821 23.6866 30.4514 23.744 30.6306 23.7531C30.961 23.7699 30.898 23.5277 30.898 23.3429C30.9013 21.0912 30.9024 18.8396 30.9015 16.5879C30.8985 16.3776 30.9072 16.1673 30.9274 15.9579C30.9603 15.6618 31.1262 15.4637 31.4265 15.4154C31.759 15.3622 32.039 15.4574 32.158 15.7976C32.2138 15.9743 32.24 16.159 32.2357 16.3443C32.2406 18.8293 32.2469 21.3143 32.2357 23.7993C32.2288 24.3185 32.3294 24.8335 32.5311 25.312C32.9595 26.3431 32.4443 27.6661 31.381 28.1183C31.0807 28.2464 31.0002 28.3822 31.1052 28.6944C31.3299 29.3636 31.2158 30.0048 30.8441 30.5963C30.3737 31.3439 29.6289 31.598 28.7532 31.71ZM13.6262 19.2731C13.544 19.3135 13.4657 19.3616 13.3924 19.4166C12.5195 20.2874 11.6424 21.1554 10.7856 22.0402C10.6792 22.1494 10.6232 22.3524 10.6225 22.512C10.6136 25.452 10.6136 28.392 10.6225 31.332C10.6316 31.5115 10.7063 31.6814 10.8325 31.8094C11.2525 32.2063 11.7194 32.5563 12.1408 32.9525C12.6469 33.4271 13.2363 33.6217 13.9188 33.621C18.0362 33.6159 22.1536 33.6159 26.271 33.621C26.3877 33.6251 26.5045 33.6232 26.621 33.6154C27.3819 33.5384 27.7718 32.7894 27.4043 32.1223C27.2111 31.7723 26.901 31.6792 26.5265 31.6799C24.8353 31.685 23.1441 31.685 21.4529 31.6799C21.0168 31.6799 20.7025 31.3607 20.7144 30.9652C20.7263 30.5956 21.0238 30.3352 21.4445 30.3352C22.6457 30.3352 23.8471 30.3352 25.0488 30.3352C26.32 30.3352 27.5912 30.3352 28.8624 30.3352C29.3741 30.3352 29.7675 30.0167 29.8494 29.5652C29.9719 28.8869 29.5694 28.4046 28.8659 28.4039C26.4164 28.4039 23.9664 28.4039 21.5159 28.4039C21.2093 28.4039 20.9608 28.3017 20.8082 28.049C20.5233 27.58 20.8607 27.0459 21.4382 27.0452C24.3539 27.0452 27.2706 27.0436 30.1882 27.0403C30.3963 27.0486 30.604 27.0145 30.7986 26.9402C30.9915 26.8517 31.1491 26.7012 31.2466 26.5127C31.344 26.3242 31.3755 26.1085 31.3362 25.9C31.2284 25.4212 30.856 25.1104 30.3646 25.1097C27.4713 25.1069 24.5779 25.1069 21.6846 25.1097C21.5796 25.1097 21.4746 25.1167 21.3703 25.1097C21.049 25.0796 20.8194 24.9123 20.7403 24.6008C20.6612 24.2893 20.7403 24.0079 21.0581 23.8721C21.2251 23.8008 21.4044 23.763 21.5859 23.7608C23.7909 23.7531 25.9959 23.7566 28.1995 23.7545C28.6972 23.7545 29.0395 23.5074 29.1459 23.093C29.3272 22.3678 28.9009 21.826 28.1365 21.8253C23.7391 21.8253 19.3417 21.8253 14.9443 21.8253C14.5173 21.8253 14.2919 21.6727 14.1743 21.2688C14.0567 20.8649 13.9699 20.4358 13.8586 20.0221C13.7998 19.7757 13.713 19.5419 13.6262 19.2731ZM1.3678 27.3231C1.3678 29.1193 1.3678 30.916 1.3678 32.7131C1.3678 33.3767 1.6086 33.6231 2.2652 33.6231C4.29427 33.6231 6.32427 33.6231 8.3552 33.6231C9.023 33.6231 9.3205 33.3305 9.3205 32.6732C9.3205 29.1158 9.3205 25.5586 9.3205 22.0017C9.3205 21.3794 9.0713 21.1001 8.4504 21.0812C7.7504 21.0609 7.0504 21.0812 6.3504 21.0728C6.0557 21.0728 5.9451 21.1904 5.9486 21.4928C5.9619 22.6471 5.9542 23.8028 5.9535 24.9564C5.9535 26.2864 5.9535 27.6164 5.9535 28.9464C5.9535 29.3881 5.7323 29.5967 5.3102 29.5932C4.9266 29.5932 4.7124 29.3671 4.697 28.9513C4.6928 28.8344 4.697 28.7175 4.697 28.6013C4.697 26.2451 4.697 23.8884 4.697 21.5313C4.697 21.2933 4.697 21.0756 4.3701 21.077C3.6239 21.077 2.8763 21.056 2.1301 21.0917C1.5232 21.1211 1.3706 21.3213 1.3706 21.938C1.3678 23.7309 1.36687 25.5255 1.3678 27.3217V27.3231ZM16.7244 20.4673C16.6054 19.9773 16.5095 19.5643 16.4003 19.152C16.1903 18.3449 15.9677 17.542 15.7493 16.7335C15.5393 15.9509 15.3223 15.1697 15.1123 14.3871C14.7812 13.1551 14.4417 11.9259 14.1323 10.6897C14.0049 10.1822 14.1477 9.9666 14.6433 9.7839C15.1096 9.62168 15.4977 9.28978 15.7304 8.8543C15.9621 8.4343 15.9222 7.9807 15.8991 7.5243C15.8711 6.9832 15.9432 6.8866 16.4493 6.7095C16.6971 6.6227 16.8476 6.5044 16.8308 6.1901C16.7986 5.5972 16.8091 5.0001 16.8266 4.4072C16.8364 4.0957 16.7034 4.0488 16.4444 4.116C15.862 4.2672 15.2761 4.4058 14.6944 4.5605C13.6759 4.8314 12.6644 5.1135 11.6424 5.3844C11.4009 5.4488 11.3211 5.5804 11.3855 5.8219C11.7012 6.9958 12.0064 8.1725 12.3249 9.3457C12.7778 11.0131 13.2405 12.677 13.6955 14.3437C13.9825 15.3923 14.2662 16.4423 14.5467 17.4937C14.7833 18.3785 15.0101 19.2661 15.2579 20.1481C15.2922 20.2685 15.4189 20.4435 15.5155 20.4526C15.89 20.4869 16.2743 20.4659 16.7244 20.4659V20.4673ZM27.7536 17.4811C27.8537 16.4668 26.8436 15.5666 25.8825 15.5596C24.7513 15.5512 23.9225 16.5809 23.9225 17.4699C23.9274 18.4926 24.8416 19.4005 25.8685 19.411C26.67 19.4173 27.8369 18.6522 27.7536 17.4797V17.4811ZM16.7832 9.8105C16.6208 9.9624 16.5249 10.0534 16.4269 10.1423C16.2554 10.2977 16.1028 10.4874 15.9068 10.5987C15.5568 10.7954 15.5498 11.0369 15.6548 11.3848C15.8928 12.1716 16.0839 12.9731 16.3016 13.7648C16.4206 14.1988 16.555 14.6286 16.6824 15.0598L16.7832 15.036V9.8105Z" />
		<path d="M31.5386 13.5844C31.1487 13.5795 30.9289 13.3618 30.9268 12.9789C30.9268 12.5673 31.1711 12.3174 31.5729 12.3244C31.9152 12.33 32.233 12.6387 32.2295 12.9621C32.2267 13.3296 31.9376 13.5886 31.5386 13.5844Z" />
		<path d="M5.94995 31.5387C5.94995 31.937 5.72945 32.1449 5.31155 32.1456C4.89365 32.1463 4.69485 31.9412 4.69275 31.5261C4.69275 31.1474 4.94475 30.8821 5.30875 30.8828C5.71755 30.8842 5.95345 31.125 5.94995 31.5387Z" />
	</symbol>
	<symbol id="truck" viewBox="0 0 42 26">
		<path d="M38.2245 11.0228L37.1601 6.76491C37.4507 6.7031 37.669 6.44461 37.669 6.13554V5.44918C37.669 3.95844 36.4568 2.74626 34.9661 2.74626H30.1182V1.33018C30.1182 0.596455 29.5217 0 28.788 0H4.07564C3.34192 0 2.74546 0.596455 2.74546 1.33018V13.0008C2.74546 13.3564 3.03365 13.6446 3.38928 13.6446C3.74491 13.6446 4.0331 13.3564 4.0331 13.0008V1.33099C4.0331 1.3069 4.05236 1.28844 4.07564 1.28844H28.788C28.8121 1.28844 28.8306 1.30771 28.8306 1.33099V13.0008C28.8306 13.3564 29.1187 13.6446 29.4744 13.6446C29.83 13.6446 30.1182 13.3564 30.1182 13.0008V12.2711H37.7099C37.7108 12.2711 37.7108 12.2711 37.7116 12.2711C37.7124 12.2711 37.7124 12.2711 37.7132 12.2711C38.6476 12.2719 39.4407 12.8852 39.7129 13.7297H37.7116C37.3559 13.7297 37.0677 14.0179 37.0677 14.3735V15.7463C37.0677 16.8581 37.9725 17.7628 39.0843 17.7628H39.814V20.5942H38.1314C37.5783 18.9983 36.0611 17.8487 34.2797 17.8487C32.4984 17.8487 30.9804 18.9983 30.4281 20.5942H30.1182V15.7463C30.1182 15.3906 29.83 15.1024 29.4744 15.1024C29.1187 15.1024 28.8306 15.3906 28.8306 15.7463V20.5942H15.4789C14.9258 18.9983 13.4086 17.8487 11.6273 17.8487C9.84593 17.8487 8.3279 18.9983 7.7756 20.5942H4.07564C4.05156 20.5942 4.0331 20.5749 4.0331 20.5516V19.1355H6.82191C7.17753 19.1355 7.46573 18.8474 7.46573 18.4917C7.46573 18.1361 7.17753 17.8479 6.82191 17.8479H0.643819C0.288193 17.8479 0 18.1361 0 18.4917C0 18.8474 0.288193 19.1355 0.643819 19.1355H2.74626V20.5516C2.74626 21.2854 3.34272 21.8818 4.07645 21.8818H7.55243C7.55243 21.8963 7.55162 21.9099 7.55162 21.9244C7.55162 24.1721 9.38033 26 11.6273 26C13.8742 26 15.7029 24.1713 15.7029 21.9244C15.7029 21.9099 15.7021 21.8955 15.7021 21.8818H30.2057C30.2057 21.8963 30.2049 21.9099 30.2049 21.9244C30.2049 24.1721 32.0336 26 34.2805 26C36.5283 26 38.3562 24.1713 38.3562 21.9244C38.3562 21.9099 38.3554 21.8955 38.3554 21.8818H40.4586C40.8142 21.8818 41.1024 21.5936 41.1024 21.238V14.3735C41.1016 12.6789 39.8509 11.2708 38.2245 11.0228ZM30.1182 6.78017H35.8371L36.8879 10.9851H30.1182V6.78017ZM34.9661 4.0339C35.7464 4.0339 36.3822 4.66889 36.3822 5.44998V5.49253H30.1182V4.0339H34.9661ZM11.6273 24.7132C10.09 24.7132 8.83846 23.4625 8.83846 21.9244C8.83846 20.3863 10.0892 19.1355 11.6273 19.1355C13.1654 19.1355 14.4161 20.3863 14.4161 21.9244C14.4153 23.4625 13.1646 24.7132 11.6273 24.7132ZM34.2797 24.7132C32.7424 24.7132 31.4909 23.4625 31.4909 21.9244C31.4909 20.3863 32.7416 19.1355 34.2797 19.1355C35.817 19.1355 37.0685 20.3863 37.0685 21.9244C37.0685 23.4625 35.8178 24.7132 34.2797 24.7132ZM39.0851 16.476C38.6829 16.476 38.3554 16.1485 38.3554 15.7463V15.0165H39.814V16.4752H39.0851V16.476Z" />
		<path d="M11.6272 20.5947C10.8935 20.5947 10.297 21.1912 10.297 21.9249C10.297 22.6586 10.8935 23.2551 11.6272 23.2551C12.3609 23.2551 12.9574 22.6586 12.9574 21.9249C12.9574 21.1912 12.3601 20.5947 11.6272 20.5947Z" />
		<path d="M34.2798 20.5947C33.546 20.5947 32.9496 21.1912 32.9496 21.9249C32.9496 22.6586 33.546 23.2551 34.2798 23.2551C35.0135 23.2551 35.61 22.6586 35.61 21.9249C35.61 21.1912 35.0135 20.5947 34.2798 20.5947Z" />
		<path d="M16.4751 18.4925C16.4751 18.8481 16.7633 19.1363 17.1189 19.1363H26.7296C27.0853 19.1363 27.3735 18.8481 27.3735 18.4925C27.3735 18.1368 27.0853 17.8486 26.7296 17.8486H17.1181C16.7633 17.8486 16.4751 18.1368 16.4751 18.4925Z" />
		<path d="M2.0165 16.3902H10.2537C10.6093 16.3902 10.8975 16.102 10.8975 15.7464C10.8975 15.3907 10.6093 15.1025 10.2537 15.1025H2.0165C1.66087 15.1025 1.37268 15.3907 1.37268 15.7464C1.37268 16.102 1.66087 16.3902 2.0165 16.3902Z" />
	</symbol>
	<symbol>
	</symbol>
	<symbol>
	</symbol>
</svg>
