
<svg xmlns="http://www.w3.org/2000/svg">
	<symbol id="tick">
		<path fill="black" d="M4.61345 9.20315L0.916576 5.38968C0.694475 5.16057 0.694475 4.7891 0.916576 4.55997L1.72089 3.73027C1.94299 3.50114 2.30313 3.50114 2.52523 3.73027L5.01562 6.29918L10.3498 0.79683C10.5719 0.567723 10.932 0.567723 11.1541 0.79683L11.9584 1.62653C12.1805 1.85564 12.1805 2.22711 11.9584 2.45624L5.41779 9.20317C5.19567 9.43228 4.83556 9.43228 4.61345 9.20315Z"/>
	</symbol>
	<symbol id="tick-white">
		<path fill="white" d="M4.61345 9.20315L0.916576 5.38968C0.694475 5.16057 0.694475 4.7891 0.916576 4.55997L1.72089 3.73027C1.94299 3.50114 2.30313 3.50114 2.52523 3.73027L5.01562 6.29918L10.3498 0.79683C10.5719 0.567723 10.932 0.567723 11.1541 0.79683L11.9584 1.62653C12.1805 1.85564 12.1805 2.22711 11.9584 2.45624L5.41779 9.20317C5.19567 9.43228 4.83556 9.43228 4.61345 9.20315Z"/>
	</symbol>
	<symbol id="percentages">
		<path fill="white" d="M33.2447 14.9199L20.5251 39.9318L22.0367 40.7004L34.7558 15.6886L33.2447 14.9199ZM24.9558 21.6617C24.9558 18.8569 22.6738 16.5745 19.8686 16.5745C17.0638 16.5745 14.7815 18.8565 14.7815 21.6617C14.7815 24.4665 17.0638 26.7488 19.8686 26.7488C22.6738 26.7488 24.9558 24.4669 24.9558 21.6617ZM19.8686 25.0531C17.9986 25.0531 16.4772 23.5317 16.4772 21.6617C16.4772 19.7917 17.9986 18.2702 19.8686 18.2702C21.7386 18.2702 23.2601 19.7917 23.2601 21.6617C23.2601 23.5317 21.7386 25.0531 19.8686 25.0531ZM35.1305 30.1403C32.3253 30.1403 30.0429 32.4222 30.0429 35.2274C30.0429 38.0327 32.3253 40.3146 35.1305 40.3146C37.9357 40.3146 40.2173 38.0327 40.2173 35.2274C40.2173 32.4222 37.9357 30.1403 35.1305 30.1403ZM35.1305 38.6189C33.2605 38.6189 31.7391 37.0974 31.7391 35.2274C31.7391 33.3574 33.2605 31.836 35.1305 31.836C37.0005 31.836 38.522 33.3574 38.522 35.2274C38.522 37.0974 37.0005 38.6189 35.1305 38.6189ZM53.0598 32.2501C54.013 31.0104 54.9987 29.7301 54.9987 28.1619C54.9987 26.5938 54.0134 25.313 53.0598 24.0742C52.4183 23.2405 51.812 22.4526 51.6107 21.7011C51.3966 20.899 51.5293 19.8829 51.6694 18.8064C51.8672 17.2849 52.0723 15.7121 51.3182 14.4086C50.5513 13.0846 49.0744 12.4735 47.645 11.883C46.6541 11.4737 45.7172 11.0866 45.1468 10.5157C44.5765 9.94494 44.1894 9.00844 43.7796 8.01713C43.1882 6.58818 42.5776 5.10999 41.2531 4.34392C40.6318 3.98423 39.8785 3.80951 38.9506 3.80951C38.2608 3.80951 37.5465 3.90286 36.8562 3.99236C36.1839 4.07972 35.5497 4.16236 34.9592 4.16236C34.5696 4.16236 34.2433 4.12554 33.9615 4.05017C33.2087 3.84934 32.4208 3.24299 31.5871 2.6011C30.3487 1.6479 29.0679 0.662155 27.4998 0.662155C25.9312 0.662155 24.6505 1.64747 23.4116 2.6011C22.5779 3.24299 21.79 3.84934 21.0385 4.05017C20.7563 4.12596 20.4304 4.16236 20.0408 4.16236C19.4503 4.16236 18.8156 4.08014 18.1438 3.99236C17.4531 3.90244 16.7388 3.80951 16.049 3.80951C15.121 3.80951 14.3678 3.98423 13.7465 4.3435C12.422 5.10957 11.8114 6.58776 11.2204 8.0167C10.8111 9.00758 10.424 9.94408 9.85316 10.5149C9.28236 11.0857 8.34586 11.4728 7.35455 11.8826C5.92517 12.4731 4.44741 13.0842 3.68134 14.4086C2.92726 15.7121 3.13194 17.2849 3.32978 18.8059C3.47023 19.882 3.60212 20.8986 3.38802 21.7006C3.18718 22.4522 2.58083 23.2401 1.93894 24.0742C0.985744 25.3126 0 26.5938 0 28.1619C0 29.7301 0.985744 31.0104 1.93894 32.2497C2.58083 33.083 3.18718 33.8713 3.38802 34.6237C3.60212 35.4248 3.47023 36.4419 3.32978 37.518C3.13194 39.039 2.92726 40.6122 3.68134 41.9153C4.44741 43.2393 5.92517 43.8508 7.35412 44.4409C8.34543 44.8507 9.28236 45.2378 9.85316 45.809C10.424 46.3794 10.8106 47.3163 11.2204 48.3072C11.8109 49.7366 12.4216 51.2139 13.746 51.9804C14.3674 52.3401 15.1206 52.5148 16.0485 52.5148C16.7388 52.5148 17.4526 52.421 18.1434 52.3315C18.8156 52.2437 19.4507 52.1615 20.0408 52.1615C20.4304 52.1615 20.7563 52.1984 21.0385 52.2733C21.79 52.475 22.5775 53.0813 23.4116 53.7228C24.6505 54.6764 25.9312 55.6622 27.4998 55.6622C29.0683 55.6622 30.3487 54.676 31.5871 53.7228C32.4208 53.0813 33.2087 52.475 33.9607 52.2741C34.2424 52.1984 34.5696 52.1619 34.9592 52.1619C35.5489 52.1619 36.1835 52.2437 36.8554 52.3315C37.5461 52.4219 38.2603 52.5148 38.9498 52.5148C39.8781 52.5148 40.6318 52.3401 41.2522 51.9804C42.5771 51.2143 43.1878 49.7366 43.7787 48.3072C44.1885 47.3163 44.5756 46.3794 45.146 45.809C45.7172 45.2386 46.6537 44.8515 47.645 44.4417C49.0744 43.8512 50.5513 43.2402 51.3182 41.9165C52.0719 40.6131 51.8668 39.0398 51.6689 37.5184C51.5293 36.4419 51.3957 35.4249 51.6098 34.6228C51.812 33.8713 52.4179 33.0838 53.0598 32.2501ZM49.9736 34.1856C49.673 35.3114 49.8336 36.5451 49.9882 37.7376C50.1578 39.0351 50.3171 40.2611 49.8516 41.0665C49.3737 41.8926 48.2193 42.3692 46.9984 42.8745C45.8971 43.3296 44.758 43.8002 43.9483 44.6104C43.1381 45.4206 42.6679 46.5592 42.2119 47.6602C41.7066 48.8814 41.23 50.0359 40.4035 50.5129C40.0421 50.7219 39.5805 50.8195 38.9493 50.8195C38.3695 50.8195 37.7413 50.7373 37.0742 50.6508C36.3783 50.5596 35.6594 50.4662 34.9597 50.4662C34.4201 50.4662 33.9499 50.5219 33.5234 50.6358C32.4435 50.9244 31.4822 51.6639 30.5529 52.3791C29.4918 53.1952 28.4907 53.966 27.4998 53.966C26.5085 53.966 25.5065 53.1952 24.4458 52.3791C23.5166 51.6635 22.5552 50.9244 21.4761 50.6358C21.0492 50.521 20.5799 50.4662 20.0403 50.4662C19.3398 50.4662 18.6199 50.56 17.9237 50.6504C17.2574 50.7377 16.6279 50.8195 16.0481 50.8195C15.4174 50.8195 14.9557 50.7223 14.5948 50.5133C13.7683 50.0354 13.2917 48.8818 12.7868 47.6606C12.3317 46.5597 11.861 45.421 11.0513 44.6104C10.2411 43.8007 9.10251 43.3301 8.00114 42.874C6.77988 42.3696 5.62628 41.893 5.14797 41.0661C4.68207 40.2606 4.84137 39.0347 5.01051 37.7372C5.16638 36.5455 5.32653 35.3127 5.0255 34.186C4.73688 33.1057 3.99736 32.1447 3.28225 31.2155C2.46565 30.1548 1.69486 29.1533 1.69486 28.1619C1.69486 27.1706 2.46607 26.169 3.28225 25.1084C3.99736 24.1787 4.73688 23.2178 5.0255 22.1383C5.32653 21.0121 5.16638 19.7788 5.01094 18.5867C4.8418 17.2888 4.6825 16.0632 5.1484 15.2573C5.62671 14.4313 6.78031 13.9543 8.00157 13.4494C9.10251 12.9942 10.2416 12.5236 11.0513 11.7135C11.861 10.9037 12.3317 9.76509 12.7868 8.66373C13.2917 7.44247 13.7683 6.28843 14.5948 5.81055C14.9562 5.60158 15.4178 5.50438 16.0485 5.50438C16.6288 5.50438 17.2578 5.58617 17.9241 5.67309C18.62 5.76388 19.3398 5.85765 20.0399 5.85765C20.5794 5.85765 21.0488 5.80241 21.4757 5.68808C22.5552 5.39947 23.5161 4.65994 24.4453 3.94483C25.5065 3.12866 26.5085 2.35745 27.4994 2.35745C28.4907 2.35745 29.4923 3.12866 30.5529 3.94483C31.4822 4.65994 32.4439 5.39947 33.5234 5.68808C33.9508 5.80241 34.4206 5.85765 34.9597 5.85765C35.6589 5.85765 36.3792 5.76388 37.075 5.67352C37.7413 5.5866 38.37 5.50481 38.9502 5.50481C39.5814 5.50481 40.043 5.60201 40.4035 5.81098C41.2304 6.28929 41.7074 7.4429 42.2127 8.66459C42.6679 9.76595 43.1385 10.9046 43.9483 11.7143C44.7589 12.5241 45.8971 12.9947 46.9984 13.4499C48.2197 13.9547 49.3729 14.4317 49.8512 15.2578C50.3171 16.0632 50.1582 17.2892 49.9891 18.5871C49.8336 19.7797 49.673 21.0129 49.9741 22.1387C50.2627 23.2182 51.0018 24.1791 51.7169 25.1084C52.5331 26.169 53.3043 27.1706 53.3043 28.1619C53.3043 29.1528 52.5331 30.1548 51.7169 31.216C51.0018 32.1447 50.2627 33.1061 49.9736 34.1856Z"/>
	</symbol>
	<symbol id="star-active">
		<path fill="#FFDE30" d="M13.0489 0.927047C13.3483 0.00573683 14.6517 0.00573993 14.9511 0.927051L17.3677 8.36475C17.5016 8.77677 17.8855 9.05573 18.3188 9.05573H26.1392C27.1079 9.05573 27.5107 10.2953 26.727 10.8647L20.4001 15.4615C20.0496 15.7161 19.903 16.1675 20.0369 16.5795L22.4535 24.0172C22.7529 24.9385 21.6984 25.7047 20.9147 25.1353L14.5878 20.5385C14.2373 20.2839 13.7627 20.2839 13.4122 20.5385L7.08533 25.1353C6.30162 25.7047 5.24714 24.9385 5.54649 24.0172L7.96315 16.5795C8.09702 16.1675 7.95036 15.7161 7.59987 15.4615L1.27299 10.8647C0.489277 10.2953 0.892056 9.05573 1.86078 9.05573H9.68123C10.1145 9.05573 10.4984 8.77677 10.6323 8.36475L13.0489 0.927047Z"/>
	</symbol>
	<symbol id="owl-carousel-right">
		<path fill="black" d="M17.7189 16.1659L4.37081 29.5171C3.72704 30.161 2.68334 30.161 2.03964 29.5171L0.482807 27.9599C-0.159858 27.317 -0.161094 26.2752 0.48006 25.6309L11.0587 15L0.48006 4.36911C-0.161094 3.72478 -0.159858 2.68296 0.482807 2.04014L2.03964 0.482938C2.68341 -0.160979 3.72711 -0.160979 4.37081 0.482938L17.7188 13.8341C18.3626 14.478 18.3626 15.5219 17.7189 16.1659Z"/>
	</symbol>
	<symbol id="star-not-active">
		<path fill="#C2C2C2" d="M13.0489 0.927047C13.3483 0.00573683 14.6517 0.00573993 14.9511 0.927051L17.3677 8.36475C17.5016 8.77677 17.8855 9.05573 18.3188 9.05573H26.1392C27.1079 9.05573 27.5107 10.2953 26.727 10.8647L20.4001 15.4615C20.0496 15.7161 19.903 16.1675 20.0369 16.5795L22.4535 24.0172C22.7529 24.9385 21.6984 25.7047 20.9147 25.1353L14.5878 20.5385C14.2373 20.2839 13.7627 20.2839 13.4122 20.5385L7.08533 25.1353C6.30162 25.7047 5.24714 24.9385 5.54649 24.0172L7.96315 16.5795C8.09702 16.1675 7.95036 15.7161 7.59987 15.4615L1.27299 10.8647C0.489277 10.2953 0.892056 9.05573 1.86078 9.05573H9.68123C10.1145 9.05573 10.4984 8.77677 10.6323 8.36475L13.0489 0.927047Z"/>
	</symbol>
	<symbol id="phone">
		<path fill="#afafaf" d="M14.6085 11.9101C14.551 11.8457 14.0261 11.2832 13.2456 11.2832C12.7761 11.2832 12.3302 11.4819 11.8927 11.9019C11.3334 12.4386 10.7554 12.9943 10.1231 12.9943C9.69011 12.9943 9.23039 12.738 8.71964 12.2113C8.38143 11.8611 7.76658 11.1721 7.4547 10.7947C6.2493 9.32764 6.77463 8.48753 7.75524 7.20741C8.65402 6.03253 8.22832 4.76465 7.74673 4.22621C7.69651 4.16315 6.51095 2.68071 5.93296 2.0334C5.57005 1.6274 5.05848 1.16108 4.31847 1.16108C3.76114 1.16108 3.18396 1.42826 2.55371 1.97715C1.99071 2.4657 1.33616 3.30671 0.608713 4.47797C0.522034 4.61768 0.485176 4.7887 0.505428 4.95699C0.967578 8.81867 2.4237 12.2177 4.71582 14.7843L5.1565 15.2778C7.44822 17.8444 10.4824 19.4747 13.9321 19.9937C13.9584 19.9977 13.986 20 14.0123 20C14.1362 20 14.2569 19.9578 14.359 19.8775C15.4048 19.0615 16.1566 18.3289 16.5908 17.7006C17.8978 15.8199 17.1882 14.6395 16.541 13.9147C15.9634 13.2678 14.6401 11.94 14.6085 11.9101ZM15.6312 16.8664C15.3015 17.3431 14.6915 17.9419 13.8588 18.6083C10.774 18.0921 8.0659 16.6119 6.01559 14.3157L5.57491 13.8217C3.52419 11.5254 2.20254 8.49252 1.74242 5.03773C2.3358 4.10645 2.87127 3.42284 3.29818 3.05132C3.70241 2.69977 4.04548 2.52104 4.31847 2.52104C4.55421 2.52104 4.77293 2.65849 5.07347 2.99507C5.62756 3.61563 6.82851 5.11803 6.85767 5.15386C6.99417 5.31671 7.26514 5.75536 6.80825 6.35233C5.9682 7.44919 4.56231 9.28454 6.56077 11.7169C6.89574 12.1233 7.53165 12.835 7.89538 13.2115C8.64187 13.9804 9.37053 14.3547 10.1231 14.3547C11.205 14.3547 12.0248 13.5676 12.7125 12.9076C12.8972 12.7298 13.0718 12.6441 13.2447 12.6441C13.5287 12.6441 13.7531 12.8768 13.7737 12.8985C13.7871 12.9117 15.1286 14.2567 15.6823 14.8772C16.0496 15.2887 16.4304 15.7155 15.6312 16.8664ZM9.89304 4.50745C10.8858 4.89893 11.77 5.52402 12.5205 6.36503C13.2719 7.20605 13.8296 8.19585 14.1788 9.30722C14.2667 9.58666 14.5012 9.76175 14.7519 9.76175C14.8187 9.76175 14.8868 9.74905 14.9536 9.7232C15.2695 9.5989 15.4356 9.21015 15.325 8.85542C14.9151 7.5508 14.2606 6.38907 13.3796 5.4029C12.4991 4.41673 11.4622 3.68367 10.2965 3.2237C9.97931 3.09941 9.63219 3.28539 9.52162 3.63967C9.41023 3.99395 9.57711 4.3827 9.89304 4.50745ZM18.1684 7.65604C17.6042 5.89463 16.7159 4.32691 15.5284 2.99689C14.34 1.66687 12.9406 0.672531 11.3686 0.0401818C11.0506 -0.0868323 10.7039 0.0973382 10.5909 0.45071C10.4779 0.804535 10.6424 1.1942 10.9575 1.32121C12.3605 1.88461 13.6089 2.77189 14.6685 3.95857C15.728 5.14524 16.5203 6.54376 17.023 8.11511C17.1125 8.39272 17.3458 8.56555 17.5949 8.56555C17.6629 8.56555 17.7326 8.5524 17.8014 8.52654C18.1178 8.39953 18.2814 8.00987 18.1684 7.65604Z"/>
	</symbol>
	<symbol id="user">
		<path fill="#afafaf" d="M10.6212 13.4628C13.5674 13.4628 15.9643 10.6727 15.9643 7.24363C15.9643 5.57559 15.9643 0.5 10.6212 0.5C5.27815 0.5 5.27815 5.57559 5.27815 7.24363C5.27815 10.6727 7.6751 13.4628 10.6212 13.4628ZM10.6212 2.0766C13.3314 2.0766 14.3877 3.52549 14.3877 7.24363C14.3877 9.8035 12.6981 11.8862 10.6212 11.8862C8.54433 11.8862 6.85474 9.8035 6.85474 7.24363C6.85474 3.52549 7.91106 2.0766 10.6212 2.0766ZM16.6475 15.6164C15.6916 15.258 14.8843 14.353 14.6589 14.084C14.3798 13.7508 13.8843 13.705 13.549 13.9846C13.2147 14.2637 13.1701 14.7608 13.4496 15.0951C13.818 15.5355 14.8139 16.6139 16.0957 17.0932C16.9229 17.4032 19.5075 18.6035 19.6614 21.5092C16.8183 22.4483 13.7813 22.9234 10.6228 22.9234C7.46488 22.9234 4.42731 22.4483 1.58418 21.5092C1.73764 18.6062 4.31958 17.4032 5.14413 17.0937C6.43326 16.6112 7.4281 15.5355 7.79597 15.0951C8.07555 14.7608 8.03088 14.2637 7.69664 13.9846C7.36188 13.705 6.86525 13.7508 6.58619 14.084C6.36179 14.352 5.5551 15.2554 4.59128 15.6164C3.46453 16.0395 -0.194744 17.7595 0.00811088 22.1088C0.0228258 22.4294 0.230411 22.709 0.532592 22.8157C3.69524 23.9335 7.09018 24.5 10.6228 24.5C14.156 24.5 17.5504 23.9335 20.7125 22.8157C21.0142 22.709 21.2217 22.4299 21.237 22.1088C21.4388 17.7548 17.7758 16.0379 16.6475 15.6164Z"/>
	</symbol>
	<symbol id="message">
		<path d="M2.89844 2.51953C4.65625 1.08984 6.77734 0.375 9.26172 0.375C11.7461 0.375 13.8672 1.08984 15.625 2.51953C17.3828 3.94922 18.2617 5.67188 18.2617 7.6875C18.2617 9.70312 17.3828 11.4258 15.625 12.8555C13.8672 14.2852 11.7461 15 9.26172 15C8.16016 15 7.07031 14.8359 5.99219 14.5078C4.46875 15.5859 2.83984 16.125 1.10547 16.125C0.730469 16.125 0.472656 15.9492 0.332031 15.5977C0.191406 15.2695 0.238281 14.9766 0.472656 14.7188C0.519531 14.6719 0.625 14.5547 0.789062 14.3672C0.976562 14.1562 1.19922 13.8398 1.45703 13.418C1.73828 12.9727 1.96094 12.5391 2.125 12.1172C0.882813 10.8047 0.261719 9.32812 0.261719 7.6875C0.261719 5.67188 1.14062 3.94922 2.89844 2.51953ZM9.26172 13.3125C11.2773 13.3125 13 12.7617 14.4297 11.6602C15.8594 10.5586 16.5742 9.23438 16.5742 7.6875C16.5742 6.14062 15.8594 4.81641 14.4297 3.71484C13 2.61328 11.2773 2.0625 9.26172 2.0625C7.24609 2.0625 5.52344 2.61328 4.09375 3.71484C2.66406 4.81641 1.94922 6.14062 1.94922 7.6875C1.94922 8.88281 2.41797 9.97266 3.35547 10.957L4.05859 11.7305L3.70703 12.7148C3.51953 13.1836 3.28516 13.6641 3.00391 14.1562C3.70703 13.9219 4.375 13.5703 5.00781 13.1016L5.71094 12.6445L6.51953 12.8906C7.41016 13.1719 8.32422 13.3125 9.26172 13.3125Z" fill="#C9C9C9"/>
	</symbol>
	<symbol id="menu-icon">
		<path fill="black" d="M0.837891 3.28436V1.51464C0.837891 1.12366 1.31644 0.806747 1.90683 0.806747H22.6126C23.203 0.806747 23.6815 1.12366 23.6815 1.51464V3.28436C23.6815 3.67533 23.203 3.99225 22.6126 3.99225H1.90683C1.31644 3.99225 0.837891 3.67533 0.837891 3.28436ZM1.90683 13.9511H22.6126C23.203 13.9511 23.6815 13.6342 23.6815 13.2432V11.4735C23.6815 11.0826 23.203 10.7656 22.6126 10.7656H1.90683C1.31644 10.7656 0.837891 11.0826 0.837891 11.4735V13.2432C0.837891 13.6342 1.31644 13.9511 1.90683 13.9511ZM1.90683 23.91H22.6126C23.203 23.91 23.6815 23.5931 23.6815 23.2021V21.4324C23.6815 21.0414 23.203 20.7245 22.6126 20.7245H1.90683C1.31644 20.7245 0.837891 21.0414 0.837891 21.4324V23.2021C0.837891 23.5931 1.31644 23.91 1.90683 23.91Z"/>
	</symbol>
	<symbol id="calculater">
		<path fill-rule="evenodd" d="M0.65918 2.65892C0.65918 1.19035 1.8497 -0.000167847 3.31827 -0.000167847H19.6819C21.1505 -0.000167847 22.341 1.19035 22.341 2.65892V27.2044C22.341 28.673 21.1505 29.8635 19.6819 29.8635H3.31827C1.8497 29.8635 0.65918 28.673 0.65918 27.2044V2.65892ZM3.31827 1.2271C2.5275 1.2271 1.88645 1.86815 1.88645 2.65892V27.2044C1.88645 27.9951 2.5275 28.6362 3.31827 28.6362H19.6819C20.4727 28.6362 21.1137 27.9951 21.1137 27.2044V2.65892C21.1137 1.86815 20.4727 1.2271 19.6819 1.2271H3.31827ZM4.23873 3.83506H18.7615V10.0481H4.23873V3.83506ZM5.466 5.06233V8.82086H17.5342V5.06233H5.466ZM4.23873 11.5055H18.7615V26.0282H4.23873V11.5055ZM5.466 12.7328V15.9416L8.62367 15.9416V12.7328H5.466ZM9.85094 12.7328V15.9416H13.0981V12.7328H9.85094ZM14.3254 12.7328V15.9416L17.5342 15.9416V12.7328H14.3254ZM17.5342 17.1689H14.3254V24.801H17.5342V17.1689ZM13.0981 24.801V21.5794H9.85094V24.801H13.0981ZM8.62367 24.801V21.5794H5.466V24.801H8.62367ZM5.466 20.3521H8.62367V17.1689H5.466V20.3521ZM9.85094 17.1689V20.3521H13.0981V17.1689L9.85094 17.1689Z" clip-rule="evenodd"/>
	</symbol>
    <symbol id="vector-arrow-next">
		<path d="M4.72553 4.3109L1.16604 7.87122C0.994367 8.04293 0.716045 8.04293 0.544393 7.87122L0.129237 7.45596C-0.0421406 7.28454 -0.0424702 7.00672 0.128504 6.8349L2.94947 3.99999L0.128504 1.1651C-0.0424702 0.993275 -0.0421406 0.715456 0.129237 0.544038L0.544393 0.128783C0.716064 -0.0429278 0.994385 -0.0429278 1.16604 0.128783L4.72551 3.6891C4.89719 3.8608 4.89719 4.13918 4.72553 4.3109Z" fill="#17A1E3" />
	</symbol>
	<symbol id="vector-arrow-prew">
		<path d="M0.132615 4.3109L3.79934 7.87122C3.97618 8.04293 4.26289 8.04293 4.43971 7.87122L4.86737 7.45596C5.04391 7.28454 5.04425 7.00672 4.86813 6.8349L1.96218 3.99999L4.86813 1.1651C5.04425 0.993275 5.04391 0.715456 4.86737 0.544038L4.43971 0.128783C4.26287 -0.0429278 3.97616 -0.0429278 3.79934 0.128783L0.132634 3.6891C-0.044208 3.8608 -0.044208 4.13918 0.132615 4.3109Z" fill="#17A1E3" />
	</symbol>
	<symbol id="plus" viewBox="0 0 21 22">
		<path d="M12.7444 8.50267H19.3735C19.7713 8.50267 20.1138 8.6463 20.401 8.93356C20.6883 9.22083 20.843 9.57438 20.8651 9.99422V11.4526C20.843 11.8725 20.6883 12.226 20.401 12.5133C20.1138 12.8006 19.7713 12.9442 19.3735 12.9442H12.7444V19.5733C12.7444 19.9711 12.6008 20.3136 12.3135 20.6008C12.0262 20.8881 11.6727 21.0428 11.2528 21.0649H9.79443C9.37458 21.0428 9.02103 20.8881 8.73377 20.6008C8.4465 20.3136 8.30287 19.9711 8.30287 19.5733V12.9442H1.67375C1.276 12.9442 0.933495 12.8006 0.646233 12.5133C0.358971 12.226 0.204291 11.8725 0.182194 11.4526V9.99422C0.204291 9.57438 0.358971 9.22083 0.646233 8.93356C0.933495 8.6463 1.276 8.50267 1.67375 8.50267H8.30287V1.87354C8.30287 1.4758 8.4465 1.13329 8.73377 0.84603C9.02103 0.558767 9.37458 0.404088 9.79443 0.381991H11.2528C11.6727 0.404088 12.0262 0.558767 12.3135 0.84603C12.6008 1.13329 12.7444 1.4758 12.7444 1.87354V8.50267Z" />
	</symbol>
	<symbol id="del" viewBox="0 0 7 8">
		<path d="M4.76562 4.25L6.71875 6.20312C6.83594 6.32031 6.89453 6.46354 6.89453 6.63281C6.89453 6.80208 6.83594 6.95182 6.71875 7.08203L6.28906 7.51172C6.15885 7.62891 6.00911 7.6875 5.83984 7.6875C5.67057 7.6875 5.52734 7.62891 5.41016 7.51172L3.45703 5.55859L1.50391 7.51172C1.38672 7.62891 1.24349 7.6875 1.07422 7.6875C0.904948 7.6875 0.755208 7.62891 0.625 7.51172L0.195312 7.08203C0.078125 6.95182 0.0195312 6.80208 0.0195312 6.63281C0.0195312 6.46354 0.078125 6.32031 0.195312 6.20312L2.14844 4.25L0.195312 2.29688C0.078125 2.17969 0.0195312 2.03646 0.0195312 1.86719C0.0195312 1.69792 0.078125 1.54818 0.195312 1.41797L0.625 0.988281C0.755208 0.871094 0.904948 0.8125 1.07422 0.8125C1.24349 0.8125 1.38672 0.871094 1.50391 0.988281L3.45703 2.94141L5.41016 0.988281C5.52734 0.871094 5.67057 0.8125 5.83984 0.8125C6.00911 0.8125 6.15885 0.871094 6.28906 0.988281L6.71875 1.41797C6.83594 1.54818 6.89453 1.69792 6.89453 1.86719C6.89453 2.03646 6.83594 2.17969 6.71875 2.29688L4.76562 4.25Z" />
	</symbol>
	<symbol id="setting" viewBox="0 0 9 9">
		<path d="M8.56055 5.67969C8.66602 5.72656 8.70117 5.80859 8.66602 5.92578C8.4668 6.54688 8.14453 7.09766 7.69922 7.57812C7.62891 7.66016 7.54688 7.67773 7.45312 7.63086L6.69727 7.19141C6.38086 7.46094 6.02344 7.66602 5.625 7.80664V8.66797C5.625 8.78516 5.57227 8.85547 5.4668 8.87891C4.82227 9.01953 4.18359 9.01953 3.55078 8.87891C3.43359 8.85547 3.375 8.78516 3.375 8.66797V7.80664C2.97656 7.66602 2.61914 7.46094 2.30273 7.19141L1.56445 7.63086C1.45898 7.67773 1.37109 7.66016 1.30078 7.57812C0.855469 7.09766 0.533203 6.54688 0.333984 5.92578C0.298828 5.82031 0.333984 5.73828 0.439453 5.67969L1.17773 5.24023C1.14258 5.04102 1.125 4.83594 1.125 4.625C1.125 4.41406 1.14258 4.20898 1.17773 4.00977L0.439453 3.57031C0.333984 3.52344 0.298828 3.44141 0.333984 3.32422C0.533203 2.70313 0.855469 2.15234 1.30078 1.67188C1.37109 1.58984 1.45898 1.57813 1.56445 1.63672L2.30273 2.05859C2.61914 1.78906 2.97656 1.58398 3.375 1.44336V0.582031C3.375 0.464844 3.42773 0.394531 3.5332 0.371094C4.17773 0.230469 4.82227 0.230469 5.4668 0.371094C5.57227 0.394531 5.625 0.464844 5.625 0.582031V1.44336C6.02344 1.58398 6.38086 1.78906 6.69727 2.05859L7.43555 1.61914C7.54102 1.57227 7.62891 1.58984 7.69922 1.67188C8.14453 2.15234 8.4668 2.70313 8.66602 3.32422C8.70117 3.44141 8.66602 3.52344 8.56055 3.57031L7.82227 4.00977C7.89258 4.41992 7.89258 4.83008 7.82227 5.24023L8.56055 5.67969ZM3.49805 5.62695C3.7793 5.89648 4.11328 6.03125 4.5 6.03125C4.88672 6.03125 5.21484 5.89648 5.48438 5.62695C5.76562 5.3457 5.90625 5.01172 5.90625 4.625C5.90625 4.23828 5.76562 3.91016 5.48438 3.64062C5.21484 3.35938 4.88672 3.21875 4.5 3.21875C4.11328 3.21875 3.7793 3.35938 3.49805 3.64062C3.22852 3.91016 3.09375 4.23828 3.09375 4.625C3.09375 5.01172 3.22852 5.3457 3.49805 5.62695Z" />
	</symbol>
	<symbol id="copy" viewBox="0 0 7 8">
		<path d="M6.78125 1.03125C6.92708 1.17708 7 1.35417 7 1.5625V5.75C7 5.95833 6.92708 6.13542 6.78125 6.28125C6.63542 6.42708 6.45833 6.5 6.25 6.5H5V7.25C5 7.45833 4.92708 7.63542 4.78125 7.78125C4.63542 7.92708 4.45833 8 4.25 8H0.75C0.541667 8 0.364583 7.92708 0.21875 7.78125C0.0729167 7.63542 0 7.45833 0 7.25V2.25C0 2.04167 0.0729167 1.86458 0.21875 1.71875C0.364583 1.57292 0.541667 1.5 0.75 1.5H2V0.75C2 0.541667 2.07292 0.364583 2.21875 0.21875C2.36458 0.0729167 2.54167 0 2.75 0H5.4375C5.64583 0 5.82292 0.0729167 5.96875 0.21875L6.78125 1.03125ZM4.15625 7.25C4.21875 7.25 4.25 7.21875 4.25 7.15625V6.5H2.75C2.54167 6.5 2.36458 6.42708 2.21875 6.28125C2.07292 6.13542 2 5.95833 2 5.75V2.25H0.84375C0.78125 2.25 0.75 2.28125 0.75 2.34375V7.15625C0.75 7.21875 0.78125 7.25 0.84375 7.25H4.15625ZM6.15625 5.75C6.21875 5.75 6.25 5.71875 6.25 5.65625V2.5H4.875C4.77083 2.5 4.68229 2.46354 4.60938 2.39062C4.53646 2.31771 4.5 2.22917 4.5 2.125V0.75H2.84375C2.78125 0.75 2.75 0.78125 2.75 0.84375V5.65625C2.75 5.71875 2.78125 5.75 2.84375 5.75H6.15625ZM6.25 1.75V1.59375C6.25 1.57292 6.23958 1.55208 6.21875 1.53125L5.46875 0.78125C5.44792 0.760417 5.42708 0.75 5.40625 0.75H5.25V1.75H6.25Z" />
	</symbol>
	<symbol id="check" viewBox="0 0 27 22">
		<path d="M9.1704 21.5677L0.395389 11.9795C-0.131797 11.4035 -0.131797 10.4695 0.395389 9.8934L2.30453 7.80729C2.83172 7.23119 3.68654 7.23119 4.21373 7.80729L10.125 14.2663L22.7863 0.431785C23.3135 -0.144254 24.1683 -0.144254 24.6955 0.431785L26.6046 2.5179C27.1318 3.09394 27.1318 4.02792 26.6046 4.60402L11.0796 21.5677C10.5524 22.1438 9.69758 22.1438 9.1704 21.5677Z"/>
	</symbol>
</svg>