<svg xmlns="http://www.w3.org/2000/svg">
	<symbol id="tick">
		<path fill="black" d="M4.61345 9.20315L0.916576 5.38968C0.694475 5.16057 0.694475 4.7891 0.916576 4.55997L1.72089 3.73027C1.94299 3.50114 2.30313 3.50114 2.52523 3.73027L5.01562 6.29918L10.3498 0.79683C10.5719 0.567723 10.932 0.567723 11.1541 0.79683L11.9584 1.62653C12.1805 1.85564 12.1805 2.22711 11.9584 2.45624L5.41779 9.20317C5.19567 9.43228 4.83556 9.43228 4.61345 9.20315Z" />
	</symbol>
	<symbol id="tick-white">
		<path fill="white" d="M4.61345 9.20315L0.916576 5.38968C0.694475 5.16057 0.694475 4.7891 0.916576 4.55997L1.72089 3.73027C1.94299 3.50114 2.30313 3.50114 2.52523 3.73027L5.01562 6.29918L10.3498 0.79683C10.5719 0.567723 10.932 0.567723 11.1541 0.79683L11.9584 1.62653C12.1805 1.85564 12.1805 2.22711 11.9584 2.45624L5.41779 9.20317C5.19567 9.43228 4.83556 9.43228 4.61345 9.20315Z" />
	</symbol>
	<symbol id="percentages">
		<path fill="white" d="M33.2447 14.9199L20.5251 39.9318L22.0367 40.7004L34.7558 15.6886L33.2447 14.9199ZM24.9558 21.6617C24.9558 18.8569 22.6738 16.5745 19.8686 16.5745C17.0638 16.5745 14.7815 18.8565 14.7815 21.6617C14.7815 24.4665 17.0638 26.7488 19.8686 26.7488C22.6738 26.7488 24.9558 24.4669 24.9558 21.6617ZM19.8686 25.0531C17.9986 25.0531 16.4772 23.5317 16.4772 21.6617C16.4772 19.7917 17.9986 18.2702 19.8686 18.2702C21.7386 18.2702 23.2601 19.7917 23.2601 21.6617C23.2601 23.5317 21.7386 25.0531 19.8686 25.0531ZM35.1305 30.1403C32.3253 30.1403 30.0429 32.4222 30.0429 35.2274C30.0429 38.0327 32.3253 40.3146 35.1305 40.3146C37.9357 40.3146 40.2173 38.0327 40.2173 35.2274C40.2173 32.4222 37.9357 30.1403 35.1305 30.1403ZM35.1305 38.6189C33.2605 38.6189 31.7391 37.0974 31.7391 35.2274C31.7391 33.3574 33.2605 31.836 35.1305 31.836C37.0005 31.836 38.522 33.3574 38.522 35.2274C38.522 37.0974 37.0005 38.6189 35.1305 38.6189ZM53.0598 32.2501C54.013 31.0104 54.9987 29.7301 54.9987 28.1619C54.9987 26.5938 54.0134 25.313 53.0598 24.0742C52.4183 23.2405 51.812 22.4526 51.6107 21.7011C51.3966 20.899 51.5293 19.8829 51.6694 18.8064C51.8672 17.2849 52.0723 15.7121 51.3182 14.4086C50.5513 13.0846 49.0744 12.4735 47.645 11.883C46.6541 11.4737 45.7172 11.0866 45.1468 10.5157C44.5765 9.94494 44.1894 9.00844 43.7796 8.01713C43.1882 6.58818 42.5776 5.10999 41.2531 4.34392C40.6318 3.98423 39.8785 3.80951 38.9506 3.80951C38.2608 3.80951 37.5465 3.90286 36.8562 3.99236C36.1839 4.07972 35.5497 4.16236 34.9592 4.16236C34.5696 4.16236 34.2433 4.12554 33.9615 4.05017C33.2087 3.84934 32.4208 3.24299 31.5871 2.6011C30.3487 1.6479 29.0679 0.662155 27.4998 0.662155C25.9312 0.662155 24.6505 1.64747 23.4116 2.6011C22.5779 3.24299 21.79 3.84934 21.0385 4.05017C20.7563 4.12596 20.4304 4.16236 20.0408 4.16236C19.4503 4.16236 18.8156 4.08014 18.1438 3.99236C17.4531 3.90244 16.7388 3.80951 16.049 3.80951C15.121 3.80951 14.3678 3.98423 13.7465 4.3435C12.422 5.10957 11.8114 6.58776 11.2204 8.0167C10.8111 9.00758 10.424 9.94408 9.85316 10.5149C9.28236 11.0857 8.34586 11.4728 7.35455 11.8826C5.92517 12.4731 4.44741 13.0842 3.68134 14.4086C2.92726 15.7121 3.13194 17.2849 3.32978 18.8059C3.47023 19.882 3.60212 20.8986 3.38802 21.7006C3.18718 22.4522 2.58083 23.2401 1.93894 24.0742C0.985744 25.3126 0 26.5938 0 28.1619C0 29.7301 0.985744 31.0104 1.93894 32.2497C2.58083 33.083 3.18718 33.8713 3.38802 34.6237C3.60212 35.4248 3.47023 36.4419 3.32978 37.518C3.13194 39.039 2.92726 40.6122 3.68134 41.9153C4.44741 43.2393 5.92517 43.8508 7.35412 44.4409C8.34543 44.8507 9.28236 45.2378 9.85316 45.809C10.424 46.3794 10.8106 47.3163 11.2204 48.3072C11.8109 49.7366 12.4216 51.2139 13.746 51.9804C14.3674 52.3401 15.1206 52.5148 16.0485 52.5148C16.7388 52.5148 17.4526 52.421 18.1434 52.3315C18.8156 52.2437 19.4507 52.1615 20.0408 52.1615C20.4304 52.1615 20.7563 52.1984 21.0385 52.2733C21.79 52.475 22.5775 53.0813 23.4116 53.7228C24.6505 54.6764 25.9312 55.6622 27.4998 55.6622C29.0683 55.6622 30.3487 54.676 31.5871 53.7228C32.4208 53.0813 33.2087 52.475 33.9607 52.2741C34.2424 52.1984 34.5696 52.1619 34.9592 52.1619C35.5489 52.1619 36.1835 52.2437 36.8554 52.3315C37.5461 52.4219 38.2603 52.5148 38.9498 52.5148C39.8781 52.5148 40.6318 52.3401 41.2522 51.9804C42.5771 51.2143 43.1878 49.7366 43.7787 48.3072C44.1885 47.3163 44.5756 46.3794 45.146 45.809C45.7172 45.2386 46.6537 44.8515 47.645 44.4417C49.0744 43.8512 50.5513 43.2402 51.3182 41.9165C52.0719 40.6131 51.8668 39.0398 51.6689 37.5184C51.5293 36.4419 51.3957 35.4249 51.6098 34.6228C51.812 33.8713 52.4179 33.0838 53.0598 32.2501ZM49.9736 34.1856C49.673 35.3114 49.8336 36.5451 49.9882 37.7376C50.1578 39.0351 50.3171 40.2611 49.8516 41.0665C49.3737 41.8926 48.2193 42.3692 46.9984 42.8745C45.8971 43.3296 44.758 43.8002 43.9483 44.6104C43.1381 45.4206 42.6679 46.5592 42.2119 47.6602C41.7066 48.8814 41.23 50.0359 40.4035 50.5129C40.0421 50.7219 39.5805 50.8195 38.9493 50.8195C38.3695 50.8195 37.7413 50.7373 37.0742 50.6508C36.3783 50.5596 35.6594 50.4662 34.9597 50.4662C34.4201 50.4662 33.9499 50.5219 33.5234 50.6358C32.4435 50.9244 31.4822 51.6639 30.5529 52.3791C29.4918 53.1952 28.4907 53.966 27.4998 53.966C26.5085 53.966 25.5065 53.1952 24.4458 52.3791C23.5166 51.6635 22.5552 50.9244 21.4761 50.6358C21.0492 50.521 20.5799 50.4662 20.0403 50.4662C19.3398 50.4662 18.6199 50.56 17.9237 50.6504C17.2574 50.7377 16.6279 50.8195 16.0481 50.8195C15.4174 50.8195 14.9557 50.7223 14.5948 50.5133C13.7683 50.0354 13.2917 48.8818 12.7868 47.6606C12.3317 46.5597 11.861 45.421 11.0513 44.6104C10.2411 43.8007 9.10251 43.3301 8.00114 42.874C6.77988 42.3696 5.62628 41.893 5.14797 41.0661C4.68207 40.2606 4.84137 39.0347 5.01051 37.7372C5.16638 36.5455 5.32653 35.3127 5.0255 34.186C4.73688 33.1057 3.99736 32.1447 3.28225 31.2155C2.46565 30.1548 1.69486 29.1533 1.69486 28.1619C1.69486 27.1706 2.46607 26.169 3.28225 25.1084C3.99736 24.1787 4.73688 23.2178 5.0255 22.1383C5.32653 21.0121 5.16638 19.7788 5.01094 18.5867C4.8418 17.2888 4.6825 16.0632 5.1484 15.2573C5.62671 14.4313 6.78031 13.9543 8.00157 13.4494C9.10251 12.9942 10.2416 12.5236 11.0513 11.7135C11.861 10.9037 12.3317 9.76509 12.7868 8.66373C13.2917 7.44247 13.7683 6.28843 14.5948 5.81055C14.9562 5.60158 15.4178 5.50438 16.0485 5.50438C16.6288 5.50438 17.2578 5.58617 17.9241 5.67309C18.62 5.76388 19.3398 5.85765 20.0399 5.85765C20.5794 5.85765 21.0488 5.80241 21.4757 5.68808C22.5552 5.39947 23.5161 4.65994 24.4453 3.94483C25.5065 3.12866 26.5085 2.35745 27.4994 2.35745C28.4907 2.35745 29.4923 3.12866 30.5529 3.94483C31.4822 4.65994 32.4439 5.39947 33.5234 5.68808C33.9508 5.80241 34.4206 5.85765 34.9597 5.85765C35.6589 5.85765 36.3792 5.76388 37.075 5.67352C37.7413 5.5866 38.37 5.50481 38.9502 5.50481C39.5814 5.50481 40.043 5.60201 40.4035 5.81098C41.2304 6.28929 41.7074 7.4429 42.2127 8.66459C42.6679 9.76595 43.1385 10.9046 43.9483 11.7143C44.7589 12.5241 45.8971 12.9947 46.9984 13.4499C48.2197 13.9547 49.3729 14.4317 49.8512 15.2578C50.3171 16.0632 50.1582 17.2892 49.9891 18.5871C49.8336 19.7797 49.673 21.0129 49.9741 22.1387C50.2627 23.2182 51.0018 24.1791 51.7169 25.1084C52.5331 26.169 53.3043 27.1706 53.3043 28.1619C53.3043 29.1528 52.5331 30.1548 51.7169 31.216C51.0018 32.1447 50.2627 33.1061 49.9736 34.1856Z" />
	</symbol>
	<symbol id="star-active">
		<path fill="#FFDE30" d="M13.0489 0.927047C13.3483 0.00573683 14.6517 0.00573993 14.9511 0.927051L17.3677 8.36475C17.5016 8.77677 17.8855 9.05573 18.3188 9.05573H26.1392C27.1079 9.05573 27.5107 10.2953 26.727 10.8647L20.4001 15.4615C20.0496 15.7161 19.903 16.1675 20.0369 16.5795L22.4535 24.0172C22.7529 24.9385 21.6984 25.7047 20.9147 25.1353L14.5878 20.5385C14.2373 20.2839 13.7627 20.2839 13.4122 20.5385L7.08533 25.1353C6.30162 25.7047 5.24714 24.9385 5.54649 24.0172L7.96315 16.5795C8.09702 16.1675 7.95036 15.7161 7.59987 15.4615L1.27299 10.8647C0.489277 10.2953 0.892056 9.05573 1.86078 9.05573H9.68123C10.1145 9.05573 10.4984 8.77677 10.6323 8.36475L13.0489 0.927047Z" />
	</symbol>
	<symbol id="owl-carousel-right">
		<path fill="black" d="M17.7189 16.1659L4.37081 29.5171C3.72704 30.161 2.68334 30.161 2.03964 29.5171L0.482807 27.9599C-0.159858 27.317 -0.161094 26.2752 0.48006 25.6309L11.0587 15L0.48006 4.36911C-0.161094 3.72478 -0.159858 2.68296 0.482807 2.04014L2.03964 0.482938C2.68341 -0.160979 3.72711 -0.160979 4.37081 0.482938L17.7188 13.8341C18.3626 14.478 18.3626 15.5219 17.7189 16.1659Z" />
	</symbol>
	<symbol id="star-not-active">
		<path fill="#C2C2C2" d="M13.0489 0.927047C13.3483 0.00573683 14.6517 0.00573993 14.9511 0.927051L17.3677 8.36475C17.5016 8.77677 17.8855 9.05573 18.3188 9.05573H26.1392C27.1079 9.05573 27.5107 10.2953 26.727 10.8647L20.4001 15.4615C20.0496 15.7161 19.903 16.1675 20.0369 16.5795L22.4535 24.0172C22.7529 24.9385 21.6984 25.7047 20.9147 25.1353L14.5878 20.5385C14.2373 20.2839 13.7627 20.2839 13.4122 20.5385L7.08533 25.1353C6.30162 25.7047 5.24714 24.9385 5.54649 24.0172L7.96315 16.5795C8.09702 16.1675 7.95036 15.7161 7.59987 15.4615L1.27299 10.8647C0.489277 10.2953 0.892056 9.05573 1.86078 9.05573H9.68123C10.1145 9.05573 10.4984 8.77677 10.6323 8.36475L13.0489 0.927047Z" />
	</symbol>
	<symbol id="phone">
		<path fill="#afafaf" d="M14.6085 11.9101C14.551 11.8457 14.0261 11.2832 13.2456 11.2832C12.7761 11.2832 12.3302 11.4819 11.8927 11.9019C11.3334 12.4386 10.7554 12.9943 10.1231 12.9943C9.69011 12.9943 9.23039 12.738 8.71964 12.2113C8.38143 11.8611 7.76658 11.1721 7.4547 10.7947C6.2493 9.32764 6.77463 8.48753 7.75524 7.20741C8.65402 6.03253 8.22832 4.76465 7.74673 4.22621C7.69651 4.16315 6.51095 2.68071 5.93296 2.0334C5.57005 1.6274 5.05848 1.16108 4.31847 1.16108C3.76114 1.16108 3.18396 1.42826 2.55371 1.97715C1.99071 2.4657 1.33616 3.30671 0.608713 4.47797C0.522034 4.61768 0.485176 4.7887 0.505428 4.95699C0.967578 8.81867 2.4237 12.2177 4.71582 14.7843L5.1565 15.2778C7.44822 17.8444 10.4824 19.4747 13.9321 19.9937C13.9584 19.9977 13.986 20 14.0123 20C14.1362 20 14.2569 19.9578 14.359 19.8775C15.4048 19.0615 16.1566 18.3289 16.5908 17.7006C17.8978 15.8199 17.1882 14.6395 16.541 13.9147C15.9634 13.2678 14.6401 11.94 14.6085 11.9101ZM15.6312 16.8664C15.3015 17.3431 14.6915 17.9419 13.8588 18.6083C10.774 18.0921 8.0659 16.6119 6.01559 14.3157L5.57491 13.8217C3.52419 11.5254 2.20254 8.49252 1.74242 5.03773C2.3358 4.10645 2.87127 3.42284 3.29818 3.05132C3.70241 2.69977 4.04548 2.52104 4.31847 2.52104C4.55421 2.52104 4.77293 2.65849 5.07347 2.99507C5.62756 3.61563 6.82851 5.11803 6.85767 5.15386C6.99417 5.31671 7.26514 5.75536 6.80825 6.35233C5.9682 7.44919 4.56231 9.28454 6.56077 11.7169C6.89574 12.1233 7.53165 12.835 7.89538 13.2115C8.64187 13.9804 9.37053 14.3547 10.1231 14.3547C11.205 14.3547 12.0248 13.5676 12.7125 12.9076C12.8972 12.7298 13.0718 12.6441 13.2447 12.6441C13.5287 12.6441 13.7531 12.8768 13.7737 12.8985C13.7871 12.9117 15.1286 14.2567 15.6823 14.8772C16.0496 15.2887 16.4304 15.7155 15.6312 16.8664ZM9.89304 4.50745C10.8858 4.89893 11.77 5.52402 12.5205 6.36503C13.2719 7.20605 13.8296 8.19585 14.1788 9.30722C14.2667 9.58666 14.5012 9.76175 14.7519 9.76175C14.8187 9.76175 14.8868 9.74905 14.9536 9.7232C15.2695 9.5989 15.4356 9.21015 15.325 8.85542C14.9151 7.5508 14.2606 6.38907 13.3796 5.4029C12.4991 4.41673 11.4622 3.68367 10.2965 3.2237C9.97931 3.09941 9.63219 3.28539 9.52162 3.63967C9.41023 3.99395 9.57711 4.3827 9.89304 4.50745ZM18.1684 7.65604C17.6042 5.89463 16.7159 4.32691 15.5284 2.99689C14.34 1.66687 12.9406 0.672531 11.3686 0.0401818C11.0506 -0.0868323 10.7039 0.0973382 10.5909 0.45071C10.4779 0.804535 10.6424 1.1942 10.9575 1.32121C12.3605 1.88461 13.6089 2.77189 14.6685 3.95857C15.728 5.14524 16.5203 6.54376 17.023 8.11511C17.1125 8.39272 17.3458 8.56555 17.5949 8.56555C17.6629 8.56555 17.7326 8.5524 17.8014 8.52654C18.1178 8.39953 18.2814 8.00987 18.1684 7.65604Z" />
	</symbol>
	<symbol id="user">
		<path fill="#afafaf" d="M10.6212 13.4628C13.5674 13.4628 15.9643 10.6727 15.9643 7.24363C15.9643 5.57559 15.9643 0.5 10.6212 0.5C5.27815 0.5 5.27815 5.57559 5.27815 7.24363C5.27815 10.6727 7.6751 13.4628 10.6212 13.4628ZM10.6212 2.0766C13.3314 2.0766 14.3877 3.52549 14.3877 7.24363C14.3877 9.8035 12.6981 11.8862 10.6212 11.8862C8.54433 11.8862 6.85474 9.8035 6.85474 7.24363C6.85474 3.52549 7.91106 2.0766 10.6212 2.0766ZM16.6475 15.6164C15.6916 15.258 14.8843 14.353 14.6589 14.084C14.3798 13.7508 13.8843 13.705 13.549 13.9846C13.2147 14.2637 13.1701 14.7608 13.4496 15.0951C13.818 15.5355 14.8139 16.6139 16.0957 17.0932C16.9229 17.4032 19.5075 18.6035 19.6614 21.5092C16.8183 22.4483 13.7813 22.9234 10.6228 22.9234C7.46488 22.9234 4.42731 22.4483 1.58418 21.5092C1.73764 18.6062 4.31958 17.4032 5.14413 17.0937C6.43326 16.6112 7.4281 15.5355 7.79597 15.0951C8.07555 14.7608 8.03088 14.2637 7.69664 13.9846C7.36188 13.705 6.86525 13.7508 6.58619 14.084C6.36179 14.352 5.5551 15.2554 4.59128 15.6164C3.46453 16.0395 -0.194744 17.7595 0.00811088 22.1088C0.0228258 22.4294 0.230411 22.709 0.532592 22.8157C3.69524 23.9335 7.09018 24.5 10.6228 24.5C14.156 24.5 17.5504 23.9335 20.7125 22.8157C21.0142 22.709 21.2217 22.4299 21.237 22.1088C21.4388 17.7548 17.7758 16.0379 16.6475 15.6164Z" />
	</symbol>
	<symbol id="message">
		<path d="M2.89844 2.51953C4.65625 1.08984 6.77734 0.375 9.26172 0.375C11.7461 0.375 13.8672 1.08984 15.625 2.51953C17.3828 3.94922 18.2617 5.67188 18.2617 7.6875C18.2617 9.70312 17.3828 11.4258 15.625 12.8555C13.8672 14.2852 11.7461 15 9.26172 15C8.16016 15 7.07031 14.8359 5.99219 14.5078C4.46875 15.5859 2.83984 16.125 1.10547 16.125C0.730469 16.125 0.472656 15.9492 0.332031 15.5977C0.191406 15.2695 0.238281 14.9766 0.472656 14.7188C0.519531 14.6719 0.625 14.5547 0.789062 14.3672C0.976562 14.1562 1.19922 13.8398 1.45703 13.418C1.73828 12.9727 1.96094 12.5391 2.125 12.1172C0.882813 10.8047 0.261719 9.32812 0.261719 7.6875C0.261719 5.67188 1.14062 3.94922 2.89844 2.51953ZM9.26172 13.3125C11.2773 13.3125 13 12.7617 14.4297 11.6602C15.8594 10.5586 16.5742 9.23438 16.5742 7.6875C16.5742 6.14062 15.8594 4.81641 14.4297 3.71484C13 2.61328 11.2773 2.0625 9.26172 2.0625C7.24609 2.0625 5.52344 2.61328 4.09375 3.71484C2.66406 4.81641 1.94922 6.14062 1.94922 7.6875C1.94922 8.88281 2.41797 9.97266 3.35547 10.957L4.05859 11.7305L3.70703 12.7148C3.51953 13.1836 3.28516 13.6641 3.00391 14.1562C3.70703 13.9219 4.375 13.5703 5.00781 13.1016L5.71094 12.6445L6.51953 12.8906C7.41016 13.1719 8.32422 13.3125 9.26172 13.3125Z" fill="#C9C9C9" />
	</symbol>
	<symbol id="menu-icon">
		<path fill="black" d="M0.837891 3.28436V1.51464C0.837891 1.12366 1.31644 0.806747 1.90683 0.806747H22.6126C23.203 0.806747 23.6815 1.12366 23.6815 1.51464V3.28436C23.6815 3.67533 23.203 3.99225 22.6126 3.99225H1.90683C1.31644 3.99225 0.837891 3.67533 0.837891 3.28436ZM1.90683 13.9511H22.6126C23.203 13.9511 23.6815 13.6342 23.6815 13.2432V11.4735C23.6815 11.0826 23.203 10.7656 22.6126 10.7656H1.90683C1.31644 10.7656 0.837891 11.0826 0.837891 11.4735V13.2432C0.837891 13.6342 1.31644 13.9511 1.90683 13.9511ZM1.90683 23.91H22.6126C23.203 23.91 23.6815 23.5931 23.6815 23.2021V21.4324C23.6815 21.0414 23.203 20.7245 22.6126 20.7245H1.90683C1.31644 20.7245 0.837891 21.0414 0.837891 21.4324V23.2021C0.837891 23.5931 1.31644 23.91 1.90683 23.91Z" />
	</symbol>
	<symbol id="calculater">
		<path fill-rule="evenodd" d="M0.65918 2.65892C0.65918 1.19035 1.8497 -0.000167847 3.31827 -0.000167847H19.6819C21.1505 -0.000167847 22.341 1.19035 22.341 2.65892V27.2044C22.341 28.673 21.1505 29.8635 19.6819 29.8635H3.31827C1.8497 29.8635 0.65918 28.673 0.65918 27.2044V2.65892ZM3.31827 1.2271C2.5275 1.2271 1.88645 1.86815 1.88645 2.65892V27.2044C1.88645 27.9951 2.5275 28.6362 3.31827 28.6362H19.6819C20.4727 28.6362 21.1137 27.9951 21.1137 27.2044V2.65892C21.1137 1.86815 20.4727 1.2271 19.6819 1.2271H3.31827ZM4.23873 3.83506H18.7615V10.0481H4.23873V3.83506ZM5.466 5.06233V8.82086H17.5342V5.06233H5.466ZM4.23873 11.5055H18.7615V26.0282H4.23873V11.5055ZM5.466 12.7328V15.9416L8.62367 15.9416V12.7328H5.466ZM9.85094 12.7328V15.9416H13.0981V12.7328H9.85094ZM14.3254 12.7328V15.9416L17.5342 15.9416V12.7328H14.3254ZM17.5342 17.1689H14.3254V24.801H17.5342V17.1689ZM13.0981 24.801V21.5794H9.85094V24.801H13.0981ZM8.62367 24.801V21.5794H5.466V24.801H8.62367ZM5.466 20.3521H8.62367V17.1689H5.466V20.3521ZM9.85094 17.1689V20.3521H13.0981V17.1689L9.85094 17.1689Z" clip-rule="evenodd" />
	</symbol>
	<symbol id="vector-arrow-next">
		<path d="M4.72553 4.3109L1.16604 7.87122C0.994367 8.04293 0.716045 8.04293 0.544393 7.87122L0.129237 7.45596C-0.0421406 7.28454 -0.0424702 7.00672 0.128504 6.8349L2.94947 3.99999L0.128504 1.1651C-0.0424702 0.993275 -0.0421406 0.715456 0.129237 0.544038L0.544393 0.128783C0.716064 -0.0429278 0.994385 -0.0429278 1.16604 0.128783L4.72551 3.6891C4.89719 3.8608 4.89719 4.13918 4.72553 4.3109Z" fill="#17A1E3" />
	</symbol>
	<symbol id="vector-arrow-prew">
		<path d="M0.132615 4.3109L3.79934 7.87122C3.97618 8.04293 4.26289 8.04293 4.43971 7.87122L4.86737 7.45596C5.04391 7.28454 5.04425 7.00672 4.86813 6.8349L1.96218 3.99999L4.86813 1.1651C5.04425 0.993275 5.04391 0.715456 4.86737 0.544038L4.43971 0.128783C4.26287 -0.0429278 3.97616 -0.0429278 3.79934 0.128783L0.132634 3.6891C-0.044208 3.8608 -0.044208 4.13918 0.132615 4.3109Z" fill="#17A1E3" />
	</symbol>
	<symbol id="plus" viewBox="0 0 21 22">
		<path d="M12.7444 8.50267H19.3735C19.7713 8.50267 20.1138 8.6463 20.401 8.93356C20.6883 9.22083 20.843 9.57438 20.8651 9.99422V11.4526C20.843 11.8725 20.6883 12.226 20.401 12.5133C20.1138 12.8006 19.7713 12.9442 19.3735 12.9442H12.7444V19.5733C12.7444 19.9711 12.6008 20.3136 12.3135 20.6008C12.0262 20.8881 11.6727 21.0428 11.2528 21.0649H9.79443C9.37458 21.0428 9.02103 20.8881 8.73377 20.6008C8.4465 20.3136 8.30287 19.9711 8.30287 19.5733V12.9442H1.67375C1.276 12.9442 0.933495 12.8006 0.646233 12.5133C0.358971 12.226 0.204291 11.8725 0.182194 11.4526V9.99422C0.204291 9.57438 0.358971 9.22083 0.646233 8.93356C0.933495 8.6463 1.276 8.50267 1.67375 8.50267H8.30287V1.87354C8.30287 1.4758 8.4465 1.13329 8.73377 0.84603C9.02103 0.558767 9.37458 0.404088 9.79443 0.381991H11.2528C11.6727 0.404088 12.0262 0.558767 12.3135 0.84603C12.6008 1.13329 12.7444 1.4758 12.7444 1.87354V8.50267Z" />
	</symbol>
	<symbol id="del" viewBox="0 0 7 8">
		<path d="M4.76562 4.25L6.71875 6.20312C6.83594 6.32031 6.89453 6.46354 6.89453 6.63281C6.89453 6.80208 6.83594 6.95182 6.71875 7.08203L6.28906 7.51172C6.15885 7.62891 6.00911 7.6875 5.83984 7.6875C5.67057 7.6875 5.52734 7.62891 5.41016 7.51172L3.45703 5.55859L1.50391 7.51172C1.38672 7.62891 1.24349 7.6875 1.07422 7.6875C0.904948 7.6875 0.755208 7.62891 0.625 7.51172L0.195312 7.08203C0.078125 6.95182 0.0195312 6.80208 0.0195312 6.63281C0.0195312 6.46354 0.078125 6.32031 0.195312 6.20312L2.14844 4.25L0.195312 2.29688C0.078125 2.17969 0.0195312 2.03646 0.0195312 1.86719C0.0195312 1.69792 0.078125 1.54818 0.195312 1.41797L0.625 0.988281C0.755208 0.871094 0.904948 0.8125 1.07422 0.8125C1.24349 0.8125 1.38672 0.871094 1.50391 0.988281L3.45703 2.94141L5.41016 0.988281C5.52734 0.871094 5.67057 0.8125 5.83984 0.8125C6.00911 0.8125 6.15885 0.871094 6.28906 0.988281L6.71875 1.41797C6.83594 1.54818 6.89453 1.69792 6.89453 1.86719C6.89453 2.03646 6.83594 2.17969 6.71875 2.29688L4.76562 4.25Z" />
	</symbol>
	<symbol id="setting" viewBox="0 0 9 9">
		<path d="M8.56055 5.67969C8.66602 5.72656 8.70117 5.80859 8.66602 5.92578C8.4668 6.54688 8.14453 7.09766 7.69922 7.57812C7.62891 7.66016 7.54688 7.67773 7.45312 7.63086L6.69727 7.19141C6.38086 7.46094 6.02344 7.66602 5.625 7.80664V8.66797C5.625 8.78516 5.57227 8.85547 5.4668 8.87891C4.82227 9.01953 4.18359 9.01953 3.55078 8.87891C3.43359 8.85547 3.375 8.78516 3.375 8.66797V7.80664C2.97656 7.66602 2.61914 7.46094 2.30273 7.19141L1.56445 7.63086C1.45898 7.67773 1.37109 7.66016 1.30078 7.57812C0.855469 7.09766 0.533203 6.54688 0.333984 5.92578C0.298828 5.82031 0.333984 5.73828 0.439453 5.67969L1.17773 5.24023C1.14258 5.04102 1.125 4.83594 1.125 4.625C1.125 4.41406 1.14258 4.20898 1.17773 4.00977L0.439453 3.57031C0.333984 3.52344 0.298828 3.44141 0.333984 3.32422C0.533203 2.70313 0.855469 2.15234 1.30078 1.67188C1.37109 1.58984 1.45898 1.57813 1.56445 1.63672L2.30273 2.05859C2.61914 1.78906 2.97656 1.58398 3.375 1.44336V0.582031C3.375 0.464844 3.42773 0.394531 3.5332 0.371094C4.17773 0.230469 4.82227 0.230469 5.4668 0.371094C5.57227 0.394531 5.625 0.464844 5.625 0.582031V1.44336C6.02344 1.58398 6.38086 1.78906 6.69727 2.05859L7.43555 1.61914C7.54102 1.57227 7.62891 1.58984 7.69922 1.67188C8.14453 2.15234 8.4668 2.70313 8.66602 3.32422C8.70117 3.44141 8.66602 3.52344 8.56055 3.57031L7.82227 4.00977C7.89258 4.41992 7.89258 4.83008 7.82227 5.24023L8.56055 5.67969ZM3.49805 5.62695C3.7793 5.89648 4.11328 6.03125 4.5 6.03125C4.88672 6.03125 5.21484 5.89648 5.48438 5.62695C5.76562 5.3457 5.90625 5.01172 5.90625 4.625C5.90625 4.23828 5.76562 3.91016 5.48438 3.64062C5.21484 3.35938 4.88672 3.21875 4.5 3.21875C4.11328 3.21875 3.7793 3.35938 3.49805 3.64062C3.22852 3.91016 3.09375 4.23828 3.09375 4.625C3.09375 5.01172 3.22852 5.3457 3.49805 5.62695Z" />
	</symbol>
	<symbol id="copy" viewBox="0 0 7 8">
		<path d="M6.78125 1.03125C6.92708 1.17708 7 1.35417 7 1.5625V5.75C7 5.95833 6.92708 6.13542 6.78125 6.28125C6.63542 6.42708 6.45833 6.5 6.25 6.5H5V7.25C5 7.45833 4.92708 7.63542 4.78125 7.78125C4.63542 7.92708 4.45833 8 4.25 8H0.75C0.541667 8 0.364583 7.92708 0.21875 7.78125C0.0729167 7.63542 0 7.45833 0 7.25V2.25C0 2.04167 0.0729167 1.86458 0.21875 1.71875C0.364583 1.57292 0.541667 1.5 0.75 1.5H2V0.75C2 0.541667 2.07292 0.364583 2.21875 0.21875C2.36458 0.0729167 2.54167 0 2.75 0H5.4375C5.64583 0 5.82292 0.0729167 5.96875 0.21875L6.78125 1.03125ZM4.15625 7.25C4.21875 7.25 4.25 7.21875 4.25 7.15625V6.5H2.75C2.54167 6.5 2.36458 6.42708 2.21875 6.28125C2.07292 6.13542 2 5.95833 2 5.75V2.25H0.84375C0.78125 2.25 0.75 2.28125 0.75 2.34375V7.15625C0.75 7.21875 0.78125 7.25 0.84375 7.25H4.15625ZM6.15625 5.75C6.21875 5.75 6.25 5.71875 6.25 5.65625V2.5H4.875C4.77083 2.5 4.68229 2.46354 4.60938 2.39062C4.53646 2.31771 4.5 2.22917 4.5 2.125V0.75H2.84375C2.78125 0.75 2.75 0.78125 2.75 0.84375V5.65625C2.75 5.71875 2.78125 5.75 2.84375 5.75H6.15625ZM6.25 1.75V1.59375C6.25 1.57292 6.23958 1.55208 6.21875 1.53125L5.46875 0.78125C5.44792 0.760417 5.42708 0.75 5.40625 0.75H5.25V1.75H6.25Z" />
	</symbol>
	<symbol id="check" viewBox="0 0 27 22">
		<path d="M9.1704 21.5677L0.395389 11.9795C-0.131797 11.4035 -0.131797 10.4695 0.395389 9.8934L2.30453 7.80729C2.83172 7.23119 3.68654 7.23119 4.21373 7.80729L10.125 14.2663L22.7863 0.431785C23.3135 -0.144254 24.1683 -0.144254 24.6955 0.431785L26.6046 2.5179C27.1318 3.09394 27.1318 4.02792 26.6046 4.60402L11.0796 21.5677C10.5524 22.1438 9.69758 22.1438 9.1704 21.5677Z" />
	</symbol>
	<symbol id="cold" viewBox="0 0 75 81">
		<path d="M37.7438 0C38.8437 0.588001 39.1596 1.49511 39.0818 2.72619C38.9749 4.4335 39.0543 6.15214 39.0543 7.86593L39.3038 8.01982C40.0878 7.1856 40.8572 6.33681 41.6606 5.52365C42.5337 4.64084 43.4117 3.76126 44.3366 2.93191C45.187 2.17382 46.0828 2.19164 46.7777 2.88493C47.4726 3.57822 47.5147 4.50477 46.7323 5.32441C44.9505 7.20504 43.2302 9.16342 41.2816 10.8578C39.5516 12.3626 38.6364 14.0003 39.043 16.302C39.124 16.7621 39.0543 17.248 39.0543 17.721L39.3604 17.9348C39.631 17.5769 39.8642 17.18 40.1801 16.869C41.6007 15.4646 43.0245 14.0634 44.4872 12.7044C45.2891 11.9593 46.0925 11.9884 46.768 12.6704C47.0958 12.9826 47.2867 13.4118 47.2992 13.8643C47.3116 14.3168 47.1445 14.7558 46.8344 15.0856C45.9354 16.0915 44.9975 17.0618 44.0499 18.0239C42.5548 19.5433 41.0208 21.0255 39.5435 22.5595C39.268 22.8666 39.1037 23.2574 39.077 23.6691C39.0187 24.9358 39.0673 26.2057 39.0478 27.4741C39.0478 27.8904 39.145 28.1042 39.5969 28.1852C42.153 28.6387 44.254 29.9459 46.1427 31.6743C47.4386 32.8584 46.9397 32.6462 48.5142 31.961C50.722 30.9891 52.0373 29.5215 52.4342 27.0383C52.784 24.8418 53.5567 22.7134 54.1706 20.559C54.315 20.0397 54.5205 19.5395 54.7829 19.0687C54.9706 18.7511 55.26 18.5062 55.6043 18.3736C55.9486 18.241 56.3275 18.2285 56.6798 18.3382C57.3795 18.5488 57.961 19.3101 57.8234 20.086C57.5933 21.411 57.2451 22.715 56.9276 24.0222C56.6571 25.1383 56.3607 26.2462 56.0756 27.3574L56.2861 27.547C57.5124 26.737 58.7483 25.9433 59.9518 25.101C60.1365 24.973 60.1932 24.6329 60.2628 24.3769C61.0857 21.4175 61.894 18.4532 62.7185 15.4938C62.8253 15.1023 62.9707 14.7225 63.1526 14.3599C63.5479 13.584 64.3708 13.226 65.111 13.4479C65.5159 13.5692 65.8604 13.8381 66.0764 14.2014C66.2924 14.5647 66.3641 14.9959 66.2773 15.4095C65.7914 17.619 65.2406 19.8155 64.719 22.0168C64.6947 22.1189 64.6834 22.2242 64.638 22.4931C65.1726 22.2274 65.6099 22.0233 66.044 21.7933C67.3739 21.0773 68.6876 20.3354 70.0288 19.6373C71.0202 19.1238 71.7119 19.349 72.3598 20.3128C72.8457 21.0271 72.7 21.918 71.835 22.4963C70.4468 23.4229 68.9824 24.2376 67.5489 25.0881C67.186 25.3051 66.8167 25.5124 66.2935 25.8137C67.8971 26.2527 69.3194 26.6237 70.7302 27.0335C71.7119 27.3202 72.6935 27.6199 73.646 27.9908C74.4947 28.3148 74.8219 29.2867 74.4802 30.2116C74.2923 30.7202 73.2831 31.4654 72.4829 31.2353C70.0207 30.5307 67.5392 29.8957 65.064 29.2348C64.7255 29.1457 64.3594 29.115 64.05 28.9643C61.57 27.7543 59.9858 29.5653 58.1522 30.7899C58.4405 30.8855 58.7256 30.9924 59.0172 31.0734C60.961 31.6192 62.9145 32.1505 64.8583 32.7045C65.5225 32.8924 66.0181 33.2812 66.1267 34.0182C66.2352 34.7552 66.0764 35.4275 65.4236 35.7806C64.9822 36.0109 64.4764 36.0867 63.9869 35.996C61.2331 35.3481 58.4794 34.7002 55.7597 33.9016C54.1399 33.4237 52.682 33.3427 51.2792 34.454C50.6491 34.9512 49.6221 35.1408 49.2852 35.7498C48.9985 36.2698 49.478 37.1882 49.5622 37.9366C49.8149 40.1736 49.9056 42.409 49.1524 44.5779C48.9904 45.0331 49.1248 45.2615 49.5266 45.477C50.3365 45.9111 51.1642 46.3257 51.898 46.8668C52.8164 47.5439 53.7317 47.5876 54.791 47.2993C57.5998 46.5363 60.4264 45.8414 63.2466 45.1173C63.5866 45.0306 63.9318 44.9657 64.28 44.923C65.158 44.8144 65.8675 45.2648 66.0894 46.0569C66.3615 47.0288 66.0894 47.7998 65.179 48.0995C63.3632 48.6972 61.5117 49.1864 59.6716 49.7193C59.1678 49.8667 58.6608 50.0076 58.1554 50.1518L58.0987 50.4288C59.312 51.101 60.5155 51.7943 61.7499 52.4261C61.9702 52.5378 62.333 52.4261 62.6132 52.3596C65.8529 51.5173 69.0856 50.668 72.3112 49.8116C73.194 49.58 74.1918 50.0174 74.4721 50.7544C74.843 51.7263 74.4964 52.7209 73.5002 53.0432C71.4511 53.7122 69.368 54.2743 67.2994 54.8785L66.3275 55.162C67.1714 55.6593 67.8858 56.0723 68.5953 56.4983C69.6563 57.1382 70.7335 57.7569 71.7669 58.4421C72.6514 59.0269 72.9008 59.866 72.4149 60.5738C71.6373 61.677 71.0412 61.9134 70.0564 61.3692C68.7362 60.637 67.4063 59.9227 66.0764 59.2067C65.6537 58.9783 65.2212 58.7661 64.5975 58.4438C64.9393 59.8384 65.2455 61.0468 65.5338 62.2585C65.7962 63.3583 66.0716 64.4582 66.2886 65.5678C66.3815 65.9846 66.3123 66.421 66.0951 66.7887C65.8779 67.1563 65.529 67.4275 65.1191 67.5472C64.3513 67.7951 63.4993 67.4225 63.1283 66.5753C62.8194 65.8285 62.5612 65.0617 62.3557 64.28C61.6478 61.7369 60.9853 59.1792 60.2499 56.6425C60.1041 56.1919 59.8209 55.7982 59.44 55.5167C58.4162 54.791 57.3342 54.1577 56.2635 53.4871L56.0691 53.649C56.4071 54.9676 56.7451 56.2851 57.0831 57.6014C57.3228 58.5409 57.5901 59.4772 57.7829 60.4264C58.0064 61.5328 57.5464 62.4124 56.6862 62.6634C55.7662 62.9323 54.8558 62.4642 54.4897 61.3676C53.9762 59.8352 53.5681 58.2688 53.1307 56.7121C52.6447 55 52.2139 53.2732 51.6939 51.5724C51.5548 51.1544 51.2858 50.7917 50.9261 50.5373C50.0595 49.9461 49.0827 49.512 48.2307 48.9029C47.4434 48.3408 46.9704 48.6032 46.2869 49.1378C44.9357 50.199 43.5181 51.1729 42.0429 52.0535C41.3707 52.4568 40.5348 52.6302 39.7492 52.7921C39.179 52.9088 39.0122 53.1355 39.0316 53.7009C39.0754 54.9141 39.0073 56.1306 39.0673 57.3439C39.0972 57.7557 39.263 58.146 39.5386 58.4535C41.842 60.8444 44.194 63.1899 46.4958 65.5808C46.8506 65.9501 47.1843 66.4603 47.2604 66.9463C47.3738 67.6768 47.0061 68.3005 46.3128 68.6779C45.6195 69.0553 45.0493 68.8593 44.5407 68.375C42.9586 66.8631 41.3869 65.3437 39.8253 63.8168C39.6399 63.5944 39.4771 63.354 39.3394 63.0992L39.0527 63.2968C39.0527 64.7417 39.0316 66.1866 39.0754 67.6299C39.0754 67.8712 39.341 68.1385 39.5386 68.3393C41.6984 70.5359 43.8582 72.7264 46.018 74.911C46.3035 75.1969 46.5739 75.4975 46.8279 75.8117C47.4856 76.6216 47.4321 77.4315 46.687 78.188C46.039 78.8472 45.43 78.9347 44.6233 78.2139C42.9533 76.7236 41.3609 75.1475 39.746 73.5973C39.587 73.4135 39.4449 73.2156 39.3216 73.0061L39.1126 73.1195C39.0807 73.3099 39.0591 73.5018 39.0478 73.6945C39.0478 75.2885 38.9701 76.8856 39.0705 78.4714C39.1418 79.5891 38.7854 80.3877 37.8961 81H36.6002C35.7077 80.3521 35.2752 79.5098 35.4664 78.3742C35.536 77.9531 35.4777 77.5125 35.4777 77.0784V73.147L35.2363 73.0029C34.7925 73.4969 34.3811 74.0217 33.9032 74.4769C32.5377 75.7728 31.1803 77.093 29.7483 78.3208C29.0226 78.9412 28.3812 78.7905 27.7656 78.0924C27.0756 77.31 27.0594 76.5973 27.7268 75.7776C27.9649 75.4861 28.2127 75.2058 28.4849 74.9369C30.663 72.7264 32.8433 70.5175 35.0258 68.3102C35.1877 68.1482 35.4404 67.9392 35.4437 67.7465C35.4793 66.2562 35.4631 64.7644 35.4631 63.2725L35.178 63.1024C34.995 63.3697 34.8541 63.6742 34.6224 63.8978C33.0787 65.4074 31.5544 66.9382 29.9524 68.3831C28.9578 69.2789 27.7284 68.814 27.3153 67.5327C27.0416 66.6839 27.4773 66.1234 27.9973 65.5889C30.3169 63.2142 32.6543 60.8573 34.9739 58.481C35.1861 58.264 35.4453 57.9643 35.4599 57.6954C35.5052 56.1339 35.4809 54.5707 35.4809 53.0335C34.509 52.7273 33.5549 52.5006 32.664 52.1393C30.9791 51.4621 29.459 50.4314 28.2062 49.1167C27.6134 48.4947 27.095 48.3635 26.3483 48.877C25.4606 49.486 24.4741 49.9493 23.58 50.547C23.2374 50.7835 22.9805 51.1244 22.8478 51.5189C22.2744 53.4628 21.782 55.4195 21.228 57.3649C20.8246 58.7888 20.4472 60.2272 19.9208 61.6073C19.4721 62.7784 18.1147 63.0862 17.2691 62.3298C16.6519 61.779 16.5726 61.0792 16.7653 60.326C17.2513 58.4454 17.7372 56.5696 18.2232 54.6906C18.3171 54.3229 18.3965 53.9519 18.4824 53.5842L18.2928 53.4611C17.2723 54.1091 16.2632 54.7732 15.2297 55.4049C14.9755 55.5528 14.7548 55.752 14.5819 55.9899C14.409 56.2278 14.2876 56.4992 14.2254 56.7867C13.5613 59.3428 12.8583 61.8891 12.1504 64.4323C11.9556 65.1615 11.7138 65.8774 11.4263 66.5753C11.1558 67.2103 10.6002 67.7092 9.91989 67.5829C9.33328 67.4601 8.81089 67.1293 8.44908 66.6515C8.19476 66.2773 8.25469 65.6099 8.34217 65.0997C8.50415 64.1731 8.78114 63.2676 9.00792 62.3459C9.31245 61.11 9.61374 59.8725 9.962 58.447C9.33027 58.771 8.89939 58.9945 8.47499 59.2229C7.07221 59.9729 5.68401 60.752 4.26341 61.4696C3.46645 61.873 2.66463 61.5036 2.12523 60.5868C1.73161 59.921 1.86443 59.1597 2.52533 58.643C3.01977 58.2685 3.53695 57.9249 4.07389 57.6144C5.40378 56.8158 6.74501 56.0383 8.24336 55.1571C7.00094 54.825 5.92861 54.595 4.89515 54.2484C3.2494 53.696 1.63118 53.0659 0 52.4666V50.7009C0.678712 49.7177 1.60364 49.6853 2.65006 49.9671C5.33089 50.688 8.03926 51.3116 10.6958 52.1118C12.0662 52.5249 13.247 52.4989 14.4214 51.6453C15.0564 51.182 15.7578 50.8095 16.6325 50.2701C16.0639 50.0903 15.7643 49.9866 15.4614 49.9024C13.5402 49.3646 11.6142 48.8527 9.70121 48.2825C8.60458 47.9585 8.16074 47.1292 8.44584 46.1071C8.69529 45.2178 9.52303 44.7302 10.5338 44.9829C13.8545 45.809 17.1692 46.6589 20.478 47.5325C20.7183 47.6088 20.9728 47.6295 21.2223 47.5931C21.4717 47.5566 21.7096 47.4639 21.918 47.3219C22.9223 46.6918 23.9444 46.0876 24.9957 45.5288C25.4412 45.2907 25.5546 45.0428 25.3958 44.5779C24.6685 42.43 24.7187 40.2254 24.9828 38.0144C25.0751 37.2433 25.5562 36.2925 25.2598 35.7595C24.9082 35.1294 23.8489 34.935 23.1961 34.4248C21.8322 33.3573 20.4326 33.4448 18.863 33.8983C16.1206 34.6921 13.3377 35.3481 10.5646 36.0317C9.55705 36.2795 8.78276 35.86 8.48795 34.9934C8.13483 33.968 8.58352 33.0496 9.69311 32.7256C11.6369 32.1538 13.5807 31.6371 15.5245 31.0912C15.8145 31.0102 16.0996 30.9081 16.3863 30.8158L16.4284 30.5485C15.2103 29.8763 13.9986 29.1879 12.7659 28.5513C12.5683 28.4508 12.2395 28.5513 11.9852 28.6242C8.90749 29.4341 5.8298 30.1938 2.7683 31.0798C1.5923 31.4249 0.728927 31.2321 0.00161984 30.291V28.5091C0.855275 28.135 1.68301 27.6847 2.56582 27.4028C4.00262 26.9428 5.48153 26.6026 6.92967 26.1928C7.31226 26.0613 7.68752 25.9093 8.05383 25.7376C6.9572 25.0994 6.01446 24.5762 5.09925 24.0109C4.19291 23.4802 3.31585 22.9011 2.47187 22.276C1.80288 21.7593 1.75428 20.972 2.19488 20.3225C2.8007 19.4283 3.47131 19.1643 4.30067 19.5595C5.11059 19.9402 5.88649 20.3695 6.67049 20.7874C7.70719 21.3462 8.73579 21.9213 9.98468 22.6048C9.59754 21.0709 9.2509 19.7766 8.94637 18.4726C8.68881 17.3728 8.42478 16.2713 8.26279 15.1536C8.15427 14.3534 8.72607 13.6617 9.46633 13.4544C9.83647 13.3622 10.227 13.3996 10.573 13.5602C10.9189 13.7208 11.1995 13.995 11.368 14.3372C11.553 14.6988 11.6996 15.0789 11.8054 15.4711C12.6153 18.4046 13.4252 21.3414 14.2351 24.2765C14.3129 24.5584 14.355 24.9439 14.5591 25.0864C15.774 25.9466 17.0277 26.75 18.2702 27.5713L18.471 27.3769C18.1114 26.0016 17.7437 24.6232 17.3987 23.2495C17.1444 22.2307 16.869 21.2118 16.7005 20.1718C16.6447 19.7791 16.7315 19.3793 16.9451 19.045C17.1588 18.7107 17.4852 18.4641 17.8651 18.3499C18.2451 18.2356 18.6533 18.2614 19.0159 18.4224C19.3785 18.5834 19.6714 18.869 19.8414 19.2275C20.0631 19.659 20.2395 20.1122 20.3678 20.58C20.9656 22.7069 21.7382 24.8111 22.0735 26.9816C22.4672 29.5345 23.8424 31.0312 26.0988 32.0112C27.5696 32.6511 27.1064 32.873 28.3407 31.7342C30.244 29.9783 32.366 28.6566 34.948 28.1965C35.4178 28.1123 35.4842 27.8726 35.4793 27.4741C35.4631 26.1782 35.502 24.8823 35.4534 23.5865C35.4263 23.2247 35.2786 22.8824 35.0339 22.6146C34.1332 21.6427 33.1743 20.7339 32.2494 19.7879C30.7575 18.2637 29.2559 16.7491 27.8013 15.1908C27.0254 14.3599 27.0578 13.3944 27.7721 12.6655C28.4865 11.9366 29.2057 11.9544 30.1193 12.7692C31.1268 13.6666 32.0793 14.6239 33.0496 15.5618C33.8109 16.3004 34.5641 17.0472 35.4793 17.9413C35.4793 16.8836 35.3999 16.0461 35.4955 15.2297C35.6672 13.7719 35.2914 12.638 34.0765 11.7244C33.3703 11.1979 32.8033 10.4836 32.1829 9.84376C30.6959 8.31679 29.2132 6.7855 27.7349 5.2499C27.189 4.68295 27.0562 4.0415 27.4611 3.32877C28.054 2.29045 29.1328 2.0329 30.0431 2.81042C31.0442 3.67055 31.9659 4.62302 32.9119 5.54633C33.7218 6.33843 34.5236 7.14511 35.4858 8.10081C35.4858 6.14405 35.5214 4.44808 35.4728 2.75534C35.4404 1.6409 35.6721 0.690051 36.6067 0.00161984L37.7438 0ZM46.2237 40.4814C46.2237 35.604 42.1385 31.5544 37.2271 31.5544C32.4032 31.5544 28.3261 35.6413 28.318 40.4862C28.3099 45.3312 32.4243 49.4909 37.2611 49.4763C42.098 49.4618 46.2286 45.3279 46.2237 40.4814Z" />
	</symbol>
	<symbol id="hot" viewBox="0 0 82 81">
		<path d="M21.4961 40.5338C21.4961 30.3807 29.3287 21.4117 40.7705 21.3953C51.9536 21.3773 59.9728 30.1728 59.9957 40.4977C60.0219 51.1191 51.3722 59.7836 40.7656 59.7918C30.1589 59.8 21.501 51.1551 21.4961 40.5338ZM40.741 55.9271C44.8252 55.9314 48.7442 54.3144 51.6369 51.4311C54.5296 48.5479 56.1596 44.6343 56.1687 40.5501C56.1851 32.0756 49.2548 25.1061 40.7934 25.093C32.278 25.0782 25.3166 32.0249 25.3231 40.537C25.3292 44.622 26.9563 48.5375 29.8471 51.4237C32.7379 54.3099 36.656 55.9308 40.741 55.9303V55.9271Z" />
		<path d="M13.6766 11.2996C13.9845 11.4633 14.5658 11.6402 14.9474 12.0152C17.687 14.7107 20.3809 17.4372 23.0911 20.1622C23.9868 21.0661 24.0245 22.0896 23.2335 22.9035C22.3656 23.7993 21.3454 23.7878 20.376 22.8282C17.6466 20.1272 14.9261 17.4198 12.2142 14.7057C11.5232 14.0163 11.3692 13.2008 11.7361 12.3886C12.0587 11.6566 12.6678 11.3733 13.6766 11.2996Z" />
		<path d="M59.8705 23.5816C58.8307 23.4817 58.2133 23.0903 57.8776 22.319C57.5419 21.5477 57.7138 20.8746 58.287 20.2949C60.7434 17.8189 63.2025 15.3467 65.6643 12.8783C65.9918 12.5508 66.3063 12.2085 66.6469 11.8958C67.5279 11.113 68.7151 11.1277 69.4455 11.9138C70.1218 12.6409 70.0874 13.8789 69.3112 14.6649C66.5426 17.4455 63.7587 20.2131 60.9595 22.9675C60.6418 23.2966 60.1407 23.4391 59.8705 23.5816Z" />
		<path d="M70.0808 67.7091C69.976 68.7031 69.6992 69.3467 68.9099 69.6562C68.0469 69.9984 67.2952 69.7986 66.6598 69.1649C65.1696 67.6911 63.6958 66.1927 62.2171 64.7041C60.9692 63.4481 59.7099 62.2019 58.4768 60.9295C57.6236 60.0485 57.6204 58.9791 58.4179 58.1669C59.1663 57.4054 60.2765 57.389 61.1183 58.216C63.9185 60.9671 66.6991 63.7368 69.4601 66.5251C69.7975 66.8706 69.9268 67.4127 70.0808 67.7091Z" />
		<path d="M13.6907 69.8294C12.5624 69.7885 11.945 69.4675 11.6191 68.7011C11.4453 68.3406 11.3918 67.9338 11.4663 67.5406C11.5409 67.1474 11.7397 66.7884 12.0334 66.5166C14.8173 63.7218 17.6154 60.9411 20.4277 58.1747C21.2121 57.4018 22.3011 57.446 23.0478 58.2025C23.7946 58.9591 23.8666 60.053 23.0937 60.8374C20.9861 62.999 18.8359 65.1279 16.7071 67.2699C16.1323 67.8496 15.5935 68.4702 14.9745 68.9975C14.534 69.384 13.9772 69.6509 13.6907 69.8294Z" />
		<path d="M73.351 42.4349C71.4416 42.4349 69.5338 42.4349 67.6195 42.4349C66.3602 42.4349 65.5266 41.6767 65.5119 40.5468C65.4972 39.4168 66.3307 38.6144 67.5802 38.6111C71.4252 38.6013 75.2692 38.6013 79.1121 38.6111C80.3943 38.6111 81.2213 39.3775 81.2311 40.5058C81.2409 41.6652 80.3992 42.4234 79.0678 42.43C77.1666 42.4414 75.2588 42.4333 73.351 42.4349Z" />
		<path d="M7.74934 42.4349C5.86939 42.4349 3.98289 42.4349 2.1095 42.4349C0.855105 42.4316 0.0182987 41.6751 0.000285211 40.5451C-0.0177282 39.4152 0.819078 38.6144 2.07183 38.6111C5.91361 38.6013 9.75593 38.6013 13.5988 38.6111C14.8909 38.6111 15.6965 39.3628 15.7047 40.5058C15.7047 41.6751 14.8859 42.4234 13.5546 42.43C11.6271 42.4414 9.68497 42.4333 7.74934 42.4349Z" />
		<path d="M38.8376 7.71794C38.8376 5.8642 38.8376 4.01045 38.8376 2.15015C38.8475 0.853182 39.6286 0 40.7749 0C41.8836 0 42.6434 0.848269 42.6467 2.12886C42.6565 5.89094 42.6565 9.65193 42.6467 13.4118C42.6467 14.7022 41.8901 15.4768 40.7143 15.4621C39.568 15.4473 38.8458 14.6891 38.836 13.4413C38.8262 11.5335 38.8376 9.62573 38.8376 7.71794Z" />
		<path d="M42.6571 73.2854C42.6571 75.1113 42.6571 76.9388 42.6571 78.7647C42.6571 80.1812 41.9316 81.0098 40.7296 81C39.5276 80.9902 38.8415 80.1616 38.8398 78.7254C38.8398 75.0736 38.8398 71.4207 38.8398 67.7667C38.8398 66.3944 39.6046 65.5216 40.7738 65.5232C41.9431 65.5248 42.6489 66.3649 42.6554 67.7241C42.6636 69.5779 42.6571 71.4316 42.6571 73.2854Z" />
	</symbol>
	<symbol id="window-men" viewBox="0 0 120 114">
		<path d="M88.9666 101.947H1.99999V2H88.9666V49.2451" stroke="#F26422" stroke-width="2.5" fill="white"/>
		<path d="M79.8806 92.861H48.7284V12.5459H80.2088L79.8806 49.2452" stroke="#F26422" stroke-width="2.5" fill="white"/>
		<rect x="-1.25" y="1.25" width="30.4029" height="24.4972" transform="matrix(-1 0 0 1 41.4313 11.2803)" fill="white" stroke="#F26422" stroke-width="2.5" />
		<rect x="-1.25" y="1.25" width="29.9502" height="46.8244" transform="matrix(-1 0 0 1 41.0361 43.5366)" fill="white" stroke="#F26422" stroke-width="2.5" />
		<path d="M38.9046 113.363C37.7904 112.655 37.9843 111.617 38.1654 110.556C39.026 105.517 39.7742 100.456 40.7435 95.438C41.4827 91.6422 43.4864 88.5802 47.2131 87.0853C48.8437 86.4346 50.6554 86.2268 52.3946 85.905C56.2191 85.2019 60.0563 84.5656 63.8863 83.8824C65.4733 83.6004 66.5658 82.299 66.785 80.4896C66.8593 79.8624 66.91 79.2243 66.977 78.6025C67.0839 77.621 67.7017 77.0101 68.5188 77.0625C69.3866 77.1167 69.9537 77.8289 69.8631 78.8574C69.7073 80.6234 69.6185 82.411 68.5677 83.9348C74.9087 88.2367 82.5179 88.2422 88.5328 84.0432C87.4457 82.4707 87.3298 80.6342 87.1812 78.8014C87.1033 77.8524 87.6468 77.133 88.4838 77.0517C89.2701 76.9739 89.9042 77.5288 90.0455 78.4652C90.1542 79.1791 90.1778 79.9112 90.2956 80.6161C90.6144 82.5177 91.3608 83.3274 93.2215 83.6763C97.9645 84.5572 102.712 85.4152 107.463 86.2502C110.474 86.7799 113.002 88.0578 114.743 90.6625C115.772 92.1989 115.913 93.9974 116.236 95.7326C117.185 100.85 118.073 105.98 119.046 111.097C119.227 112.082 119.058 112.794 118.254 113.363H38.9046ZM52.5341 110.408H104.624V103.292H52.5341V110.408ZM93.7976 100.317C93.7976 99.9406 93.7976 99.646 93.7976 99.3495C93.7976 95.8549 93.7934 92.364 93.7849 88.8766C93.7849 88.1879 93.9407 87.3854 93.6382 86.8558C93.4352 86.4943 92.4805 86.6497 91.9895 86.3605C91.1706 85.8761 90.6144 86.2213 89.9531 86.6425C85.2844 89.6141 80.2424 90.7854 74.7529 89.6755C71.9411 89.108 69.3902 87.906 66.9426 86.4473C66.6568 86.2635 66.3174 86.1807 65.9788 86.2123C65.2785 86.3515 64.5934 86.5586 63.9334 86.8305C63.6779 86.9335 63.3391 87.2679 63.3391 87.4975C63.3283 91.7108 63.3609 95.9242 63.3899 100.138C63.3899 100.186 63.446 100.235 63.4949 100.318L93.7976 100.317ZM53.8367 100.349V88.5856C52.7261 88.779 51.7261 88.9977 50.7151 89.1279C46.9595 89.5779 44.6169 91.7506 43.8234 95.306C42.7001 100.28 41.8722 105.322 40.8993 110.423H49.5955V109.492C49.5955 107.082 49.5955 104.672 49.5955 102.261C49.5955 100.794 50.0557 100.345 51.554 100.342L53.8367 100.349ZM115.904 110.428C115.905 110.235 115.894 110.042 115.871 109.85C114.933 104.736 113.935 99.6351 113.074 94.5089C112.67 92.1049 111.339 90.5052 109.165 89.7515C107.289 89.1026 105.278 88.8477 103.275 88.394V100.349C104.17 100.349 105.008 100.349 105.847 100.349C107.039 100.364 107.559 100.87 107.567 102.05C107.577 104.096 107.567 106.142 107.567 108.187V110.426L115.904 110.428ZM100.255 100.306V87.9186L96.7434 87.286V100.3L100.255 100.306ZM60.3716 100.306V87.4414L56.8568 88.065V100.309L60.3716 100.306Z" fill="#F26422" />
		<path d="M78.5864 51.1841C73.6078 51.1841 68.622 51.1986 63.6507 51.1642C63.0247 51.1475 62.4084 51.0049 61.839 50.7449C60.4929 50.1448 59.1903 49.4453 57.8532 48.8036C57.1557 48.4656 56.797 47.9577 56.8205 47.1642C56.8477 46.3218 56.8205 45.4795 56.8296 44.6336C56.8568 43.3177 57.4347 42.2964 58.6196 41.718C59.1069 41.4812 59.25 41.1758 59.3135 40.6931C60.2773 33.481 64.1598 28.4199 70.7037 25.3109C71.0351 25.1322 71.3094 24.8641 71.4954 24.5373C72.3632 23.1039 73.597 22.2978 75.2728 22.2724C77.4734 22.2399 79.6759 22.2399 81.8801 22.2724C83.5578 22.2941 84.7879 23.0985 85.6503 24.5301C85.8592 24.8758 86.1602 25.1568 86.5199 25.3417C93.0113 28.4651 96.8648 33.5118 97.8594 40.6823C97.9487 41.0892 98.1929 41.4457 98.5406 41.6764C99.662 42.3687 100.287 43.3032 100.318 44.6264C100.338 45.4994 100.421 46.3887 100.283 47.2383C100.2 47.7588 99.8668 48.424 99.4392 48.6716C97.959 49.532 96.401 50.2659 94.8411 50.9817C94.428 51.1624 93.9044 51.1769 93.4316 51.1769C88.482 51.1914 83.5336 51.1938 78.5864 51.1841ZM70.883 28.5121C69.4808 29.0977 67.6129 30.5004 66.2795 32.0007C63.6108 34.9994 62.2122 38.5078 62.1216 42.5133C62.1017 43.334 61.8082 44.0986 60.9911 44.0986C59.7048 44.0986 59.7229 44.7872 59.7229 45.7073C59.7229 46.3001 59.8715 46.6544 60.4476 46.8677C61.6741 47.3196 62.8771 48.2179 64.0982 48.2342C73.1205 48.3517 82.1446 48.2631 91.1687 48.3282C92.9079 48.3668 94.6297 47.9769 96.1817 47.1931C97.2416 46.6635 97.5514 46.0471 97.4246 44.9698C97.363 44.4583 97.2343 44.2269 96.689 44.1817C95.4317 44.0769 95.082 43.6629 95.044 42.4067C94.9831 39.4988 94.1233 36.6634 92.5583 34.2095C91.0079 31.7447 88.8164 29.7457 86.2173 28.4253C86.1467 28.6061 86.0941 28.7127 86.0633 28.823C85.4129 31.1981 84.7861 33.5804 84.1031 35.9465C83.7987 37.0057 83.074 37.4233 82.2316 37.1522C81.3366 36.8648 81.0232 36.1056 81.3638 35.0211C81.679 34.0161 82.0885 33.0328 82.304 32.0097C82.7013 30.2601 83.0037 28.4903 83.2099 26.7082C83.3168 25.6544 82.7026 25.1699 81.6555 25.1627C79.6022 25.1495 77.5489 25.1495 75.4956 25.1627C74.492 25.1627 73.9666 25.6309 73.9503 26.6449C73.9095 27.5437 73.9844 28.4439 74.1731 29.3237C74.6695 31.312 75.3036 33.2497 75.8616 35.2163C76.2058 36.4291 75.2819 37.5661 74.2311 37.1449C73.6805 36.8784 73.2565 36.4073 73.0498 35.8327C72.2672 33.434 71.6041 30.9993 70.883 28.5121Z" fill="#F26422" />
		<path d="M96.4518 52.616L98.9429 51.5767C99.0697 52.4443 99.2907 53.2233 99.2744 53.997C99.2338 55.1386 99.117 56.2763 98.9247 57.4024C98.624 59.2985 97.5949 60.674 95.9427 61.7025C95.2004 62.1875 94.5963 62.8556 94.1889 63.642C92.9044 66.1581 91.7757 68.7538 90.5456 71.2988C88.1125 76.331 84.0506 78.8344 78.4778 78.7965C72.9774 78.7603 68.9935 76.2334 66.6093 71.2662C65.3882 68.7176 64.2541 66.1274 62.9696 63.6077C62.5839 62.836 61.9984 62.1814 61.2738 61.7116C59.54 60.6686 58.4493 59.228 58.2301 57.2614C58.0489 55.6346 58.1087 53.9807 58.0888 52.3394C58.0888 52.1207 58.241 51.9002 58.3479 51.6164L60.7285 52.616C60.8335 54.0349 60.8951 55.349 61.0383 56.6522C61.1578 57.7548 61.6651 58.6279 62.7087 59.1702C64.0693 59.8751 64.9932 60.9904 65.631 62.3822C66.8388 65.0043 68.0665 67.6168 69.3142 70.2197C71.1512 74.0065 74.2348 75.8719 78.4216 75.9207C82.7136 75.9731 85.9203 74.1547 87.8262 70.2649C89.0944 67.671 90.3082 65.0501 91.5094 62.4255C92.1598 61.0048 93.0983 59.8733 94.4897 59.1503C94.9273 58.9387 95.3035 58.6191 95.5825 58.2218C95.8615 57.8245 96.0341 57.3626 96.084 56.88C96.2543 55.5171 96.3249 54.1434 96.4518 52.616Z" fill="#F26422" />
		<path d="M52.5342 110.408V103.292H104.624V110.408H52.5342Z" fill="white" />
		<path d="M93.7976 100.317H63.4877C63.4388 100.235 63.3826 100.186 63.3826 100.136C63.3537 95.9224 63.321 91.709 63.3319 87.4956C63.3319 87.266 63.6707 86.9316 63.9262 86.8286C64.5885 86.5562 65.276 86.3492 65.9788 86.2104C66.3174 86.1788 66.6568 86.2616 66.9427 86.4454C69.3903 87.9041 71.9412 89.1061 74.7529 89.6737C80.2424 90.7835 85.2844 89.6122 89.9532 86.6406C90.6144 86.2195 91.1706 85.8742 91.9895 86.3586C92.4805 86.6478 93.4389 86.4978 93.6382 86.8539C93.9407 87.3835 93.7831 88.1861 93.7849 88.8747C93.7958 92.3693 93.8 95.8603 93.7976 99.3477C93.7994 99.6459 93.7976 99.9405 93.7976 100.317Z" fill="white" />
		<path d="M53.8368 100.349H51.554C50.0557 100.349 49.5974 100.801 49.5956 102.269C49.5956 104.679 49.5956 107.089 49.5956 109.499V110.43H40.8994C41.8722 105.329 42.7002 100.288 43.8235 95.3136C44.617 91.7509 46.9595 89.5783 50.7079 89.1282C51.7189 89.0053 52.7189 88.7866 53.8295 88.5859L53.8368 100.349Z" fill="white" />
		<path d="M115.904 110.429H107.57V108.189C107.57 106.145 107.57 104.098 107.57 102.052C107.57 100.872 107.043 100.366 105.851 100.351C105.012 100.351 104.173 100.351 103.278 100.351V88.3945C105.282 88.841 107.293 89.1031 109.168 89.752C111.342 90.5057 112.674 92.1018 113.078 94.5095C113.938 99.6357 114.937 104.737 115.875 109.85C115.896 110.042 115.906 110.235 115.904 110.429Z" fill="white" />
		<path d="M100.255 100.308H96.7435V87.2935L100.255 87.9261V100.308Z" fill="white" />
		<path d="M60.3716 100.31H56.8569V88.0655L60.3716 87.4419V100.31Z" fill="white" />
		<path d="M70.8831 28.5124C71.6078 30.9995 72.2636 33.4343 73.0427 35.8311C73.2493 36.4058 73.6734 36.8768 74.2239 37.1434C75.2801 37.5645 76.2041 36.4204 75.8544 35.2147C75.2964 33.2481 74.6623 31.3032 74.1659 29.3221C73.9772 28.4424 73.9023 27.5421 73.9431 26.6433C73.9594 25.6293 74.4866 25.1684 75.4885 25.1612C77.5417 25.1455 79.595 25.1455 81.6483 25.1612C82.6954 25.1612 83.3096 25.6528 83.2027 26.7066C82.9966 28.4888 82.6942 30.2585 82.2969 32.0081C82.0795 33.0312 81.6718 34.0145 81.3566 35.0195C81.016 36.104 81.3294 36.8632 82.2244 37.1506C83.0669 37.4217 83.7915 37.0042 84.0959 35.945C84.7789 33.5789 85.4058 31.1966 86.0562 28.8214C86.087 28.7112 86.1395 28.6045 86.2102 28.4238C88.8093 29.7442 91.0007 31.7432 92.5511 34.2079C94.1158 36.6589 94.9768 39.491 95.0404 42.3961C95.0785 43.6614 95.4281 44.0663 96.6855 44.1711C97.229 44.2163 97.3594 44.4477 97.421 44.9592C97.5478 46.0437 97.2399 46.6529 96.1782 47.1825C94.6291 47.9683 92.9099 48.3613 91.1724 48.3267C82.1483 48.2616 73.1242 48.3502 64.1019 48.2327C62.8808 48.2164 61.6778 47.318 60.4513 46.8662C59.8715 46.6529 59.7266 46.2986 59.7266 45.7057C59.7175 44.7857 59.703 44.097 60.9948 44.097C61.8119 44.097 62.1054 43.3324 62.1253 42.5118C62.2123 38.5045 63.6109 34.9996 66.2886 32.01C67.613 30.5025 69.4808 29.098 70.8831 28.5124Z" fill="white" />
	</symbol>
	<symbol id="document" viewBox="0 0 96 108">
		<path d="M71.1093 3.0349H3.06571V104.948H71.1093C71.125 104.645 71.1541 104.349 71.1541 104.051C71.1541 97.5514 71.1541 91.0517 71.1541 84.5521C71.1541 84.0478 71.1429 83.5435 71.1697 83.0392C71.2168 82.1427 71.8214 81.5196 72.6365 81.5174C73.4517 81.5151 74.0832 82.1158 74.1033 83.028C74.1369 84.5117 74.1213 85.9954 74.119 87.4814C74.119 93.6449 74.1153 99.8076 74.1078 105.97C74.1078 107.539 73.6376 107.998 72.0274 107.998L29.2844 107.987H1.99529C0.528494 107.964 0.0134363 107.465 0.0111969 106.012C0.0037323 101.948 0 97.8846 0 93.8219C0 81.4412 0 69.0589 0 56.6752C0 44.3497 0 32.0227 0 19.6943C0 13.8968 0 8.09793 0 2.29753C0 0.432793 0.414285 0.0114341 2.2573 0.0114341H63.8089C66.5529 0.0114341 69.2961 0.0114341 72.0386 0.0114341C73.6756 0.000227784 74.1235 0.448482 74.1235 2.10478C74.1235 18.859 74.1198 35.6117 74.1123 52.363C74.1123 53.1474 74.1324 53.9319 74.1123 54.7163C74.0966 55.8369 73.5636 56.4667 72.6365 56.4667C71.7094 56.4667 71.163 55.8302 71.1608 54.7118C71.1518 48.6873 71.1518 42.6643 71.1608 36.6427C71.1608 25.6874 71.1608 14.7336 71.1608 3.78125C71.1541 3.5616 71.1294 3.34196 71.1093 3.0349Z" fill="#F26422" />
		<path d="M33.6444 93.526C32.9211 94.1984 32.3008 94.6959 31.77 95.2831C31.0602 96.0743 30.4264 96.935 29.7546 97.762C29.1567 98.4994 28.449 98.7145 27.6854 98.403C27.2941 98.2421 26.9696 97.9521 26.7659 97.581C26.5622 97.2099 26.4915 96.7803 26.5657 96.3634C26.5793 96.139 26.6356 95.9191 26.7314 95.7157C27.5958 94.223 27.5958 92.6183 27.3405 90.9911C27.0718 89.2788 26.83 87.5575 26.4448 85.8698C26.0305 84.0477 25.1594 83.5994 23.3567 84.144C21.554 84.6887 20.0872 85.8407 18.7413 87.1182C15.8816 89.8458 13.6266 93.0441 11.5462 96.3746C11.4275 96.5652 11.3223 96.7669 11.1901 96.9439C10.6616 97.6365 9.88233 97.7911 9.19036 97.3541C8.5611 96.9551 8.25878 96.1102 8.66859 95.4378C11.7141 90.4442 14.959 85.6009 20.029 82.3869C21.9212 81.1878 24.0039 80.614 26.2768 81.2819C26.8618 81.4296 27.4014 81.7191 27.8482 82.1248C28.2949 82.5305 28.6351 83.04 28.8387 83.6084C29.7882 86.0738 30.0726 88.6535 30.3055 91.2511L30.3906 92.2104C30.6145 92.0176 30.7802 91.8831 30.9415 91.7621C31.6558 91.2265 32.3187 90.5967 33.0957 90.182C34.6028 89.3774 36.0271 90.0812 36.4548 91.7375C36.6788 92.616 37.9731 93.5013 38.8398 93.2817C40.0535 92.9769 41.0635 93.192 42.2593 93.6918C43.6992 94.2947 45.3944 94.3799 47.0045 94.4584C48.5027 94.5301 50.0165 94.2903 51.5236 94.2141C52.3007 94.176 52.6635 93.8375 52.8538 93.0464C53.6077 89.9175 54.4147 86.8022 55.2746 83.7003C55.4876 82.9214 55.8306 82.1841 56.289 81.5195C66.1289 67.4937 75.9821 53.479 85.8488 39.4756C86.8185 38.0972 87.4478 37.9896 88.8272 38.9646C90.8606 40.402 92.8947 41.8386 94.9295 43.2745C96.1791 44.1598 96.2978 44.821 95.4155 46.0739C86.0033 59.4699 76.5464 72.8413 67.1814 86.2732C65.7392 88.3397 64.0865 90.0408 61.9636 91.3721C59.9364 92.6141 57.975 93.9606 56.0875 95.4064C54.7656 96.476 53.1458 97.1109 51.4497 97.2241C48.4064 97.4482 45.3228 97.8651 42.3757 96.8946C40.8194 96.3814 39.3727 96.034 37.785 96.4598C37.675 96.4833 37.5613 96.4833 37.4513 96.4598C36.6832 96.3119 35.9487 96.1707 35.1291 96.2738C34.3856 96.3679 33.8504 95.7762 33.7407 94.9739C33.6825 94.5816 33.6847 94.176 33.6444 93.526ZM63.6902 86.0043L89.1273 49.8392L84.503 46.5737L59.0569 82.7388L63.6902 86.0043ZM90.8516 47.394L92.4192 45.1527L87.7971 41.9118L86.2295 44.1531L90.8516 47.394ZM61.4015 88.3711L57.5834 85.6816C57.028 87.8511 56.5174 89.8413 56.0158 91.8294L56.2196 91.9324L61.4015 88.3711Z" fill="#F26422" />
		<path d="M37.5253 34.2643H11.8441C10.3414 34.2643 9.57557 33.7309 9.60468 32.7178C9.64051 31.7429 10.3706 31.2677 11.8441 31.2677H63.1259C63.4335 31.2561 63.7415 31.2614 64.0485 31.2834C64.4446 31.3094 64.8145 31.4905 65.0782 31.7875C65.3418 32.0845 65.4779 32.4735 65.4571 32.8702C65.4145 33.6659 64.8345 34.2396 63.9612 34.2688C62.9826 34.3046 62.0017 34.2889 61.0231 34.2889H37.5253V34.2643Z" fill="#F26422" />
		<path d="M37.5096 64.5328H63.1886C63.4417 64.5328 63.6925 64.5216 63.9433 64.5328C64.839 64.5933 65.4481 65.2052 65.4593 66.0188C65.4705 66.8749 64.8368 67.5092 63.8918 67.5137C60.6469 67.5316 57.3976 67.5294 54.1572 67.5271H11.9449C11.6649 67.5271 11.385 67.5384 11.1073 67.5137C10.2317 67.4375 9.59799 66.783 9.61814 65.9941C9.6383 65.2052 10.272 64.5642 11.1633 64.5463C12.4218 64.5194 13.6804 64.5306 14.9389 64.5306H37.5096V64.5328Z" fill="#F26422" />
		<path d="M37.4984 24.1516H63.2625C63.5695 24.1332 63.8776 24.143 64.1829 24.1807C64.9286 24.3175 65.3899 24.7881 65.4437 25.5434C65.4974 26.2987 65.1481 26.8501 64.3889 27.0518C64.0637 27.1318 63.7295 27.1695 63.3946 27.1639C46.1917 27.1639 28.9888 27.1571 11.7859 27.1437C11.5067 27.1513 11.2273 27.1363 10.9506 27.0989C10.0951 26.9554 9.55767 26.3077 9.62037 25.53C9.64902 25.148 9.82378 24.7917 10.1083 24.5354C10.3927 24.279 10.765 24.1424 11.1476 24.1538C12.3793 24.1314 13.6109 24.1538 14.8404 24.1538H37.4984V24.1516Z" fill="#F26422" />
		<path d="M37.5074 53.25C28.8066 53.25 20.1074 53.25 11.4096 53.25C10.7378 53.25 10.1018 53.1357 9.86224 52.4969C9.69793 52.0131 9.70188 51.4878 9.87343 51.0065C10.122 50.37 10.7692 50.2669 11.441 50.2691C15.4428 50.2691 19.4423 50.2691 23.4418 50.2691H63.2155C63.5512 50.2567 63.8873 50.2702 64.2209 50.3095C64.584 50.3683 64.9121 50.5606 65.1411 50.8486C65.3701 51.1367 65.4836 51.4998 65.4593 51.8672C65.4388 52.2199 65.2915 52.5533 65.0445 52.8059C64.7975 53.0584 64.4676 53.213 64.1157 53.2411C63.781 53.2639 63.4455 53.2699 63.1102 53.259H37.5074V53.25Z" fill="#F26422" />
		<path d="M37.5432 60.3775H11.9315C11.6238 60.3865 11.3158 60.3797 11.0088 60.3573C10.1601 60.2676 9.58683 59.6401 9.6137 58.8557C9.62483 58.4724 9.78602 58.1089 10.0625 57.8435C10.339 57.5781 10.7086 57.4321 11.0917 57.4369C12.4913 57.4101 13.8909 57.4213 15.2905 57.4213H63.0677C63.3767 57.4213 63.6858 57.4213 63.9926 57.4213C64.3748 57.4246 64.7407 57.5762 65.0135 57.8442C65.2862 58.1121 65.4445 58.4755 65.4549 58.8579C65.4631 59.0546 65.4313 59.2509 65.3613 59.4349C65.2914 59.6189 65.1848 59.7868 65.048 59.9283C64.9112 60.0698 64.7471 60.182 64.5657 60.258C64.3843 60.3341 64.1893 60.3724 63.9926 60.3707C62.9849 60.4088 61.9771 60.3954 60.9694 60.3954H37.5432V60.3775Z" fill="#F26422" />
		<path d="M37.5857 41.3735H12.0568C11.7231 41.3735 11.385 41.3735 11.0513 41.3533C10.1958 41.2726 9.61361 40.6809 9.60913 39.8831C9.61048 39.6859 9.65142 39.4911 9.72953 39.3101C9.80764 39.1291 9.92132 38.9657 10.0638 38.8296C10.2063 38.6935 10.3747 38.5874 10.5589 38.5177C10.7432 38.4481 10.9396 38.4162 11.1364 38.424C13.1518 38.4016 15.1673 38.4083 17.1827 38.4083H63.1147C63.3946 38.4083 63.6745 38.3971 63.9544 38.4083C64.8323 38.4621 65.4526 39.0807 65.4615 39.8987C65.4705 40.7168 64.8726 41.3242 63.9499 41.3488C62.9713 41.378 61.9905 41.3668 61.0119 41.3668H37.5857V41.3735Z" fill="#F26422" />
		<path d="M37.3371 11.0876H53.7854C54.0646 11.0772 54.3443 11.0824 54.6229 11.1033C54.9786 11.1283 55.3132 11.2817 55.5643 11.5351C55.8155 11.7884 55.9662 12.1245 55.9884 12.4807C56.0105 12.8369 55.9027 13.189 55.6849 13.4716C55.4671 13.7542 55.1542 13.948 54.8043 14.017C54.5307 14.0694 54.2519 14.0905 53.9735 14.0797C42.8945 14.0797 31.8171 14.0693 20.7411 14.0484C20.3111 14.0484 19.7267 14.0147 19.487 13.7503C19.1139 13.3343 18.8984 12.8005 18.8779 12.2419C18.8958 11.5852 19.449 11.1638 20.1342 11.1011C20.6896 11.0495 21.2539 11.0675 21.8115 11.0675H37.3371V11.0876Z" fill="#F26422" />
	</symbol>
	<symbol id="pay" viewBox="0 0 109 108">
		<path d="M100.999 108H5.18832C3.84801 107.56 2.50409 107.034 1.679 105.838C0.990826 104.855 0.551259 103.702 0 102.624V71.6997C0.0586371 71.6012 0.108086 71.4975 0.147723 71.3899C1.04847 68.0283 3.39043 66.2232 6.87093 66.2232H34.8915V65.027C34.8915 59.4351 34.8374 53.8577 34.9563 48.2586C35.0188 46.3087 35.7569 44.4411 37.0445 42.9754C38.3321 41.5097 40.089 40.5371 42.0146 40.2239C43.0955 40.0402 44.1764 40.051 45.3366 39.9645V0H97.7386V40.0546C98.5421 40.0546 99.2591 40.0294 99.9725 40.0546C102.136 40.1728 104.174 41.1065 105.676 42.6677C107.179 44.2288 108.033 46.3013 108.068 48.4676C108.068 65.4413 108.036 82.4151 108.101 99.3888C108.101 102.192 106.415 105.874 102.779 107.38C102.199 107.622 101.605 107.795 100.999 108ZM48.8747 3.40844V47.0048H49.8728C52.7552 46.9759 55.6376 46.9291 58.52 46.9291C59.1469 46.9291 59.3919 46.7562 59.5396 46.104C60.1341 43.3617 61.6507 40.906 63.8366 39.1464C66.0224 37.3869 68.7454 36.4298 71.5515 36.4349C74.3575 36.44 77.0771 37.4068 79.2566 39.1742C81.4361 40.9416 82.9438 43.4028 83.5284 46.1473C83.6653 46.767 83.8887 46.9291 84.494 46.9291C86.7963 46.9291 89.0986 46.9795 91.401 47.0048C92.3125 47.0048 93.2025 47.0048 94.1537 47.0048V3.40844H48.8747ZM104.628 90.5759H103.406C95.6813 90.5759 87.9577 90.5759 80.2353 90.5759C78.7584 90.5925 77.3031 90.2197 76.0161 89.495C74.3235 88.5637 72.9891 87.0953 72.2234 85.3216C71.4578 83.5478 71.3045 81.5696 71.7877 79.6991C72.2709 77.8286 73.3632 76.1722 74.8921 74.9912C76.4211 73.8102 78.2997 73.1719 80.2317 73.177C87.9853 73.177 95.7378 73.177 103.489 73.177H104.653V63.0525C104.653 59.6693 102.469 57.4787 99.097 57.4787C81.082 57.4787 63.067 57.4847 45.0519 57.4967C42.7172 57.4967 40.5194 57.2157 38.5665 55.8682C38.5413 55.8501 38.4693 55.897 38.444 55.9078V66.2052H52.6038C56.4987 66.2052 59.3054 69.0119 59.3054 72.9068C59.3054 80.138 59.3667 87.3728 59.2802 94.604C59.237 97.908 59.8206 101.262 58.6785 104.53C58.8731 104.53 59.0172 104.559 59.1577 104.559C72.6449 104.559 86.1322 104.559 99.6194 104.559C102.109 104.559 104.458 102.538 104.595 100.03C104.754 96.9208 104.628 93.8114 104.628 90.5759ZM3.50212 90.5074H55.8465C55.8465 84.4688 55.8465 78.5094 55.8465 72.5501C55.8607 72.0377 55.7219 71.5327 55.4479 71.0996C55.1739 70.6664 54.7771 70.3247 54.3081 70.118C53.5994 69.8171 52.8369 69.6638 52.067 69.6677C37.1434 69.6412 22.2197 69.6352 7.29608 69.6496C7.03666 69.6496 6.77725 69.6496 6.52143 69.6496C4.6803 69.8154 3.50572 71.0404 3.50212 72.8923C3.50212 78.5959 3.50212 84.2994 3.50212 90.0066C3.46249 90.1615 3.4841 90.2984 3.50212 90.5074ZM99.3744 50.442H43.6756V47.0552L45.2717 46.9868V43.5099C44.6412 43.5099 44.0719 43.5099 43.5027 43.5099C42.709 43.5327 41.9307 43.7344 41.2258 44.0999C40.521 44.4654 39.9077 44.9853 39.4318 45.6209C38.9559 46.2565 38.6297 46.9913 38.4773 47.7705C38.325 48.5498 38.3506 49.3534 38.5521 50.1214C39.1718 52.4669 41.2868 53.9982 43.9386 53.9982C62.2971 53.9982 80.6544 53.9982 99.0105 53.9982C100.805 53.9476 102.574 54.4304 104.094 55.3854C104.231 55.4718 104.379 55.5367 104.649 55.6808C104.649 53.3172 104.649 51.0834 104.649 48.8351C104.647 47.9978 104.452 47.1722 104.078 46.4231C103.703 45.674 103.161 45.0216 102.493 44.517C101.825 44.0125 101.049 43.6694 100.226 43.5147C99.4029 43.3599 98.5553 43.3978 97.7495 43.6252V46.9651L99.3708 47.0444L99.3744 50.442ZM104.602 76.7439C104.39 76.7439 104.242 76.7079 104.105 76.7079C96.0657 76.7079 88.0262 76.7079 79.9867 76.7079C77.515 76.7079 75.3027 78.8157 75.0433 81.2909C74.7119 84.512 77.0574 87.135 80.3722 87.1458C88.2411 87.171 96.1065 87.1458 103.975 87.1458C104.17 87.1458 104.365 87.117 104.602 87.099V76.7439ZM55.8465 94.1897H3.45888V97.5405H55.8465V94.1897ZM3.52734 101.097C3.2391 103.017 4.9181 104.592 6.74842 104.588C22.0179 104.545 37.2839 104.563 52.5498 104.563C52.7227 104.563 52.9101 104.563 53.0686 104.563C53.4776 104.527 53.8748 104.406 54.235 104.209C54.5953 104.012 54.9109 103.743 55.162 103.418C55.4131 103.093 55.5943 102.72 55.6941 102.322C55.7939 101.923 55.8102 101.509 55.7421 101.104L3.52734 101.097ZM63.0706 46.9579H79.9614C79.6227 43.2937 75.6054 40.0113 71.5268 40.0113C67.4482 40.0113 63.4381 43.2612 63.0706 46.9579Z" fill="#F26422" />
		<path d="M19.1284 76.6394H7.04028V73.2598H19.1284V76.6394Z" fill="#F26422" />
		<path d="M10.5568 83.5608V80.21H19.0959V83.5608H10.5568Z" fill="#F26422" />
		<path d="M80.2497 83.6112C80.0203 83.6209 79.7914 83.5829 79.5775 83.4996C79.3635 83.4163 79.1692 83.2896 79.0066 83.1274C78.8441 82.9653 78.717 82.7712 78.6333 82.5574C78.5496 82.3436 78.5111 82.1148 78.5202 81.8854C78.515 81.6627 78.5539 81.4413 78.6347 81.2337C78.7155 81.0262 78.8366 80.8368 78.991 80.6763C79.1455 80.5158 79.3302 80.3876 79.5344 80.2989C79.7387 80.2102 79.9586 80.1628 80.1812 80.1595C80.4119 80.1489 80.6423 80.1847 80.8588 80.2649C81.0753 80.3451 81.2735 80.468 81.4416 80.6263C81.6096 80.7846 81.7441 80.9751 81.8371 81.1865C81.9301 81.3978 81.9796 81.6257 81.9827 81.8566C81.9906 82.0873 81.9514 82.3172 81.8674 82.5322C81.7833 82.7473 81.6563 82.9429 81.4941 83.1071C81.3319 83.2714 81.1378 83.4008 80.9239 83.4875C80.7099 83.5742 80.4805 83.6163 80.2497 83.6112Z" fill="#F26422" />
	</symbol>
</svg>
